{"glyphs":{"0":{"ha":643,"x_min":50,"x_max":593,"o":"m 593 496 q 528 106 593 227 q 319 -14 463 -14 q 113 107 176 -14 q 50 496 50 228 q 116 886 50 764 q 322 1007 182 1007 q 529 888 465 1007 q 593 496 593 770 m 235 496 q 253 215 235 288 q 321 143 271 143 q 373 174 355 143 q 400 278 392 205 q 408 496 408 350 q 389 775 408 701 q 321 850 370 850 q 253 775 271 850 q 235 496 235 701 z "},"1":{"ha":643,"x_min":66,"x_max":494,"o":"m 494 0 l 313 0 l 313 582 q 322 800 313 677 q 287 759 317 793 q 170 635 257 724 l 66 747 l 330 991 l 494 991 l 494 0 z "},"2":{"ha":643,"x_min":41,"x_max":582,"o":"m 582 0 l 50 0 l 50 138 l 227 387 q 326 540 299 490 q 366 636 353 590 q 379 730 379 682 q 354 816 379 787 q 288 844 328 844 q 220 825 252 844 q 144 757 189 806 l 41 865 q 174 976 113 946 q 306 1006 235 1006 q 493 935 426 1006 q 561 739 561 865 q 549 631 561 682 q 512 529 536 581 q 450 423 487 478 q 257 170 412 368 l 257 164 l 582 164 l 582 0 z "},"3":{"ha":643,"x_min":43,"x_max":582,"o":"m 562 768 q 516 611 562 675 q 386 524 470 548 l 386 518 q 531 445 479 503 q 582 286 582 387 q 497 68 582 149 q 264 -14 412 -14 q 43 33 132 -14 l 43 199 q 140 156 87 172 q 240 140 192 140 q 359 177 319 140 q 399 292 399 213 q 216 440 399 440 l 160 440 l 160 578 l 214 578 q 337 616 294 578 q 380 729 380 654 q 353 818 380 788 q 275 848 326 848 q 126 783 199 848 l 43 905 q 296 1006 143 1006 q 492 942 421 1006 q 562 768 562 879 z "},"4":{"ha":643,"x_min":25,"x_max":623,"o":"m 623 208 l 522 208 l 522 0 l 349 0 l 349 208 l 25 208 l 25 358 l 325 991 l 522 991 l 522 361 l 623 361 l 623 208 m 349 361 l 349 570 l 352 662 l 357 750 l 351 750 q 300 616 328 676 l 180 361 l 349 361 z "},"5":{"ha":643,"x_min":61,"x_max":583,"o":"m 339 621 q 517 543 451 621 q 583 329 583 465 q 501 77 583 167 q 272 -14 418 -14 q 61 36 142 -14 l 61 208 q 150 164 96 183 q 252 144 205 144 q 397 314 397 144 q 256 472 397 472 q 136 450 199 472 l 77 494 l 107 991 l 530 991 l 530 827 l 265 827 l 252 612 q 339 621 290 621 z "},"6":{"ha":643,"x_min":50,"x_max":593,"o":"m 50 421 q 144 864 50 724 q 432 1004 239 1004 q 493 1001 463 1004 q 539 993 524 997 l 539 840 q 447 851 492 851 q 320 817 370 851 q 245 716 271 783 q 214 526 219 648 l 221 526 q 286 611 245 583 q 382 640 328 640 q 537 559 481 640 q 593 328 593 478 q 519 78 593 170 q 321 -14 446 -14 q 119 96 188 -14 q 50 421 50 206 m 322 142 q 388 186 363 142 q 412 326 412 231 q 390 447 412 403 q 323 492 368 492 q 258 450 283 492 q 233 346 233 409 q 257 194 233 247 q 322 142 280 142 z "},"7":{"ha":643,"x_min":54,"x_max":586,"o":"m 122 0 l 400 827 l 54 827 l 54 990 l 586 990 l 586 865 l 313 0 l 122 0 z "},"8":{"ha":643,"x_min":49,"x_max":595,"o":"m 322 1004 q 507 939 438 1004 q 576 760 576 873 q 544 633 576 690 q 435 525 512 576 q 558 398 522 463 q 595 257 595 334 q 520 61 595 136 q 322 -14 446 -14 q 121 55 194 -14 q 49 252 49 124 q 85 402 49 337 q 197 517 121 468 q 97 630 127 573 q 66 760 66 688 q 138 938 66 871 q 322 1004 210 1004 m 224 261 q 249 166 224 201 q 319 131 273 131 q 394 166 370 131 q 419 261 419 201 q 399 342 419 304 q 323 429 380 380 l 314 439 q 247 365 270 406 q 224 261 224 323 m 321 861 q 262 833 282 861 q 243 753 243 805 q 259 675 243 708 q 322 604 275 642 q 384 673 367 639 q 400 753 400 708 q 321 861 400 861 z "},"9":{"ha":643,"x_min":46,"x_max":589,"o":"m 589 559 q 205 -14 589 -14 q 100 -3 142 -14 l 100 153 q 186 138 146 138 q 358 216 299 138 q 422 464 416 295 l 416 464 q 354 380 395 410 q 258 350 314 350 q 102 433 157 350 q 46 660 46 515 q 119 911 46 819 q 314 1004 192 1004 q 518 890 447 1004 q 589 559 589 775 m 315 847 q 251 803 275 847 q 227 664 227 759 q 248 542 227 586 q 311 498 269 498 q 378 543 350 498 q 407 644 407 587 q 382 790 407 732 q 315 847 357 847 z "}," ":{"ha":343,"x_min":0,"x_max":0,"o":""},"!":{"ha":376,"x_min":75,"x_max":300,"o":"m 262 319 l 114 319 l 81 991 l 297 991 l 262 319 m 75 93 q 103 175 75 146 q 187 204 132 204 q 271 175 243 204 q 300 93 300 146 q 270 11 300 40 q 187 -18 241 -18 q 104 11 132 -18 q 75 93 75 41 z "},"\"":{"ha":619,"x_min":82,"x_max":538,"o":"m 260 991 l 232 633 l 110 633 l 82 991 l 260 991 m 538 991 l 510 633 l 387 633 l 359 991 l 538 991 z "},"#":{"ha":755,"x_min":28,"x_max":729,"o":"m 581 581 l 555 410 l 693 410 l 693 278 l 538 278 l 497 0 l 367 0 l 408 278 l 285 278 l 245 0 l 115 0 l 155 278 l 28 278 l 28 410 l 175 410 l 200 581 l 64 581 l 64 711 l 220 711 l 260 991 l 387 991 l 347 711 l 471 711 l 513 991 l 640 991 l 600 711 l 729 711 l 729 581 l 581 581 m 304 410 l 427 410 l 452 581 l 328 581 l 304 410 z "},"$":{"ha":643,"x_min":50,"x_max":593,"o":"m 593 310 q 532 137 593 202 q 359 61 471 73 l 359 -81 l 281 -81 l 281 58 q 50 115 152 62 l 50 282 q 165 230 104 250 q 281 207 225 210 l 281 436 l 257 447 q 96 561 142 502 q 50 708 50 619 q 111 872 50 810 q 281 946 171 934 l 281 1055 l 359 1055 l 359 947 q 568 889 465 941 l 514 745 q 359 793 427 787 l 359 578 q 380 568 380 570 q 509 496 467 531 q 572 416 552 461 q 593 310 593 371 m 433 306 q 420 356 433 336 q 359 400 407 376 l 359 211 q 433 306 433 224 m 210 708 q 226 652 210 673 q 281 615 242 631 l 281 793 q 210 708 210 782 z "},"%":{"ha":1054,"x_min":43,"x_max":1011,"o":"m 187 694 q 199 557 187 600 q 240 514 212 514 q 281 557 269 514 q 294 694 294 600 q 281 832 294 789 q 240 875 268 875 q 199 832 212 875 q 187 694 187 789 m 439 696 q 388 463 439 543 q 239 383 336 383 q 90 461 138 383 q 43 693 43 539 q 239 1006 43 1006 q 439 696 439 1006 m 760 298 q 772 161 760 204 q 812 118 784 118 q 854 161 841 118 q 867 298 867 204 q 853 435 867 393 q 812 478 840 478 q 772 435 785 478 q 760 298 760 393 m 1011 300 q 960 67 1011 146 q 811 -12 908 -12 q 662 65 709 -12 q 615 297 615 143 q 664 529 615 449 q 811 610 712 610 q 1011 300 1011 610 m 802 991 l 392 0 l 252 0 l 660 991 l 802 991 z "},"&":{"ha":807,"x_min":40,"x_max":794,"o":"m 591 0 l 543 69 q 314 -14 451 -14 q 112 60 184 -14 q 40 265 40 134 q 205 547 40 433 q 136 675 153 628 q 119 774 119 722 q 185 943 119 880 q 358 1006 251 1006 q 522 947 461 1006 q 583 785 583 888 q 546 649 583 713 q 421 519 509 585 l 559 325 q 595 418 583 367 q 618 521 608 470 l 775 521 q 663 183 749 331 l 794 0 l 591 0 m 222 282 q 252 183 222 219 q 334 147 282 147 q 453 197 401 147 l 290 432 q 222 282 222 371 m 416 768 q 398 832 416 812 q 355 852 380 852 q 306 830 324 852 q 288 766 288 808 q 303 697 288 729 q 343 633 319 666 q 400 695 385 665 q 416 768 416 725 z "},"'":{"ha":342,"x_min":82,"x_max":260,"o":"m 260 991 l 232 633 l 110 633 l 82 991 l 260 991 z "},"(":{"ha":452,"x_min":50,"x_max":414,"o":"m 50 380 q 103 717 50 560 q 254 991 155 873 l 414 991 q 270 704 319 861 q 221 382 221 547 q 272 58 221 214 q 412 -220 323 -98 l 254 -220 q 102 50 155 -104 q 50 380 50 203 z "},")":{"ha":452,"x_min":37,"x_max":401,"o":"m 401 380 q 349 48 401 202 q 197 -220 296 -106 l 39 -220 q 180 60 130 -95 q 231 382 231 215 q 182 704 231 547 q 37 991 133 861 l 197 991 q 349 716 297 873 q 401 380 401 559 z "},"*":{"ha":646,"x_min":36,"x_max":611,"o":"m 403 1055 l 378 847 l 589 905 l 611 753 l 418 741 l 543 574 l 408 500 l 321 676 l 241 500 l 103 574 l 227 741 l 36 755 l 61 905 l 267 847 l 241 1055 l 403 1055 z "},"+":{"ha":623,"x_min":72,"x_max":550,"o":"m 244 419 l 72 419 l 72 559 l 244 559 l 244 812 l 378 812 l 378 559 l 550 559 l 550 419 l 378 419 l 378 170 l 244 170 l 244 419 z "},",":{"ha":375,"x_min":35,"x_max":292,"o":"m 292 146 q 172 -179 256 9 l 35 -179 q 103 161 79 1 l 282 161 l 292 146 z "},"-":{"ha":439,"x_min":49,"x_max":390,"o":"m 49 293 l 49 452 l 390 452 l 390 293 l 49 293 z "},".":{"ha":375,"x_min":75,"x_max":300,"o":"m 75 93 q 103 175 75 146 q 187 204 132 204 q 271 175 243 204 q 300 93 300 146 q 270 11 300 40 q 187 -18 241 -18 q 104 11 132 -18 q 75 93 75 41 z "},"/":{"ha":562,"x_min":11,"x_max":554,"o":"m 554 991 l 184 0 l 11 0 l 380 991 l 554 991 z "},":":{"ha":375,"x_min":75,"x_max":300,"o":"m 75 93 q 103 175 75 146 q 187 204 132 204 q 271 175 243 204 q 300 93 300 146 q 270 11 300 40 q 187 -18 241 -18 q 104 11 132 -18 q 75 93 75 41 m 75 660 q 103 742 75 713 q 187 771 132 771 q 271 742 243 771 q 300 660 300 713 q 270 578 300 607 q 187 549 241 549 q 104 578 132 549 q 75 660 75 608 z "},";":{"ha":375,"x_min":35,"x_max":300,"o":"m 282 161 l 292 146 q 172 -179 256 9 l 35 -179 q 103 161 79 1 l 282 161 m 75 660 q 103 742 75 713 q 187 771 132 771 q 271 742 243 771 q 300 660 300 713 q 270 578 300 607 q 187 549 241 549 q 104 578 132 549 q 75 660 75 608 z "},"<":{"ha":623,"x_min":72,"x_max":550,"o":"m 550 142 l 72 437 l 72 543 l 550 838 l 550 685 l 220 490 l 550 294 l 550 142 z "},"=":{"ha":623,"x_min":72,"x_max":550,"o":"m 72 553 l 72 692 l 550 692 l 550 553 l 72 553 m 72 286 l 72 427 l 550 427 l 550 286 l 72 286 z "},">":{"ha":623,"x_min":72,"x_max":550,"o":"m 72 294 l 404 490 l 72 685 l 72 838 l 550 543 l 550 437 l 72 142 l 72 294 z "},"?":{"ha":530,"x_min":17,"x_max":494,"o":"m 149 319 l 149 367 q 169 480 149 432 q 241 585 189 529 q 306 671 292 640 q 319 750 319 702 q 299 822 319 794 q 235 850 279 850 q 81 798 161 850 l 17 933 q 253 1006 123 1006 q 430 944 365 1006 q 494 771 494 882 q 472 640 494 694 q 379 510 450 586 q 321 434 334 460 q 309 361 309 407 l 309 319 l 149 319 m 117 93 q 145 175 117 146 q 229 204 174 204 q 313 175 285 204 q 342 93 342 145 q 313 12 342 41 q 229 -18 283 -18 q 146 11 175 -18 q 117 93 117 40 z "},"@":{"ha":1007,"x_min":50,"x_max":957,"o":"m 957 507 q 901 249 957 342 q 745 157 845 157 q 663 183 698 157 q 616 252 627 209 l 611 252 q 552 183 588 209 q 469 157 516 157 q 339 219 386 157 q 292 410 292 282 q 358 651 292 561 q 538 742 425 742 q 711 713 618 742 l 697 397 l 697 371 q 709 294 697 315 q 746 273 721 273 q 800 337 780 273 q 819 509 819 400 q 745 787 819 694 q 533 880 670 880 q 353 821 432 880 q 232 653 275 761 q 189 410 189 545 q 272 114 189 220 q 501 8 355 8 q 749 69 622 8 l 749 -54 q 500 -114 637 -114 q 261 -52 363 -114 q 104 127 159 10 q 50 403 50 245 q 111 716 50 579 q 283 927 172 853 q 536 1002 394 1002 q 846 871 736 1002 q 957 507 957 741 m 432 410 q 447 309 432 345 q 492 273 463 273 q 542 320 526 273 q 564 463 558 366 l 572 618 q 530 625 556 625 q 459 564 486 625 q 432 410 432 503 z "},"A":{"ha":742,"x_min":0,"x_max":742,"o":"m 557 0 l 500 250 l 241 250 l 184 0 l 0 0 l 245 996 l 496 996 l 742 0 l 557 0 m 465 414 l 412 644 q 391 750 408 665 q 371 863 374 834 q 349 734 362 804 q 278 414 335 664 l 465 414 z "},"B":{"ha":704,"x_min":87,"x_max":656,"o":"m 87 991 l 340 991 q 566 931 495 991 q 636 741 636 871 q 599 596 636 654 q 497 526 562 538 l 497 519 q 618 441 581 498 q 656 288 656 383 q 584 76 656 153 q 386 0 511 0 l 87 0 l 87 991 m 261 593 l 346 593 q 428 624 404 593 q 452 717 452 655 q 425 805 452 779 q 339 832 397 832 l 261 832 l 261 593 m 261 439 l 261 161 l 354 161 q 440 197 412 161 q 468 306 468 232 q 351 439 468 439 l 261 439 z "},"C":{"ha":643,"x_min":57,"x_max":618,"o":"m 416 844 q 291 751 337 844 q 245 493 245 659 q 425 149 245 149 q 590 199 504 149 l 590 35 q 404 -14 517 -14 q 147 120 237 -14 q 57 494 57 253 q 150 871 57 736 q 407 1006 242 1006 q 511 991 461 1006 q 618 939 561 976 l 557 789 q 492 827 526 810 q 416 844 457 844 z "},"D":{"ha":775,"x_min":87,"x_max":718,"o":"m 718 505 q 618 130 718 260 q 330 0 518 0 l 87 0 l 87 991 l 353 991 q 622 864 526 991 q 718 505 718 736 m 529 500 q 346 832 529 832 l 272 832 l 272 161 l 332 161 q 481 246 433 161 q 529 500 529 330 z "},"E":{"ha":591,"x_min":87,"x_max":534,"o":"m 534 0 l 87 0 l 87 991 l 534 991 l 534 832 l 272 832 l 272 596 l 515 596 l 515 436 l 272 436 l 272 161 l 534 161 l 534 0 z "},"F":{"ha":568,"x_min":87,"x_max":532,"o":"m 271 0 l 87 0 l 87 991 l 532 991 l 532 832 l 271 832 l 271 557 l 514 557 l 514 397 l 271 397 l 271 0 z "},"G":{"ha":754,"x_min":57,"x_max":690,"o":"m 387 550 l 690 550 l 690 41 q 416 -14 562 -14 q 150 118 243 -14 q 57 497 57 250 q 164 871 57 736 q 463 1006 271 1006 q 689 945 581 1006 l 631 794 q 473 843 547 843 q 307 749 368 843 q 245 493 245 655 q 290 237 245 326 q 419 149 334 149 q 510 160 464 149 l 510 387 l 387 387 l 387 550 z "},"H":{"ha":787,"x_min":87,"x_max":700,"o":"m 700 0 l 515 0 l 515 435 l 272 435 l 272 0 l 87 0 l 87 991 l 272 991 l 272 597 l 515 597 l 515 991 l 700 991 l 700 0 z "},"J":{"ha":359,"x_min":-104,"x_max":272,"o":"m 9 -286 q -104 -269 -62 -286 l -104 -109 q -21 -122 -60 -122 q 61 -86 35 -122 q 87 21 87 -50 l 87 991 l 272 991 l 272 31 q 239 -139 272 -67 q 146 -249 206 -211 q 9 -286 86 -286 z "},"K":{"ha":705,"x_min":87,"x_max":705,"o":"m 705 0 l 509 0 l 346 424 l 272 350 l 272 0 l 87 0 l 87 991 l 272 991 l 272 500 l 336 648 l 505 991 l 703 991 l 473 562 l 705 0 z "},"L":{"ha":558,"x_min":87,"x_max":528,"o":"m 87 0 l 87 991 l 272 991 l 272 161 l 528 161 l 528 0 l 87 0 z "},"M":{"ha":1089,"x_min":87,"x_max":1002,"o":"m 441 0 l 253 844 l 245 844 q 258 665 258 747 l 258 0 l 87 0 l 87 991 l 371 991 l 541 212 l 546 212 l 714 991 l 1002 991 l 1002 0 l 827 0 l 827 672 q 836 843 827 755 l 831 843 l 643 0 l 441 0 z "},"N":{"ha":869,"x_min":87,"x_max":782,"o":"m 782 0 l 557 0 l 250 718 l 241 718 q 258 542 258 636 l 258 0 l 87 0 l 87 991 l 314 991 l 618 281 l 625 281 q 612 450 612 352 l 612 991 l 782 991 l 782 0 z "},"O":{"ha":827,"x_min":57,"x_max":770,"o":"m 770 497 q 677 119 770 251 q 414 -14 585 -14 q 149 118 241 -14 q 57 498 57 250 q 149 876 57 745 q 415 1007 241 1007 q 678 875 587 1007 q 770 497 770 743 m 245 497 q 288 239 245 328 q 414 150 331 150 q 581 497 581 150 q 415 844 581 844 q 288 756 331 844 q 245 497 245 667 z "},"P":{"ha":665,"x_min":87,"x_max":628,"o":"m 628 686 q 548 444 628 528 q 318 359 469 359 l 272 359 l 272 0 l 87 0 l 87 991 l 339 991 q 628 686 628 991 m 272 519 l 307 519 q 408 557 375 519 q 441 679 441 594 q 411 794 441 757 q 317 832 380 832 l 272 832 l 272 519 z "},"Q":{"ha":827,"x_min":57,"x_max":774,"o":"m 770 497 q 725 210 770 327 q 591 35 680 92 l 774 -236 l 561 -236 l 424 -14 l 414 -14 q 149 118 241 -14 q 57 498 57 250 q 149 876 57 745 q 415 1007 241 1007 q 678 875 587 1007 q 770 497 770 743 m 245 497 q 288 239 245 328 q 414 150 331 150 q 581 497 581 150 q 415 844 581 844 q 288 756 331 844 q 245 497 245 667 z "},"R":{"ha":694,"x_min":87,"x_max":692,"o":"m 272 386 l 272 0 l 87 0 l 87 991 l 329 991 q 555 919 482 991 q 628 697 628 846 q 501 435 628 509 l 692 0 l 494 0 l 338 386 l 272 386 m 272 545 l 319 545 q 413 582 385 545 q 441 692 441 618 q 411 800 441 768 q 318 832 381 832 l 272 832 l 272 545 z "},"S":{"ha":574,"x_min":46,"x_max":539,"o":"m 539 273 q 469 60 539 134 q 267 -14 399 -14 q 46 37 137 -14 l 46 220 q 250 147 157 147 q 330 176 303 147 q 357 256 357 205 q 325 346 357 305 q 220 437 293 387 q 123 522 156 481 q 72 612 90 562 q 54 729 54 663 q 125 931 54 857 q 315 1006 196 1006 q 534 942 429 1006 l 473 794 q 405 828 441 813 q 329 843 370 843 q 260 813 284 843 q 236 733 236 784 q 265 646 236 683 q 366 561 294 608 q 501 428 463 496 q 539 273 539 360 z "},"T":{"ha":600,"x_min":18,"x_max":582,"o":"m 392 0 l 208 0 l 208 829 l 18 829 l 18 991 l 582 991 l 582 829 l 392 829 l 392 0 z "},"U":{"ha":781,"x_min":83,"x_max":697,"o":"m 697 991 l 697 350 q 617 80 697 173 q 386 -14 537 -14 q 161 79 238 -14 q 83 353 83 172 l 83 991 l 267 991 l 267 339 q 392 150 267 150 q 482 198 450 150 q 514 335 514 246 l 514 991 l 697 991 z "},"V":{"ha":700,"x_min":0,"x_max":700,"o":"m 514 991 l 700 991 l 467 0 l 232 0 l 0 991 l 186 991 l 315 386 q 350 164 333 309 q 386 386 364 287 l 514 991 z "},"W":{"ha":1100,"x_min":12,"x_max":1088,"o":"m 909 0 l 679 0 l 582 519 q 550 771 559 626 l 545 721 l 517 517 l 422 0 l 192 0 l 12 991 l 193 991 l 282 432 q 317 168 295 348 q 349 428 334 350 l 454 991 l 646 991 l 751 428 q 785 167 772 302 q 819 432 808 368 l 905 991 l 1088 991 l 909 0 z "},"X":{"ha":657,"x_min":0,"x_max":657,"o":"m 657 0 l 465 0 l 323 355 l 192 0 l 0 0 l 227 515 l 17 991 l 203 991 l 334 665 l 447 991 l 640 991 l 431 507 l 657 0 z "},"Y":{"ha":652,"x_min":0,"x_max":652,"o":"m 326 600 l 458 991 l 652 991 l 416 397 l 416 0 l 235 0 l 235 390 l 0 991 l 195 991 l 326 600 z "},"Z":{"ha":595,"x_min":29,"x_max":566,"o":"m 566 0 l 29 0 l 29 129 l 346 831 l 39 831 l 39 991 l 555 991 l 555 863 l 239 161 l 566 161 l 566 0 z "},"[":{"ha":440,"x_min":90,"x_max":408,"o":"m 408 -220 l 90 -220 l 90 991 l 408 991 l 408 857 l 257 857 l 257 -85 l 408 -85 l 408 -220 z "},"\\":{"ha":562,"x_min":9,"x_max":554,"o":"m 184 991 l 554 0 l 379 0 l 9 991 l 184 991 z "},"]":{"ha":440,"x_min":32,"x_max":350,"o":"m 32 -85 l 183 -85 l 183 857 l 32 857 l 32 991 l 350 991 l 350 -220 l 32 -220 l 32 -85 z "},"^":{"ha":739,"x_min":9,"x_max":732,"o":"m 9 357 l 306 997 l 397 997 l 732 357 l 579 357 l 355 804 l 160 357 l 9 357 z "},"_":{"ha":472,"x_min":-3,"x_max":475,"o":"m 475 -220 l -3 -220 l -3 -125 l 475 -125 l 475 -220 z "},"`":{"ha":755,"x_min":211,"x_max":543,"o":"m 416 842 q 297 950 366 882 q 211 1050 229 1019 l 211 1064 l 427 1064 q 481 959 445 1023 q 543 860 517 894 l 543 842 l 416 842 z "},"a":{"ha":648,"x_min":37,"x_max":579,"o":"m 447 0 l 411 103 l 407 103 q 324 12 367 37 q 216 -14 281 -14 q 85 49 133 -14 q 37 222 37 111 q 103 400 37 342 q 298 464 168 458 l 399 468 l 399 522 q 307 628 399 628 q 151 575 239 628 l 89 700 q 334 771 201 771 q 516 702 454 771 q 579 507 579 633 l 579 0 l 447 0 m 290 127 q 369 172 340 127 q 399 290 399 216 l 399 354 l 343 351 q 253 316 281 348 q 224 221 224 284 q 290 127 224 127 z "},"b":{"ha":689,"x_min":77,"x_max":639,"o":"m 418 770 q 580 667 521 770 q 639 379 639 565 q 579 89 639 191 q 415 -14 520 -14 q 325 8 364 -14 q 252 86 286 31 l 240 86 l 210 0 l 77 0 l 77 1055 l 257 1055 l 257 808 q 256 776 257 793 q 248 657 256 759 l 257 657 q 329 745 290 720 q 418 770 368 770 m 355 616 q 281 568 304 616 q 257 399 258 520 l 257 380 q 280 195 257 249 q 357 142 304 142 q 454 382 454 142 q 355 616 454 616 z "},"c":{"ha":515,"x_min":50,"x_max":494,"o":"m 326 -14 q 121 85 191 -14 q 50 374 50 183 q 117 671 50 573 q 323 770 184 770 q 412 758 366 770 q 494 722 458 745 l 443 582 q 343 615 387 615 q 260 555 286 615 q 235 375 235 495 q 260 200 235 258 q 342 142 285 142 q 484 189 410 142 l 484 31 q 326 -14 412 -14 z "},"d":{"ha":689,"x_min":50,"x_max":614,"o":"m 275 -14 q 111 90 171 -14 q 50 376 50 193 q 109 665 50 561 q 272 770 168 770 q 361 744 323 770 q 431 659 399 719 l 441 659 q 433 803 433 762 l 433 1055 l 614 1055 l 614 0 l 479 0 l 449 98 l 443 98 q 275 -14 385 -14 m 334 139 q 407 185 384 139 q 432 351 430 231 l 432 375 q 409 560 432 507 q 332 614 385 614 q 259 552 281 614 q 236 374 236 491 q 259 198 236 256 q 334 139 282 139 z "},"e":{"ha":639,"x_min":50,"x_max":596,"o":"m 355 -14 q 132 87 214 -14 q 50 372 50 188 q 124 665 50 559 q 330 770 198 770 q 525 680 454 770 q 596 428 596 590 l 596 332 l 233 332 q 275 181 235 231 q 383 132 314 132 q 564 187 471 132 l 564 39 q 355 -14 477 -14 m 329 631 q 265 590 290 631 q 236 463 240 549 l 419 463 q 394 588 418 545 q 329 631 370 631 z "},"f":{"ha":415,"x_min":20,"x_max":464,"o":"m 412 612 l 288 612 l 288 0 l 107 0 l 107 612 l 20 612 l 20 703 l 107 757 l 107 814 q 159 1001 107 940 q 328 1063 212 1063 q 464 1032 401 1063 l 416 895 q 347 911 382 911 q 302 886 316 911 q 288 811 288 862 l 288 755 l 412 755 l 412 612 z "},"g":{"ha":635,"x_min":12,"x_max":621,"o":"m 621 754 l 621 648 l 530 628 q 557 509 557 581 q 492 321 557 389 q 310 253 427 253 q 260 258 276 253 q 235 233 247 247 q 224 197 224 218 q 306 150 224 150 l 415 150 q 563 98 511 150 q 615 -58 615 46 q 527 -262 615 -190 q 273 -334 439 -334 q 80 -279 148 -334 q 12 -123 12 -224 q 51 -13 12 -60 q 158 57 90 35 q 101 99 123 71 q 79 165 79 127 q 86 207 79 189 q 105 242 93 226 q 157 292 118 259 q 83 379 110 320 q 56 510 56 438 q 121 702 56 634 q 307 770 186 770 q 360 765 330 770 q 406 754 390 760 l 621 754 m 176 -110 q 204 -179 176 -155 q 285 -203 233 -203 q 408 -172 367 -203 q 449 -86 449 -140 q 427 -26 449 -43 q 345 -8 405 -8 l 257 -8 q 198 -36 220 -8 q 176 -110 176 -63 m 232 509 q 307 375 232 375 q 380 510 380 375 q 307 648 380 648 q 232 509 232 648 z "},"h":{"ha":704,"x_min":77,"x_max":635,"o":"m 453 0 l 453 450 q 370 616 453 616 q 282 551 307 616 q 257 363 257 486 l 257 0 l 77 0 l 77 1055 l 257 1055 l 257 821 q 249 659 257 775 l 258 659 q 425 770 313 770 q 582 700 529 770 q 635 493 635 629 l 635 0 l 453 0 z "},"i":{"ha":336,"x_min":71,"x_max":267,"o":"m 258 0 l 78 0 l 78 755 l 258 755 l 258 0 m 71 953 q 97 1024 71 998 q 170 1050 123 1050 q 240 1024 214 1050 q 267 953 267 998 q 239 881 267 907 q 170 856 212 856 q 98 881 125 856 q 71 953 71 907 z "},"j":{"ha":339,"x_min":-40,"x_max":271,"o":"m 54 -334 q -40 -317 -3 -334 l -40 -167 q 18 -179 -9 -179 q 82 -64 82 -179 l 82 755 l 262 755 l 262 -87 q 208 -270 262 -205 q 54 -334 153 -334 m 75 953 q 101 1024 75 998 q 174 1050 127 1050 q 245 1023 219 1050 q 271 953 271 997 q 244 882 271 907 q 174 856 218 856 q 102 881 130 856 q 75 953 75 906 z "},"k":{"ha":654,"x_min":77,"x_max":653,"o":"m 254 407 l 300 497 l 449 755 l 640 755 l 449 446 l 653 0 l 464 0 l 328 319 l 257 256 l 257 0 l 77 0 l 77 1055 l 257 1055 l 257 558 l 249 407 l 254 407 z "},"l":{"ha":332,"x_min":77,"x_max":257,"o":"m 257 0 l 77 0 l 77 1055 l 257 1055 l 257 0 z "},"m":{"ha":1078,"x_min":77,"x_max":1008,"o":"m 827 0 l 827 450 q 745 616 827 616 q 659 557 685 616 q 633 367 633 498 l 633 0 l 452 0 l 452 450 q 368 616 452 616 q 283 557 310 616 q 257 363 257 498 l 257 0 l 77 0 l 77 755 l 220 755 l 241 659 l 253 659 q 327 743 280 716 q 428 770 374 770 q 612 639 566 770 l 619 639 q 804 770 677 770 q 957 699 905 770 q 1008 493 1008 629 l 1008 0 l 827 0 z "},"n":{"ha":704,"x_min":77,"x_max":635,"o":"m 453 0 l 453 450 q 433 574 453 532 q 370 616 414 616 q 284 558 311 616 q 257 363 257 500 l 257 0 l 77 0 l 77 755 l 220 755 l 241 659 l 253 659 q 323 740 277 711 q 429 770 368 770 q 584 699 532 770 q 635 493 635 629 l 635 0 l 453 0 z "},"o":{"ha":686,"x_min":50,"x_max":636,"o":"m 636 379 q 557 90 636 193 q 342 -14 479 -14 q 189 34 255 -14 q 86 171 122 81 q 50 379 50 260 q 128 666 50 563 q 345 770 206 770 q 557 664 478 770 q 636 379 636 559 m 235 379 q 260 201 235 261 q 343 140 286 140 q 452 379 452 140 q 426 556 452 498 q 343 615 399 615 q 260 556 286 615 q 235 379 235 498 z "},"p":{"ha":689,"x_min":77,"x_max":639,"o":"m 414 -14 q 327 8 365 -14 q 257 86 290 31 l 248 86 q 258 -25 258 -6 l 258 -334 l 77 -334 l 77 755 l 216 755 l 248 657 l 256 657 q 419 770 312 770 q 581 668 522 770 q 639 379 639 566 q 578 91 639 195 q 414 -14 518 -14 m 358 616 q 282 567 305 616 q 257 404 258 518 l 257 380 q 281 199 257 256 q 359 142 304 142 q 454 382 454 142 q 431 558 454 500 q 358 616 408 616 z "},"q":{"ha":689,"x_min":50,"x_max":614,"o":"m 275 -14 q 110 90 170 -14 q 50 376 50 193 q 109 666 50 562 q 271 770 168 770 q 362 744 323 770 q 432 659 401 718 l 441 659 l 461 755 l 614 755 l 614 -334 l 433 -334 l 433 -16 q 441 98 433 9 l 435 98 q 367 13 406 40 q 275 -14 328 -14 m 330 138 q 407 187 384 138 q 432 350 431 236 l 432 375 q 408 557 432 500 q 330 614 385 614 q 236 374 236 614 q 259 196 236 254 q 330 138 281 138 z "},"r":{"ha":468,"x_min":77,"x_max":464,"o":"m 399 770 q 464 760 432 770 l 443 585 q 393 591 424 591 q 292 539 328 591 q 257 389 257 488 l 257 0 l 77 0 l 77 755 l 225 755 l 245 637 l 252 637 q 317 739 281 709 q 399 770 352 770 z "},"s":{"ha":519,"x_min":41,"x_max":482,"o":"m 482 221 q 417 48 482 111 q 227 -14 353 -14 q 41 31 115 -14 l 41 187 q 129 144 79 161 q 216 127 178 127 q 280 148 258 127 q 302 203 302 169 q 279 263 302 237 q 195 326 256 289 q 77 430 113 375 q 41 561 41 486 q 107 713 41 657 q 289 770 174 770 q 478 717 389 770 l 419 587 q 292 627 347 627 q 240 608 257 627 q 222 564 222 590 q 244 509 222 533 q 323 450 265 486 q 422 378 394 408 q 467 310 451 348 q 482 221 482 272 z "},"t":{"ha":450,"x_min":22,"x_max":421,"o":"m 339 139 q 421 158 377 139 l 421 17 q 289 -14 377 -14 q 143 45 191 -14 q 96 221 96 104 l 96 612 l 22 612 l 22 693 l 117 758 l 163 918 l 278 918 l 278 755 l 415 755 l 415 612 l 278 612 l 278 215 q 339 139 278 139 z "},"u":{"ha":704,"x_min":69,"x_max":629,"o":"m 485 0 l 463 97 l 453 97 q 381 16 428 45 q 275 -14 335 -14 q 121 56 174 -14 q 69 262 69 125 l 69 755 l 252 755 l 252 306 q 271 181 252 223 q 335 139 291 139 q 420 197 393 139 q 447 393 447 256 l 447 755 l 629 755 l 629 0 l 485 0 z "},"v":{"ha":619,"x_min":0,"x_max":619,"o":"m 197 0 l 0 755 l 187 755 l 283 318 q 298 229 290 288 q 309 144 307 170 l 311 144 q 317 203 312 165 q 328 273 322 241 q 432 755 333 304 l 619 755 l 421 0 l 197 0 z "},"w":{"ha":1003,"x_min":14,"x_max":989,"o":"m 603 0 l 528 439 l 501 624 l 498 624 q 482 493 488 534 q 396 0 476 453 l 164 0 l 14 755 l 195 755 l 264 339 q 286 136 276 270 l 290 136 q 300 246 292 172 q 311 340 308 319 l 386 755 l 618 755 l 692 339 q 714 136 705 273 l 717 136 q 741 339 726 258 l 812 755 l 989 755 l 838 0 l 603 0 z "},"x":{"ha":603,"x_min":9,"x_max":593,"o":"m 207 386 l 18 755 l 205 755 l 306 525 l 399 755 l 585 755 l 395 386 l 593 0 l 404 0 l 297 241 l 197 0 l 9 0 l 207 386 z "},"y":{"ha":619,"x_min":0,"x_max":619,"o":"m 0 755 l 187 755 l 292 329 q 317 170 307 272 l 321 170 q 327 228 321 186 q 336 293 332 269 q 429 755 339 317 l 619 755 l 403 -54 q 298 -269 363 -203 q 125 -334 233 -334 q 29 -322 71 -334 l 29 -171 q 92 -179 57 -179 q 211 -60 182 -179 l 224 -12 l 0 755 z "},"z":{"ha":496,"x_min":28,"x_max":468,"o":"m 468 0 l 28 0 l 28 115 l 260 610 l 43 610 l 43 755 l 458 755 l 458 628 l 233 146 l 468 146 l 468 0 z "},"{":{"ha":500,"x_min":17,"x_max":478,"o":"m 192 187 q 146 282 192 254 q 17 310 101 310 l 17 461 q 146 488 101 461 q 192 578 192 515 l 192 583 l 192 800 q 220 914 192 873 q 310 973 248 954 q 478 991 372 991 l 478 848 q 385 823 410 846 q 359 750 359 800 l 359 545 q 203 390 357 413 l 203 382 q 359 236 359 359 l 359 228 l 359 22 q 384 -51 359 -27 q 478 -77 409 -75 l 478 -220 q 310 -201 371 -220 q 220 -142 248 -182 q 192 -28 192 -101 l 192 187 z "},"|":{"ha":704,"x_min":282,"x_max":422,"o":"m 282 1053 l 422 1053 l 422 -319 l 282 -319 l 282 1053 z "},"}":{"ha":500,"x_min":22,"x_max":484,"o":"m 310 -28 q 245 -177 310 -134 q 22 -220 180 -220 l 22 -77 q 117 -51 92 -75 q 142 22 142 -28 l 142 228 l 142 234 q 182 333 142 296 q 300 382 222 370 l 300 390 q 142 545 144 413 l 142 750 q 117 823 142 800 q 22 848 92 846 l 22 991 q 245 948 181 991 q 310 800 310 905 l 310 583 l 310 578 q 354 488 310 515 q 484 461 399 461 l 484 310 q 354 282 399 310 q 310 187 310 254 l 310 -28 z "},"~":{"ha":623,"x_min":50,"x_max":572,"o":"m 179 460 q 50 378 119 460 l 50 526 q 191 600 111 600 q 245 593 220 600 q 329 557 271 586 q 396 527 374 534 q 446 519 418 519 q 572 602 505 519 l 572 453 q 432 379 517 379 q 365 390 397 379 q 292 422 332 401 q 218 455 236 450 q 179 460 201 460 z "}," ":{"ha":361,"x_min":0,"x_max":0,"o":""},"¡":{"ha":376,"x_min":75,"x_max":300,"o":"m 111 421 l 261 421 l 296 -250 l 77 -250 l 111 421 m 300 647 q 271 565 300 593 q 186 536 241 536 q 104 565 133 536 q 75 647 75 593 q 105 729 75 700 q 186 758 134 758 q 271 729 241 758 q 300 647 300 699 z "},"¢":{"ha":643,"x_min":100,"x_max":546,"o":"m 533 158 q 415 117 481 124 l 415 -14 l 302 -14 l 302 122 q 100 500 100 176 q 150 768 100 671 q 302 889 199 865 l 302 1003 l 415 1003 l 415 895 q 546 850 487 884 l 493 708 q 393 742 435 742 q 310 683 336 742 q 285 501 285 623 q 310 327 285 385 q 392 268 335 268 q 533 317 460 268 l 533 158 z "},"£":{"ha":643,"x_min":52,"x_max":612,"o":"m 406 1006 q 597 957 512 1006 l 541 814 q 416 850 478 850 q 339 724 339 850 l 339 579 l 503 579 l 503 441 l 339 441 l 339 351 q 318 244 339 290 q 250 164 298 198 l 612 164 l 612 0 l 52 0 l 52 155 q 136 229 114 189 q 158 335 158 269 l 158 441 l 53 441 l 53 579 l 158 579 l 158 728 q 221 934 158 863 q 406 1006 285 1006 z "},"¤":{"ha":754,"x_min":61,"x_max":693,"o":"m 110 490 q 149 627 110 559 l 61 713 l 154 806 l 240 720 q 376 757 303 757 q 511 718 449 757 l 599 806 l 693 715 l 606 628 q 643 490 643 565 q 606 353 643 413 l 690 268 l 599 176 l 511 261 q 376 225 448 225 q 239 261 295 225 l 154 178 l 62 269 l 149 354 q 110 490 110 416 m 241 490 q 281 395 241 434 q 376 355 320 355 q 474 395 434 355 q 514 490 514 435 q 474 587 514 547 q 376 627 434 627 q 281 587 320 627 q 241 490 241 548 z "},"¥":{"ha":643,"x_min":4,"x_max":639,"o":"m 322 572 l 447 991 l 639 991 l 452 482 l 578 482 l 578 367 l 412 367 l 412 271 l 578 271 l 578 155 l 412 155 l 412 0 l 232 0 l 232 155 l 65 155 l 65 271 l 232 271 l 232 367 l 65 367 l 65 482 l 192 482 l 4 991 l 196 991 l 322 572 z "},"¦":{"ha":704,"x_min":282,"x_max":422,"o":"m 282 1053 l 422 1053 l 422 504 l 282 504 l 282 1053 m 282 229 l 422 229 l 422 -319 l 282 -319 l 282 229 z "},"§":{"ha":591,"x_min":56,"x_max":528,"o":"m 64 526 q 87 623 64 580 q 151 693 111 666 q 90 765 111 720 q 68 861 68 810 q 131 1004 68 951 q 302 1057 193 1057 q 421 1043 368 1057 q 524 1010 475 1029 l 479 885 q 393 918 437 903 q 301 933 350 933 q 243 914 262 933 q 224 864 224 895 q 245 816 224 839 q 315 765 266 793 l 372 732 q 492 631 457 684 q 528 510 528 578 q 443 334 528 397 q 501 273 481 306 q 521 191 521 239 q 457 33 521 90 q 273 -24 393 -24 q 146 -14 197 -24 q 56 16 96 -4 l 56 146 q 256 97 159 97 q 337 116 311 97 q 364 178 364 135 q 343 223 364 201 q 273 273 321 245 q 139 361 176 327 q 83 436 102 395 q 64 526 64 476 m 208 541 q 230 477 208 503 q 307 418 252 451 l 349 393 q 378 486 378 435 q 345 567 378 529 q 253 633 311 604 q 222 598 235 623 q 208 541 208 574 z "},"¨":{"ha":766,"x_min":158,"x_max":608,"o":"m 158 951 q 182 1016 158 993 q 248 1039 205 1039 q 314 1015 290 1039 q 338 951 338 991 q 314 889 338 913 q 248 865 290 865 q 182 888 205 865 q 158 951 158 911 m 428 951 q 452 1016 428 992 q 518 1039 475 1039 q 584 1016 559 1039 q 608 951 608 993 q 584 888 608 911 q 518 865 560 865 q 452 889 476 865 q 428 951 428 912 z "},"©":{"ha":1145,"x_min":62,"x_max":1082,"o":"m 602 690 q 495 639 532 690 q 457 496 457 588 q 491 350 457 401 q 602 300 524 300 q 686 311 640 300 q 764 339 732 322 l 764 216 q 597 179 685 179 q 386 263 461 179 q 310 497 310 347 q 385 728 310 646 q 593 811 459 811 q 793 761 689 811 l 745 652 q 602 690 669 690 m 62 496 q 130 750 62 631 q 317 937 198 869 q 572 1006 435 1006 q 823 940 706 1006 q 1011 755 941 874 q 1082 496 1082 637 q 1014 240 1082 357 q 828 55 945 123 q 572 -14 711 -14 q 313 57 432 -14 q 129 244 195 127 q 62 496 62 361 m 154 496 q 210 287 154 384 q 363 134 267 189 q 572 78 460 78 q 782 134 685 78 q 935 286 879 189 q 990 496 990 383 q 935 705 990 608 q 782 858 879 802 q 572 914 685 914 q 363 858 460 914 q 210 705 266 802 q 154 496 154 608 z "},"ª":{"ha":463,"x_min":39,"x_max":397,"o":"m 318 522 l 300 593 q 245 535 278 555 q 171 514 212 514 q 75 550 111 514 q 39 663 39 586 q 84 772 39 736 q 228 814 129 808 l 283 817 l 283 822 q 214 903 283 903 q 103 864 167 903 l 65 950 q 239 1003 152 1003 q 357 957 317 1003 q 397 825 397 910 l 397 522 l 318 522 m 155 664 q 199 611 155 611 q 260 638 237 611 q 283 714 283 665 l 283 741 l 235 736 q 175 715 195 732 q 155 664 155 699 z "},"«":{"ha":774,"x_min":50,"x_max":724,"o":"m 50 386 l 258 689 l 393 614 l 244 378 l 393 142 l 258 66 l 50 368 l 50 386 m 380 386 l 589 689 l 724 614 l 575 378 l 724 142 l 589 66 l 380 368 l 380 386 z "},"¬":{"ha":623,"x_min":72,"x_max":550,"o":"m 550 170 l 418 170 l 418 419 l 72 419 l 72 559 l 550 559 l 550 170 z "},"­":{"ha":439,"x_min":49,"x_max":390,"o":"m 49 293 l 49 452 l 390 452 l 390 293 l 49 293 z "},"®":{"ha":1145,"x_min":62,"x_max":1082,"o":"m 778 615 q 677 457 778 500 l 690 437 l 839 186 l 677 186 l 553 418 l 514 418 l 514 186 l 368 186 l 368 804 l 543 804 q 722 758 665 804 q 778 615 778 712 m 514 526 l 541 526 q 610 546 589 526 q 631 612 631 566 q 608 677 631 660 q 539 694 586 694 l 514 694 l 514 526 m 62 496 q 130 750 62 631 q 317 937 198 869 q 572 1006 435 1006 q 823 940 706 1006 q 1011 755 941 874 q 1082 496 1082 637 q 1014 240 1082 357 q 828 55 945 123 q 572 -14 711 -14 q 313 57 432 -14 q 129 244 195 127 q 62 496 62 361 m 154 496 q 210 287 154 384 q 363 134 267 189 q 572 78 460 78 q 782 134 685 78 q 935 286 879 189 q 990 496 990 383 q 935 705 990 608 q 782 858 879 802 q 572 914 685 914 q 363 858 460 914 q 210 705 266 802 q 154 496 154 608 z "},"¯":{"ha":694,"x_min":-4,"x_max":699,"o":"m 699 1055 l -4 1055 l -4 1183 l 699 1183 l 699 1055 z "},"°":{"ha":564,"x_min":52,"x_max":513,"o":"m 52 775 q 119 938 52 869 q 282 1006 186 1006 q 445 938 376 1006 q 513 775 513 870 q 446 613 513 680 q 282 546 378 546 q 118 613 185 546 q 52 775 52 680 m 171 775 q 204 697 171 730 q 282 665 237 665 q 359 697 327 665 q 392 775 392 730 q 360 854 392 821 q 282 886 328 886 q 204 853 237 886 q 171 775 171 820 z "},"±":{"ha":623,"x_min":72,"x_max":550,"o":"m 244 419 l 72 419 l 72 559 l 244 559 l 244 812 l 378 812 l 378 559 l 550 559 l 550 419 l 378 419 l 378 170 l 244 170 l 244 419 m 72 0 l 72 140 l 550 140 l 550 0 l 72 0 z "},"²":{"ha":467,"x_min":33,"x_max":422,"o":"m 422 397 l 36 397 l 36 504 l 171 654 q 254 759 235 727 q 272 825 272 790 q 256 869 272 854 q 214 885 240 885 q 103 825 163 885 l 33 920 q 229 1006 119 1006 q 359 960 312 1006 q 406 836 406 915 q 379 732 406 781 q 271 596 353 682 l 201 524 l 422 524 l 422 397 z "},"³":{"ha":467,"x_min":39,"x_max":416,"o":"m 399 848 q 298 713 399 747 l 298 705 q 388 652 359 691 q 416 564 416 613 q 363 434 416 481 q 208 386 311 386 q 43 424 102 386 l 43 543 q 199 494 115 494 q 290 574 290 494 q 186 650 290 650 l 119 650 l 119 751 l 176 751 q 251 770 226 751 q 277 831 277 789 q 260 877 277 860 q 212 895 244 895 q 156 882 182 895 q 97 842 130 869 l 39 932 q 132 988 87 972 q 227 1004 176 1004 q 350 962 302 1004 q 399 848 399 920 z "},"´":{"ha":755,"x_min":211,"x_max":543,"o":"m 211 842 l 211 860 q 275 962 239 896 q 328 1064 312 1029 l 543 1064 l 543 1050 q 463 956 527 1021 q 338 842 398 891 l 211 842 z "},"µ":{"ha":704,"x_min":69,"x_max":629,"o":"m 252 281 q 272 171 252 203 q 335 139 292 139 q 420 197 393 139 q 447 393 447 256 l 447 755 l 629 755 l 629 0 l 485 0 l 463 97 l 452 97 q 317 -14 409 -14 q 245 14 277 -14 q 252 -171 252 -75 l 252 -334 l 69 -334 l 69 755 l 252 755 l 252 281 z "},"¶":{"ha":734,"x_min":43,"x_max":643,"o":"m 643 -176 l 539 -176 l 539 925 l 429 925 l 429 -176 l 325 -176 l 325 379 q 253 367 294 367 q 94 452 144 367 q 43 707 43 536 q 97 968 43 881 q 271 1055 152 1055 l 643 1055 l 643 -176 z "},"·":{"ha":375,"x_min":75,"x_max":300,"o":"m 75 490 q 103 572 75 543 q 187 602 132 602 q 271 573 243 602 q 300 490 300 544 q 270 408 300 437 q 187 379 241 379 q 104 409 132 379 q 75 490 75 438 z "},"¸":{"ha":282,"x_min":-17,"x_max":269,"o":"m 269 -176 q 221 -291 269 -249 q 72 -334 173 -334 q -17 -319 22 -334 l -17 -215 q 65 -227 24 -227 q 125 -182 125 -227 q 18 -107 125 -125 l 72 0 l 189 0 l 164 -52 q 240 -94 210 -63 q 269 -176 269 -125 z "},"¹":{"ha":467,"x_min":45,"x_max":339,"o":"m 339 397 l 205 397 l 205 710 l 208 786 l 211 851 q 196 835 206 844 q 107 758 186 825 l 45 838 l 229 991 l 339 991 l 339 397 z "},"º":{"ha":465,"x_min":41,"x_max":424,"o":"m 424 760 q 372 579 424 644 q 232 514 321 514 q 93 581 144 514 q 41 760 41 648 q 92 939 41 875 q 233 1003 143 1003 q 372 938 320 1003 q 424 760 424 872 m 158 760 q 176 653 158 688 q 233 618 195 618 q 290 653 272 618 q 307 760 307 688 q 290 865 307 831 q 233 899 272 899 q 176 865 195 899 q 158 760 158 831 z "},"»":{"ha":774,"x_min":50,"x_max":724,"o":"m 724 368 l 515 66 l 380 142 l 529 378 l 380 614 l 515 689 l 724 386 l 724 368 m 393 368 l 184 66 l 50 142 l 199 378 l 50 614 l 184 689 l 393 386 l 393 368 z "},"¼":{"ha":1083,"x_min":40,"x_max":1004,"o":"m 1004 109 l 929 109 l 929 1 l 796 1 l 796 109 l 562 109 l 562 208 l 798 599 l 929 599 l 929 217 l 1004 217 l 1004 109 m 796 217 l 796 332 l 799 459 q 775 402 791 437 q 751 353 760 368 l 669 217 l 796 217 m 334 397 l 201 397 l 201 710 l 203 786 l 206 851 q 191 835 201 844 q 102 758 181 825 l 40 838 l 224 991 l 334 991 l 334 397 m 829 991 l 325 0 l 187 0 l 690 991 l 829 991 z "},"½":{"ha":1083,"x_min":40,"x_max":1029,"o":"m 1029 1 l 643 1 l 643 107 l 778 258 q 861 362 842 330 q 879 429 879 393 q 863 473 879 457 q 821 488 847 488 q 710 429 770 488 l 640 523 q 836 609 726 609 q 966 564 919 609 q 1013 439 1013 518 q 986 335 1013 385 q 878 199 960 286 l 808 127 l 1029 127 l 1029 1 m 334 397 l 201 397 l 201 710 l 203 786 l 206 851 q 191 835 201 844 q 102 758 181 825 l 40 838 l 224 991 l 334 991 l 334 397 m 829 991 l 325 0 l 187 0 l 690 991 l 829 991 z "},"¾":{"ha":1083,"x_min":41,"x_max":1008,"o":"m 1008 109 l 933 109 l 933 1 l 800 1 l 800 109 l 566 109 l 566 208 l 802 599 l 933 599 l 933 217 l 1008 217 l 1008 109 m 800 217 l 800 332 l 803 459 q 780 402 795 437 q 755 353 764 368 l 673 217 l 800 217 m 401 848 q 301 713 401 747 l 301 705 q 390 652 361 691 q 419 564 419 613 q 366 434 419 481 q 211 386 313 386 q 45 424 105 386 l 45 543 q 201 494 117 494 q 293 574 293 494 q 189 650 293 650 l 122 650 l 122 751 l 179 751 q 254 770 229 751 q 279 831 279 789 q 263 877 279 860 q 215 895 247 895 q 159 882 185 895 q 100 842 133 869 l 41 932 q 134 988 90 972 q 229 1004 179 1004 q 353 962 304 1004 q 401 848 401 920 m 852 991 l 349 0 l 211 0 l 714 991 l 852 991 z "},"¿":{"ha":530,"x_min":36,"x_max":514,"o":"m 382 421 l 382 372 q 362 260 382 309 q 289 154 342 212 q 225 68 239 99 q 211 -11 211 37 q 232 -82 211 -54 q 296 -110 253 -110 q 449 -57 370 -110 l 514 -193 q 278 -265 407 -265 q 100 -204 165 -265 q 36 -31 36 -142 q 45 60 36 21 q 75 135 55 100 q 151 231 96 170 q 209 306 196 278 q 222 379 222 334 l 222 421 l 382 421 m 414 647 q 385 565 414 593 q 300 536 355 536 q 218 565 247 536 q 189 647 189 593 q 219 729 189 700 q 300 758 248 758 q 385 729 355 758 q 414 647 414 699 z "},"À":{"ha":742,"x_min":0,"x_max":742,"o":"m 557 0 l 500 250 l 241 250 l 184 0 l 0 0 l 245 996 l 496 996 l 742 0 l 557 0 m 465 414 l 412 644 q 391 750 408 665 q 371 863 374 834 q 349 734 362 804 q 278 414 335 664 l 465 414 m 336 1071 q 217 1180 286 1112 q 131 1279 149 1248 l 131 1293 l 347 1293 q 401 1188 365 1253 q 463 1089 437 1123 l 463 1071 l 336 1071 z "},"Á":{"ha":742,"x_min":0,"x_max":742,"o":"m 557 0 l 500 250 l 241 250 l 184 0 l 0 0 l 245 996 l 496 996 l 742 0 l 557 0 m 465 414 l 412 644 q 391 750 408 665 q 371 863 374 834 q 349 734 362 804 q 278 414 335 664 l 465 414 m 275 1071 l 275 1089 q 339 1192 302 1125 q 391 1293 376 1258 l 607 1293 l 607 1279 q 526 1185 591 1250 q 401 1071 462 1120 l 275 1071 z "},"Â":{"ha":742,"x_min":0,"x_max":742,"o":"m 557 0 l 500 250 l 241 250 l 184 0 l 0 0 l 245 996 l 496 996 l 742 0 l 557 0 m 465 414 l 412 644 q 391 750 408 665 q 371 863 374 834 q 349 734 362 804 q 278 414 335 664 l 465 414 m 498 1071 q 370 1192 433 1120 q 244 1071 310 1124 l 130 1071 l 130 1089 q 277 1293 250 1240 l 465 1293 q 612 1089 497 1234 l 612 1071 l 498 1071 z "},"Ã":{"ha":742,"x_min":0,"x_max":742,"o":"m 557 0 l 500 250 l 241 250 l 184 0 l 0 0 l 245 996 l 496 996 l 742 0 l 557 0 m 465 414 l 412 644 q 391 750 408 665 q 371 863 374 834 q 349 734 362 804 q 278 414 335 664 l 465 414 m 291 1143 q 257 1127 270 1143 q 238 1069 245 1112 l 142 1069 q 189 1223 150 1173 q 291 1274 228 1274 q 343 1262 320 1274 q 387 1238 367 1251 q 427 1213 408 1224 q 466 1202 446 1202 q 499 1219 489 1202 q 517 1275 510 1237 l 613 1275 q 566 1121 606 1172 q 465 1071 526 1071 q 411 1082 435 1071 q 368 1107 388 1093 q 330 1132 348 1121 q 291 1143 311 1143 z "},"Ä":{"ha":742,"x_min":0,"x_max":742,"o":"m 557 0 l 500 250 l 241 250 l 184 0 l 0 0 l 245 996 l 496 996 l 742 0 l 557 0 m 465 414 l 412 644 q 391 750 408 665 q 371 863 374 834 q 349 734 362 804 q 278 414 335 664 l 465 414 m 146 1181 q 170 1245 146 1222 q 236 1268 194 1268 q 302 1244 278 1268 q 326 1181 326 1220 q 302 1118 326 1142 q 236 1095 278 1095 q 170 1117 194 1095 q 146 1181 146 1140 m 416 1181 q 440 1245 416 1221 q 507 1268 464 1268 q 572 1245 548 1268 q 597 1181 597 1222 q 573 1118 597 1141 q 507 1095 549 1095 q 440 1118 465 1095 q 416 1181 416 1141 z "},"Å":{"ha":742,"x_min":0,"x_max":742,"o":"m 557 0 l 500 250 l 241 250 l 184 0 l 0 0 l 245 996 l 496 996 l 742 0 l 557 0 m 465 414 l 412 644 q 391 750 408 665 q 371 863 374 834 q 349 734 362 804 q 278 414 335 664 l 465 414 m 540 1065 q 493 949 540 993 q 370 905 446 905 q 250 948 296 905 q 205 1064 205 990 q 250 1180 205 1137 q 370 1222 296 1222 q 492 1179 444 1222 q 540 1065 540 1135 m 438 1064 q 419 1114 438 1095 q 370 1132 399 1132 q 322 1114 341 1132 q 302 1064 302 1095 q 319 1014 302 1032 q 370 996 336 996 q 419 1014 399 996 q 438 1064 438 1032 z "},"Æ":{"ha":966,"x_min":0,"x_max":908,"o":"m 908 0 l 464 0 l 464 250 l 261 250 l 184 0 l 0 0 l 321 991 l 908 991 l 908 832 l 648 832 l 648 596 l 889 596 l 889 436 l 648 436 l 648 161 l 908 161 l 908 0 m 437 832 l 428 799 l 313 414 l 464 414 l 464 832 l 437 832 z "},"Ç":{"ha":643,"x_min":57,"x_max":618,"o":"m 416 844 q 291 751 337 844 q 245 493 245 659 q 425 149 245 149 q 590 199 504 149 l 590 35 q 404 -14 517 -14 q 147 120 237 -14 q 57 494 57 253 q 150 871 57 736 q 407 1006 242 1006 q 511 991 461 1006 q 618 939 561 976 l 557 789 q 492 827 526 810 q 416 844 457 844 m 507 -176 q 458 -291 507 -249 q 309 -334 410 -334 q 220 -319 260 -334 l 220 -215 q 302 -227 262 -227 q 362 -182 362 -227 q 256 -107 362 -125 l 309 0 l 427 0 l 401 -52 q 477 -94 448 -63 q 507 -176 507 -125 z "},"È":{"ha":591,"x_min":60,"x_max":534,"o":"m 534 0 l 87 0 l 87 991 l 534 991 l 534 832 l 272 832 l 272 596 l 515 596 l 515 436 l 272 436 l 272 161 l 534 161 l 534 0 m 266 1071 q 146 1180 215 1112 q 60 1279 78 1248 l 60 1293 l 276 1293 q 331 1188 294 1253 q 393 1089 367 1123 l 393 1071 l 266 1071 z "},"É":{"ha":591,"x_min":87,"x_max":560,"o":"m 534 0 l 87 0 l 87 991 l 534 991 l 534 832 l 272 832 l 272 596 l 515 596 l 515 436 l 272 436 l 272 161 l 534 161 l 534 0 m 228 1071 l 228 1089 q 292 1192 256 1125 q 345 1293 329 1258 l 560 1293 l 560 1279 q 479 1185 544 1250 q 355 1071 415 1120 l 228 1071 z "},"Ê":{"ha":591,"x_min":70,"x_max":552,"o":"m 534 0 l 87 0 l 87 991 l 534 991 l 534 832 l 272 832 l 272 596 l 515 596 l 515 436 l 272 436 l 272 161 l 534 161 l 534 0 m 438 1071 q 310 1192 373 1120 q 184 1071 250 1124 l 70 1071 l 70 1089 q 217 1293 190 1240 l 405 1293 q 552 1089 437 1234 l 552 1071 l 438 1071 z "},"Ë":{"ha":591,"x_min":87,"x_max":538,"o":"m 534 0 l 87 0 l 87 991 l 534 991 l 534 832 l 272 832 l 272 596 l 515 596 l 515 436 l 272 436 l 272 161 l 534 161 l 534 0 m 88 1181 q 112 1245 88 1222 q 178 1268 136 1268 q 244 1244 220 1268 q 268 1181 268 1220 q 244 1118 268 1142 q 178 1095 220 1095 q 112 1117 136 1095 q 88 1181 88 1140 m 358 1181 q 382 1245 358 1221 q 448 1268 406 1268 q 514 1245 490 1268 q 538 1181 538 1222 q 514 1118 538 1141 q 448 1095 490 1095 q 382 1118 406 1095 q 358 1181 358 1141 z "},"Ð":{"ha":775,"x_min":0,"x_max":718,"o":"m 0 571 l 87 571 l 87 991 l 353 991 q 622 864 526 991 q 718 505 718 736 q 618 130 718 260 q 330 0 518 0 l 87 0 l 87 410 l 0 410 l 0 571 m 529 500 q 346 832 529 832 l 272 832 l 272 571 l 396 571 l 396 410 l 272 410 l 272 161 l 332 161 q 481 246 433 161 q 529 500 529 330 z "},"Ñ":{"ha":869,"x_min":87,"x_max":782,"o":"m 782 0 l 557 0 l 250 718 l 241 718 q 258 542 258 636 l 258 0 l 87 0 l 87 991 l 314 991 l 618 281 l 625 281 q 612 450 612 352 l 612 991 l 782 991 l 782 0 m 354 1143 q 320 1127 333 1143 q 301 1069 308 1112 l 205 1069 q 252 1223 213 1173 q 354 1274 291 1274 q 407 1262 383 1274 q 450 1238 430 1251 q 490 1213 471 1224 q 529 1202 509 1202 q 563 1219 552 1202 q 581 1275 573 1237 l 676 1275 q 629 1121 669 1172 q 528 1071 589 1071 q 474 1082 498 1071 q 431 1107 451 1093 q 393 1132 411 1121 q 354 1143 374 1143 z "},"Ò":{"ha":827,"x_min":57,"x_max":770,"o":"m 770 497 q 677 119 770 251 q 414 -14 585 -14 q 149 118 241 -14 q 57 498 57 250 q 149 876 57 745 q 415 1007 241 1007 q 678 875 587 1007 q 770 497 770 743 m 245 497 q 288 239 245 328 q 414 150 331 150 q 581 497 581 150 q 415 844 581 844 q 288 756 331 844 q 245 497 245 667 m 371 1071 q 252 1180 320 1112 q 165 1279 183 1248 l 165 1293 l 381 1293 q 436 1188 399 1253 q 498 1089 472 1123 l 498 1071 l 371 1071 z "},"Ó":{"ha":827,"x_min":57,"x_max":770,"o":"m 770 497 q 677 119 770 251 q 414 -14 585 -14 q 149 118 241 -14 q 57 498 57 250 q 149 876 57 745 q 415 1007 241 1007 q 678 875 587 1007 q 770 497 770 743 m 245 497 q 288 239 245 328 q 414 150 331 150 q 581 497 581 150 q 415 844 581 844 q 288 756 331 844 q 245 497 245 667 m 323 1071 l 323 1089 q 388 1192 351 1125 q 440 1293 425 1258 l 656 1293 l 656 1279 q 575 1185 640 1250 q 450 1071 511 1120 l 323 1071 z "},"Ô":{"ha":827,"x_min":57,"x_max":770,"o":"m 770 497 q 677 119 770 251 q 414 -14 585 -14 q 149 118 241 -14 q 57 498 57 250 q 149 876 57 745 q 415 1007 241 1007 q 678 875 587 1007 q 770 497 770 743 m 245 497 q 288 239 245 328 q 414 150 331 150 q 581 497 581 150 q 415 844 581 844 q 288 756 331 844 q 245 497 245 667 m 539 1071 q 411 1192 474 1120 q 285 1071 351 1124 l 171 1071 l 171 1089 q 318 1293 291 1240 l 506 1293 q 653 1089 538 1234 l 653 1071 l 539 1071 z "},"Õ":{"ha":827,"x_min":57,"x_max":770,"o":"m 770 497 q 677 119 770 251 q 414 -14 585 -14 q 149 118 241 -14 q 57 498 57 250 q 149 876 57 745 q 415 1007 241 1007 q 678 875 587 1007 q 770 497 770 743 m 245 497 q 288 239 245 328 q 414 150 331 150 q 581 497 581 150 q 415 844 581 844 q 288 756 331 844 q 245 497 245 667 m 333 1143 q 299 1127 312 1143 q 280 1069 287 1112 l 184 1069 q 231 1223 192 1173 q 333 1274 270 1274 q 386 1262 362 1274 q 429 1238 409 1251 q 469 1213 450 1224 q 508 1202 488 1202 q 542 1219 531 1202 q 559 1275 552 1237 l 655 1275 q 608 1121 648 1172 q 507 1071 568 1071 q 453 1082 477 1071 q 410 1107 430 1093 q 372 1132 390 1121 q 333 1143 353 1143 z "},"Ö":{"ha":827,"x_min":57,"x_max":770,"o":"m 770 497 q 677 119 770 251 q 414 -14 585 -14 q 149 118 241 -14 q 57 498 57 250 q 149 876 57 745 q 415 1007 241 1007 q 678 875 587 1007 q 770 497 770 743 m 245 497 q 288 239 245 328 q 414 150 331 150 q 581 497 581 150 q 415 844 581 844 q 288 756 331 844 q 245 497 245 667 m 187 1181 q 211 1245 187 1222 q 277 1268 235 1268 q 343 1244 319 1268 q 367 1181 367 1220 q 343 1118 367 1142 q 277 1095 319 1095 q 211 1117 235 1095 q 187 1181 187 1140 m 457 1181 q 481 1245 457 1221 q 547 1268 505 1268 q 613 1245 589 1268 q 637 1181 637 1222 q 613 1118 637 1141 q 547 1095 589 1095 q 481 1118 505 1095 q 457 1181 457 1141 z "},"×":{"ha":623,"x_min":62,"x_max":558,"o":"m 62 264 l 229 490 l 62 714 l 165 790 l 310 599 l 456 790 l 558 714 l 392 490 l 558 264 l 456 187 l 310 383 l 165 187 l 62 264 z "},"Ø":{"ha":827,"x_min":57,"x_max":770,"o":"m 770 497 q 677 119 770 251 q 414 -14 585 -14 q 250 25 322 -14 l 203 -69 l 90 -17 l 155 110 q 57 498 57 241 q 149 876 57 745 q 415 1007 241 1007 q 586 961 508 1007 l 635 1057 l 747 1006 l 679 872 q 770 497 770 742 m 581 497 q 572 657 581 600 l 326 176 q 414 150 359 150 q 581 497 581 150 m 245 497 q 260 317 245 390 l 511 811 q 415 844 475 844 q 288 756 331 844 q 245 497 245 667 z "},"Ù":{"ha":781,"x_min":83,"x_max":697,"o":"m 697 991 l 697 350 q 617 80 697 173 q 386 -14 537 -14 q 161 79 238 -14 q 83 353 83 172 l 83 991 l 267 991 l 267 339 q 392 150 267 150 q 482 198 450 150 q 514 335 514 246 l 514 991 l 697 991 m 348 1071 q 229 1180 297 1112 q 142 1279 160 1248 l 142 1293 l 358 1293 q 413 1188 376 1253 q 475 1089 449 1123 l 475 1071 l 348 1071 z "},"Ú":{"ha":781,"x_min":83,"x_max":697,"o":"m 697 991 l 697 350 q 617 80 697 173 q 386 -14 537 -14 q 161 79 238 -14 q 83 353 83 172 l 83 991 l 267 991 l 267 339 q 392 150 267 150 q 482 198 450 150 q 514 335 514 246 l 514 991 l 697 991 m 301 1071 l 301 1089 q 366 1192 329 1125 q 418 1293 402 1258 l 633 1293 l 633 1279 q 553 1185 617 1250 q 428 1071 488 1120 l 301 1071 z "},"Û":{"ha":781,"x_min":83,"x_max":697,"o":"m 697 991 l 697 350 q 617 80 697 173 q 386 -14 537 -14 q 161 79 238 -14 q 83 353 83 172 l 83 991 l 267 991 l 267 339 q 392 150 267 150 q 482 198 450 150 q 514 335 514 246 l 514 991 l 697 991 m 517 1071 q 389 1192 452 1120 q 262 1071 328 1124 l 149 1071 l 149 1089 q 296 1293 269 1240 l 484 1293 q 631 1089 515 1234 l 631 1071 l 517 1071 z "},"Ü":{"ha":781,"x_min":83,"x_max":697,"o":"m 697 991 l 697 350 q 617 80 697 173 q 386 -14 537 -14 q 161 79 238 -14 q 83 353 83 172 l 83 991 l 267 991 l 267 339 q 392 150 267 150 q 482 198 450 150 q 514 335 514 246 l 514 991 l 697 991 m 165 1181 q 189 1245 165 1222 q 254 1268 212 1268 q 320 1244 296 1268 q 345 1181 345 1220 q 320 1118 345 1142 q 254 1095 296 1095 q 189 1117 212 1095 q 165 1181 165 1140 m 435 1181 q 458 1245 435 1221 q 525 1268 482 1268 q 591 1245 566 1268 q 615 1181 615 1222 q 591 1118 615 1141 q 525 1095 567 1095 q 459 1118 483 1095 q 435 1181 435 1141 z "},"Ý":{"ha":652,"x_min":0,"x_max":652,"o":"m 326 600 l 458 991 l 652 991 l 416 397 l 416 0 l 235 0 l 235 390 l 0 991 l 195 991 l 326 600 m 235 1071 l 235 1089 q 299 1192 262 1125 q 351 1293 336 1258 l 567 1293 l 567 1279 q 486 1185 551 1250 q 361 1071 422 1120 l 235 1071 z "},"Þ":{"ha":665,"x_min":87,"x_max":628,"o":"m 628 528 q 549 285 628 370 q 318 200 469 200 l 272 200 l 272 0 l 87 0 l 87 991 l 272 991 l 272 833 l 338 833 q 628 528 628 833 m 272 359 l 307 359 q 408 397 375 359 q 441 521 441 435 q 318 675 441 675 l 272 675 l 272 359 z "},"ß":{"ha":751,"x_min":77,"x_max":722,"o":"m 653 844 q 581 666 653 742 l 547 630 q 509 567 509 591 q 527 520 509 543 q 612 443 545 498 q 700 343 677 391 q 722 229 722 296 q 654 51 722 115 q 463 -14 587 -14 q 306 22 368 -14 l 306 175 q 447 127 377 127 q 538 215 538 127 q 519 280 538 252 q 441 354 501 307 q 355 441 381 399 q 329 542 329 484 q 346 619 329 584 q 399 690 363 654 q 454 755 439 728 q 469 814 469 782 q 443 886 469 860 q 367 913 417 913 q 257 775 257 913 l 257 0 l 77 0 l 77 781 q 153 990 77 918 q 370 1063 229 1063 q 578 1005 503 1063 q 653 844 653 947 z "},"à":{"ha":648,"x_min":37,"x_max":579,"o":"m 447 0 l 411 103 l 407 103 q 324 12 367 37 q 216 -14 281 -14 q 85 49 133 -14 q 37 222 37 111 q 103 400 37 342 q 298 464 168 458 l 399 468 l 399 522 q 307 628 399 628 q 151 575 239 628 l 89 700 q 334 771 201 771 q 516 702 454 771 q 579 507 579 633 l 579 0 l 447 0 m 290 127 q 369 172 340 127 q 399 290 399 216 l 399 354 l 343 351 q 253 316 281 348 q 224 221 224 284 q 290 127 224 127 m 304 842 q 185 950 254 882 q 99 1050 117 1019 l 99 1064 l 315 1064 q 369 959 333 1023 q 431 860 406 894 l 431 842 l 304 842 z "},"á":{"ha":648,"x_min":37,"x_max":579,"o":"m 447 0 l 411 103 l 407 103 q 324 12 367 37 q 216 -14 281 -14 q 85 49 133 -14 q 37 222 37 111 q 103 400 37 342 q 298 464 168 458 l 399 468 l 399 522 q 307 628 399 628 q 151 575 239 628 l 89 700 q 334 771 201 771 q 516 702 454 771 q 579 507 579 633 l 579 0 l 447 0 m 290 127 q 369 172 340 127 q 399 290 399 216 l 399 354 l 343 351 q 253 316 281 348 q 224 221 224 284 q 290 127 224 127 m 245 842 l 245 860 q 310 962 273 896 q 362 1064 347 1029 l 578 1064 l 578 1050 q 497 956 562 1021 q 372 842 433 891 l 245 842 z "},"â":{"ha":648,"x_min":37,"x_max":579,"o":"m 447 0 l 411 103 l 407 103 q 324 12 367 37 q 216 -14 281 -14 q 85 49 133 -14 q 37 222 37 111 q 103 400 37 342 q 298 464 168 458 l 399 468 l 399 522 q 307 628 399 628 q 151 575 239 628 l 89 700 q 334 771 201 771 q 516 702 454 771 q 579 507 579 633 l 579 0 l 447 0 m 290 127 q 369 172 340 127 q 399 290 399 216 l 399 354 l 343 351 q 253 316 281 348 q 224 221 224 284 q 290 127 224 127 m 463 841 q 335 962 398 890 q 209 841 275 894 l 95 841 l 95 859 q 242 1063 215 1010 l 430 1063 q 577 859 462 1004 l 577 841 l 463 841 z "},"ã":{"ha":648,"x_min":37,"x_max":580,"o":"m 447 0 l 411 103 l 407 103 q 324 12 367 37 q 216 -14 281 -14 q 85 49 133 -14 q 37 222 37 111 q 103 400 37 342 q 298 464 168 458 l 399 468 l 399 522 q 307 628 399 628 q 151 575 239 628 l 89 700 q 334 771 201 771 q 516 702 454 771 q 579 507 579 633 l 579 0 l 447 0 m 290 127 q 369 172 340 127 q 399 290 399 216 l 399 354 l 343 351 q 253 316 281 348 q 224 221 224 284 q 290 127 224 127 m 258 914 q 224 898 237 914 q 205 840 212 882 l 109 840 q 156 994 117 944 q 258 1044 195 1044 q 310 1033 287 1044 q 354 1008 334 1022 q 393 984 374 995 q 433 972 412 972 q 466 990 456 972 q 484 1046 477 1008 l 580 1046 q 533 892 572 943 q 431 842 493 842 q 378 853 401 842 q 335 878 355 864 q 296 903 315 892 q 258 914 278 914 z "},"ä":{"ha":648,"x_min":37,"x_max":579,"o":"m 447 0 l 411 103 l 407 103 q 324 12 367 37 q 216 -14 281 -14 q 85 49 133 -14 q 37 222 37 111 q 103 400 37 342 q 298 464 168 458 l 399 468 l 399 522 q 307 628 399 628 q 151 575 239 628 l 89 700 q 334 771 201 771 q 516 702 454 771 q 579 507 579 633 l 579 0 l 447 0 m 290 127 q 369 172 340 127 q 399 290 399 216 l 399 354 l 343 351 q 253 316 281 348 q 224 221 224 284 q 290 127 224 127 m 111 951 q 135 1016 111 993 q 201 1039 159 1039 q 267 1015 243 1039 q 291 951 291 991 q 267 889 291 913 q 201 865 243 865 q 135 888 159 865 q 111 951 111 911 m 381 951 q 405 1016 381 992 q 471 1039 429 1039 q 537 1016 513 1039 q 562 951 562 993 q 537 888 562 911 q 471 865 513 865 q 405 889 429 865 q 381 951 381 912 z "},"å":{"ha":648,"x_min":37,"x_max":579,"o":"m 447 0 l 411 103 l 407 103 q 324 12 367 37 q 216 -14 281 -14 q 85 49 133 -14 q 37 222 37 111 q 103 400 37 342 q 298 464 168 458 l 399 468 l 399 522 q 307 628 399 628 q 151 575 239 628 l 89 700 q 334 771 201 771 q 516 702 454 771 q 579 507 579 633 l 579 0 l 447 0 m 290 127 q 369 172 340 127 q 399 290 399 216 l 399 354 l 343 351 q 253 316 281 348 q 224 221 224 284 q 290 127 224 127 m 504 1000 q 457 884 504 928 q 334 840 410 840 q 214 883 260 840 q 169 999 169 925 q 214 1115 169 1072 q 334 1157 260 1157 q 456 1114 408 1157 q 504 1000 504 1070 m 402 999 q 383 1048 402 1030 q 334 1067 363 1067 q 286 1048 305 1067 q 267 999 267 1030 q 283 949 267 967 q 334 930 300 930 q 383 949 363 930 q 402 999 402 967 z "},"æ":{"ha":981,"x_min":37,"x_max":937,"o":"m 697 -14 q 464 109 541 -14 q 374 16 425 45 q 252 -14 323 -14 q 92 46 147 -14 q 37 222 37 106 q 103 400 37 342 q 298 464 168 458 l 399 468 l 399 521 q 307 628 399 628 q 151 575 239 628 l 89 700 q 334 771 201 771 q 509 708 446 771 q 672 770 576 770 q 867 679 797 770 q 937 428 937 588 l 937 332 l 575 332 q 616 181 577 231 q 725 132 656 132 q 905 187 817 132 l 905 39 q 697 -14 819 -14 m 399 354 l 343 351 q 253 316 281 348 q 224 221 224 284 q 290 127 224 127 q 369 172 340 127 q 399 290 399 216 l 399 354 m 672 631 q 579 463 587 631 l 762 463 q 737 588 761 545 q 672 631 713 631 z "},"ç":{"ha":515,"x_min":50,"x_max":494,"o":"m 326 -14 q 121 85 191 -14 q 50 374 50 183 q 117 671 50 573 q 323 770 184 770 q 412 758 366 770 q 494 722 458 745 l 443 582 q 343 615 387 615 q 260 555 286 615 q 235 375 235 495 q 260 200 235 258 q 342 142 285 142 q 484 189 410 142 l 484 31 q 326 -14 412 -14 m 436 -176 q 388 -291 436 -249 q 239 -334 340 -334 q 150 -319 189 -334 l 150 -215 q 232 -227 191 -227 q 292 -182 292 -227 q 185 -107 292 -125 l 239 0 l 356 0 l 331 -52 q 407 -94 377 -63 q 436 -176 436 -125 z "},"è":{"ha":639,"x_min":50,"x_max":596,"o":"m 355 -14 q 132 87 214 -14 q 50 372 50 188 q 124 665 50 559 q 330 770 198 770 q 525 680 454 770 q 596 428 596 590 l 596 332 l 233 332 q 275 181 235 231 q 383 132 314 132 q 564 187 471 132 l 564 39 q 355 -14 477 -14 m 329 631 q 265 590 290 631 q 236 463 240 549 l 419 463 q 394 588 418 545 q 329 631 370 631 m 303 842 q 184 950 252 882 q 98 1050 115 1019 l 98 1064 l 313 1064 q 368 959 332 1023 q 430 860 404 894 l 430 842 l 303 842 z "},"é":{"ha":639,"x_min":50,"x_max":596,"o":"m 355 -14 q 132 87 214 -14 q 50 372 50 188 q 124 665 50 559 q 330 770 198 770 q 525 680 454 770 q 596 428 596 590 l 596 332 l 233 332 q 275 181 235 231 q 383 132 314 132 q 564 187 471 132 l 564 39 q 355 -14 477 -14 m 329 631 q 265 590 290 631 q 236 463 240 549 l 419 463 q 394 588 418 545 q 329 631 370 631 m 236 842 l 236 860 q 300 962 264 896 q 353 1064 337 1029 l 568 1064 l 568 1050 q 488 956 552 1021 q 363 842 423 891 l 236 842 z "},"ê":{"ha":639,"x_min":50,"x_max":596,"o":"m 355 -14 q 132 87 214 -14 q 50 372 50 188 q 124 665 50 559 q 330 770 198 770 q 525 680 454 770 q 596 428 596 590 l 596 332 l 233 332 q 275 181 235 231 q 383 132 314 132 q 564 187 471 132 l 564 39 q 355 -14 477 -14 m 329 631 q 265 590 290 631 q 236 463 240 549 l 419 463 q 394 588 418 545 q 329 631 370 631 m 458 842 q 330 962 393 890 q 203 842 269 895 l 90 842 l 90 860 q 237 1064 210 1011 l 425 1064 q 572 860 456 1005 l 572 842 l 458 842 z "},"ë":{"ha":639,"x_min":50,"x_max":596,"o":"m 355 -14 q 132 87 214 -14 q 50 372 50 188 q 124 665 50 559 q 330 770 198 770 q 525 680 454 770 q 596 428 596 590 l 596 332 l 233 332 q 275 181 235 231 q 383 132 314 132 q 564 187 471 132 l 564 39 q 355 -14 477 -14 m 329 631 q 265 590 290 631 q 236 463 240 549 l 419 463 q 394 588 418 545 q 329 631 370 631 m 106 951 q 130 1016 106 993 q 195 1039 153 1039 q 261 1015 237 1039 q 286 951 286 991 q 261 889 286 913 q 195 865 237 865 q 130 888 153 865 q 106 951 106 911 m 376 951 q 399 1016 376 992 q 466 1039 423 1039 q 532 1016 507 1039 q 556 951 556 993 q 532 888 556 911 q 466 865 508 865 q 400 889 424 865 q 376 951 376 912 z "},"ì":{"ha":336,"x_min":-75,"x_max":258,"o":"m 258 0 l 78 0 l 78 755 l 258 755 l 258 0 m 131 842 q 12 950 80 882 q -75 1050 -57 1019 l -75 1064 l 141 1064 q 196 959 159 1023 q 258 860 232 894 l 258 842 l 131 842 z "},"í":{"ha":336,"x_min":77,"x_max":409,"o":"m 258 0 l 78 0 l 78 755 l 258 755 l 258 0 m 77 842 l 77 860 q 141 962 104 896 q 193 1064 178 1029 l 409 1064 l 409 1050 q 328 956 393 1021 q 203 842 264 891 l 77 842 z "},"î":{"ha":336,"x_min":-75,"x_max":408,"o":"m 258 0 l 78 0 l 78 755 l 258 755 l 258 0 m 294 842 q 165 962 229 890 q 39 842 105 895 l -75 842 l -75 860 q 73 1064 45 1011 l 260 1064 q 408 860 292 1005 l 408 842 l 294 842 z "},"ï":{"ha":336,"x_min":-58,"x_max":393,"o":"m 258 0 l 78 0 l 78 755 l 258 755 l 258 0 m -58 951 q -34 1016 -58 993 q 32 1039 -10 1039 q 98 1015 74 1039 q 122 951 122 991 q 98 889 122 913 q 32 865 74 865 q -34 888 -10 865 q -58 951 -58 911 m 212 951 q 236 1016 212 992 q 302 1039 260 1039 q 368 1016 344 1039 q 393 951 393 993 q 369 888 393 911 q 302 865 345 865 q 236 889 260 865 q 212 951 212 912 z "},"ð":{"ha":686,"x_min":50,"x_max":636,"o":"m 636 386 q 558 93 636 199 q 340 -14 481 -14 q 128 78 206 -14 q 50 328 50 170 q 118 581 50 490 q 311 672 186 672 q 450 593 393 672 l 458 595 q 335 810 426 715 l 186 711 l 121 810 l 252 893 q 147 958 218 919 l 211 1065 q 370 968 311 1013 l 510 1063 l 574 965 l 458 890 q 593 670 550 795 q 636 386 636 545 m 452 359 q 423 484 452 438 q 346 529 394 529 q 260 479 286 529 q 235 328 235 429 q 263 189 235 237 q 345 140 291 140 q 427 195 402 140 q 452 359 452 250 z "},"ñ":{"ha":704,"x_min":77,"x_max":635,"o":"m 453 0 l 453 450 q 433 574 453 532 q 370 616 414 616 q 284 558 311 616 q 257 363 257 500 l 257 0 l 77 0 l 77 755 l 220 755 l 241 659 l 253 659 q 323 740 277 711 q 429 770 368 770 q 584 699 532 770 q 635 493 635 629 l 635 0 l 453 0 m 273 914 q 239 898 252 914 q 220 840 227 882 l 124 840 q 171 994 132 944 q 273 1044 210 1044 q 325 1033 302 1044 q 369 1008 349 1022 q 408 984 389 995 q 448 972 427 972 q 481 990 471 972 q 499 1046 492 1008 l 595 1046 q 548 892 587 943 q 446 842 508 842 q 393 853 416 842 q 350 878 370 864 q 311 903 330 892 q 273 914 293 914 z "},"ò":{"ha":686,"x_min":50,"x_max":636,"o":"m 636 379 q 557 90 636 193 q 342 -14 479 -14 q 189 34 255 -14 q 86 171 122 81 q 50 379 50 260 q 128 666 50 563 q 345 770 206 770 q 557 664 478 770 q 636 379 636 559 m 235 379 q 260 201 235 261 q 343 140 286 140 q 452 379 452 140 q 426 556 452 498 q 343 615 399 615 q 260 556 286 615 q 235 379 235 498 m 311 842 q 192 950 260 882 q 106 1050 123 1019 l 106 1064 l 321 1064 q 376 959 340 1023 q 438 860 412 894 l 438 842 l 311 842 z "},"ó":{"ha":686,"x_min":50,"x_max":636,"o":"m 636 379 q 557 90 636 193 q 342 -14 479 -14 q 189 34 255 -14 q 86 171 122 81 q 50 379 50 260 q 128 666 50 563 q 345 770 206 770 q 557 664 478 770 q 636 379 636 559 m 235 379 q 260 201 235 261 q 343 140 286 140 q 452 379 452 140 q 426 556 452 498 q 343 615 399 615 q 260 556 286 615 q 235 379 235 498 m 248 842 l 248 860 q 313 962 276 896 q 365 1064 349 1029 l 581 1064 l 581 1050 q 500 956 564 1021 q 375 842 435 891 l 248 842 z "},"ô":{"ha":686,"x_min":50,"x_max":636,"o":"m 636 379 q 557 90 636 193 q 342 -14 479 -14 q 189 34 255 -14 q 86 171 122 81 q 50 379 50 260 q 128 666 50 563 q 345 770 206 770 q 557 664 478 770 q 636 379 636 559 m 235 379 q 260 201 235 261 q 343 140 286 140 q 452 379 452 140 q 426 556 452 498 q 343 615 399 615 q 260 556 286 615 q 235 379 235 498 m 471 842 q 342 962 406 890 q 216 842 282 895 l 102 842 l 102 860 q 250 1064 222 1011 l 437 1064 q 585 860 469 1005 l 585 842 l 471 842 z "},"õ":{"ha":686,"x_min":50,"x_max":636,"o":"m 636 379 q 557 90 636 193 q 342 -14 479 -14 q 189 34 255 -14 q 86 171 122 81 q 50 379 50 260 q 128 666 50 563 q 345 770 206 770 q 557 664 478 770 q 636 379 636 559 m 235 379 q 260 201 235 261 q 343 140 286 140 q 452 379 452 140 q 426 556 452 498 q 343 615 399 615 q 260 556 286 615 q 235 379 235 498 m 263 914 q 230 898 242 914 q 210 840 217 882 l 115 840 q 161 994 122 944 q 263 1044 200 1044 q 316 1033 292 1044 q 359 1008 339 1022 q 399 984 380 995 q 438 972 418 972 q 472 990 461 972 q 490 1046 482 1008 l 585 1046 q 538 892 578 943 q 437 842 498 842 q 384 853 407 842 q 340 878 360 864 q 302 903 320 892 q 263 914 283 914 z "},"ö":{"ha":686,"x_min":50,"x_max":636,"o":"m 636 379 q 557 90 636 193 q 342 -14 479 -14 q 189 34 255 -14 q 86 171 122 81 q 50 379 50 260 q 128 666 50 563 q 345 770 206 770 q 557 664 478 770 q 636 379 636 559 m 235 379 q 260 201 235 261 q 343 140 286 140 q 452 379 452 140 q 426 556 452 498 q 343 615 399 615 q 260 556 286 615 q 235 379 235 498 m 119 951 q 142 1016 119 993 q 208 1039 166 1039 q 274 1015 250 1039 q 298 951 298 991 q 274 889 298 913 q 208 865 250 865 q 142 888 166 865 q 119 951 119 911 m 389 951 q 412 1016 389 992 q 479 1039 436 1039 q 545 1016 520 1039 q 569 951 569 993 q 545 888 569 911 q 479 865 521 865 q 413 889 437 865 q 389 951 389 912 z "},"÷":{"ha":623,"x_min":72,"x_max":550,"o":"m 72 419 l 72 559 l 550 559 l 550 419 l 72 419 m 225 253 q 310 351 225 351 q 372 326 351 351 q 393 253 393 300 q 371 180 393 207 q 310 154 349 154 q 249 177 273 154 q 225 253 225 201 m 225 726 q 310 825 225 825 q 372 800 351 825 q 393 726 393 774 q 371 654 393 681 q 310 628 349 628 q 249 651 273 628 q 225 726 225 674 z "},"ø":{"ha":686,"x_min":50,"x_max":636,"o":"m 636 379 q 557 90 636 193 q 342 -14 479 -14 q 229 11 279 -14 l 191 -65 l 81 -14 l 134 89 q 73 211 95 137 q 50 379 50 284 q 128 666 50 563 q 345 770 206 770 q 464 742 411 770 l 498 807 l 607 757 l 558 661 q 636 379 636 561 m 229 379 l 229 330 l 231 282 l 396 604 q 343 615 373 615 q 229 379 229 615 m 458 379 l 456 458 l 297 149 q 343 140 314 140 q 429 201 399 140 q 458 379 458 261 z "},"ù":{"ha":704,"x_min":69,"x_max":629,"o":"m 485 0 l 463 97 l 453 97 q 381 16 428 45 q 275 -14 335 -14 q 121 56 174 -14 q 69 262 69 125 l 69 755 l 252 755 l 252 306 q 271 181 252 223 q 335 139 291 139 q 420 197 393 139 q 447 393 447 256 l 447 755 l 629 755 l 629 0 l 485 0 m 314 842 q 195 950 263 882 q 109 1050 126 1019 l 109 1064 l 324 1064 q 379 959 342 1023 q 441 860 415 894 l 441 842 l 314 842 z "},"ú":{"ha":704,"x_min":69,"x_max":629,"o":"m 485 0 l 463 97 l 453 97 q 381 16 428 45 q 275 -14 335 -14 q 121 56 174 -14 q 69 262 69 125 l 69 755 l 252 755 l 252 306 q 271 181 252 223 q 335 139 291 139 q 420 197 393 139 q 447 393 447 256 l 447 755 l 629 755 l 629 0 l 485 0 m 258 842 l 258 860 q 323 962 286 896 q 375 1064 359 1029 l 591 1064 l 591 1050 q 510 956 574 1021 q 385 842 446 891 l 258 842 z "},"û":{"ha":704,"x_min":69,"x_max":629,"o":"m 485 0 l 463 97 l 453 97 q 381 16 428 45 q 275 -14 335 -14 q 121 56 174 -14 q 69 262 69 125 l 69 755 l 252 755 l 252 306 q 271 181 252 223 q 335 139 291 139 q 420 197 393 139 q 447 393 447 256 l 447 755 l 629 755 l 629 0 l 485 0 m 479 842 q 351 962 414 890 q 224 842 290 895 l 111 842 l 111 860 q 258 1064 231 1011 l 446 1064 q 593 860 477 1005 l 593 842 l 479 842 z "},"ü":{"ha":704,"x_min":69,"x_max":629,"o":"m 485 0 l 463 97 l 453 97 q 381 16 428 45 q 275 -14 335 -14 q 121 56 174 -14 q 69 262 69 125 l 69 755 l 252 755 l 252 306 q 271 181 252 223 q 335 139 291 139 q 420 197 393 139 q 447 393 447 256 l 447 755 l 629 755 l 629 0 l 485 0 m 125 951 q 149 1016 125 993 q 215 1039 173 1039 q 281 1015 257 1039 q 305 951 305 991 q 281 889 305 913 q 215 865 257 865 q 149 888 173 865 q 125 951 125 911 m 395 951 q 419 1016 395 992 q 486 1039 443 1039 q 551 1016 527 1039 q 576 951 576 993 q 552 888 576 911 q 486 865 528 865 q 419 889 444 865 q 395 951 395 912 z "},"ý":{"ha":619,"x_min":0,"x_max":619,"o":"m 0 755 l 187 755 l 292 329 q 317 170 307 272 l 321 170 q 327 228 321 186 q 336 293 332 269 q 429 755 339 317 l 619 755 l 403 -54 q 298 -269 363 -203 q 125 -334 233 -334 q 29 -322 71 -334 l 29 -171 q 92 -179 57 -179 q 211 -60 182 -179 l 224 -12 l 0 755 m 210 842 l 210 860 q 275 962 238 896 q 327 1064 311 1029 l 543 1064 l 543 1050 q 462 956 526 1021 q 337 842 397 891 l 210 842 z "},"þ":{"ha":689,"x_min":77,"x_max":639,"o":"m 257 657 q 329 745 290 720 q 419 770 368 770 q 581 668 522 770 q 639 379 639 566 q 578 91 639 195 q 412 -14 518 -14 q 327 9 365 -14 q 257 86 289 31 l 248 86 q 258 -25 258 -6 l 258 -334 l 77 -334 l 77 1055 l 257 1055 l 257 808 q 256 776 257 793 q 248 657 256 759 l 257 657 m 358 616 q 282 567 305 616 q 257 404 258 518 l 257 380 q 281 199 257 256 q 359 142 304 142 q 454 382 454 142 q 431 558 454 500 q 358 616 408 616 z "},"ÿ":{"ha":619,"x_min":0,"x_max":619,"o":"m 0 755 l 187 755 l 292 329 q 317 170 307 272 l 321 170 q 327 228 321 186 q 336 293 332 269 q 429 755 339 317 l 619 755 l 403 -54 q 298 -269 363 -203 q 125 -334 233 -334 q 29 -322 71 -334 l 29 -171 q 92 -179 57 -179 q 211 -60 182 -179 l 224 -12 l 0 755 m 85 951 q 109 1016 85 993 q 174 1039 132 1039 q 240 1015 216 1039 q 264 951 264 991 q 240 889 264 913 q 174 865 216 865 q 109 888 132 865 q 85 951 85 911 m 355 951 q 378 1016 355 992 q 445 1039 402 1039 q 511 1016 486 1039 q 535 951 535 993 q 511 888 535 911 q 445 865 487 865 q 379 889 403 865 q 355 951 355 912 z "},"Ā":{"ha":742,"x_min":0,"x_max":742,"o":"m 557 0 l 500 250 l 241 250 l 184 0 l 0 0 l 245 996 l 496 996 l 742 0 l 557 0 m 465 414 l 412 644 q 391 750 408 665 q 371 863 374 834 q 349 734 362 804 q 278 414 335 664 l 465 414 m 165 1230 l 576 1230 l 576 1095 l 165 1095 l 165 1230 z "},"ā":{"ha":648,"x_min":37,"x_max":579,"o":"m 447 0 l 411 103 l 407 103 q 324 12 367 37 q 216 -14 281 -14 q 85 49 133 -14 q 37 222 37 111 q 103 400 37 342 q 298 464 168 458 l 399 468 l 399 522 q 307 628 399 628 q 151 575 239 628 l 89 700 q 334 771 201 771 q 516 702 454 771 q 579 507 579 633 l 579 0 l 447 0 m 290 127 q 369 172 340 127 q 399 290 399 216 l 399 354 l 343 351 q 253 316 281 348 q 224 221 224 284 q 290 127 224 127 m 132 1000 l 543 1000 l 543 865 l 132 865 l 132 1000 z "},"Ă":{"ha":742,"x_min":0,"x_max":742,"o":"m 557 0 l 500 250 l 241 250 l 184 0 l 0 0 l 245 996 l 496 996 l 742 0 l 557 0 m 465 414 l 412 644 q 391 750 408 665 q 371 863 374 834 q 349 734 362 804 q 278 414 335 664 l 465 414 m 581 1292 q 518 1128 574 1185 q 369 1071 463 1071 q 217 1129 270 1071 q 161 1292 165 1187 l 269 1292 q 294 1225 274 1244 q 370 1207 314 1207 q 444 1226 423 1207 q 472 1292 465 1246 l 581 1292 z "},"ă":{"ha":648,"x_min":37,"x_max":579,"o":"m 447 0 l 411 103 l 407 103 q 324 12 367 37 q 216 -14 281 -14 q 85 49 133 -14 q 37 222 37 111 q 103 400 37 342 q 298 464 168 458 l 399 468 l 399 522 q 307 628 399 628 q 151 575 239 628 l 89 700 q 334 771 201 771 q 516 702 454 771 q 579 507 579 633 l 579 0 l 447 0 m 290 127 q 369 172 340 127 q 399 290 399 216 l 399 354 l 343 351 q 253 316 281 348 q 224 221 224 284 q 290 127 224 127 m 546 1063 q 483 899 538 956 q 334 842 428 842 q 182 900 235 842 q 125 1063 130 958 l 234 1063 q 259 996 239 1015 q 335 978 279 978 q 409 997 388 978 q 437 1063 430 1017 l 546 1063 z "},"Ą":{"ha":742,"x_min":0,"x_max":742,"o":"m 557 0 l 500 250 l 241 250 l 184 0 l 0 0 l 245 996 l 496 996 l 742 0 l 557 0 m 465 414 l 412 644 q 391 750 408 665 q 371 863 374 834 q 349 734 362 804 q 278 414 335 664 l 465 414 m 635 -155 q 649 -199 635 -185 q 684 -212 663 -212 q 738 -203 711 -212 l 738 -317 q 656 -328 691 -328 q 542 -288 585 -328 q 499 -179 499 -248 q 607 0 499 -83 l 721 0 q 635 -155 635 -89 z "},"ą":{"ha":648,"x_min":37,"x_max":602,"o":"m 447 0 l 411 103 l 407 103 q 324 12 367 37 q 216 -14 281 -14 q 85 49 133 -14 q 37 222 37 111 q 103 400 37 342 q 298 464 168 458 l 399 468 l 399 522 q 307 628 399 628 q 151 575 239 628 l 89 700 q 334 771 201 771 q 516 702 454 771 q 579 507 579 633 l 579 0 l 447 0 m 290 127 q 369 172 340 127 q 399 290 399 216 l 399 354 l 343 351 q 253 316 281 348 q 224 221 224 284 q 290 127 224 127 m 498 -155 q 512 -199 498 -185 q 547 -212 526 -212 q 602 -203 574 -212 l 602 -317 q 519 -328 555 -328 q 406 -288 449 -328 q 363 -179 363 -248 q 471 0 363 -83 l 585 0 q 498 -155 498 -89 z "},"Ć":{"ha":643,"x_min":57,"x_max":618,"o":"m 416 844 q 291 751 337 844 q 245 493 245 659 q 425 149 245 149 q 590 199 504 149 l 590 35 q 404 -14 517 -14 q 147 120 237 -14 q 57 494 57 253 q 150 871 57 736 q 407 1006 242 1006 q 511 991 461 1006 q 618 939 561 976 l 557 789 q 492 827 526 810 q 416 844 457 844 m 281 1071 l 281 1089 q 346 1192 309 1125 q 398 1293 382 1258 l 614 1293 l 614 1279 q 533 1185 597 1250 q 408 1071 469 1120 l 281 1071 z "},"ć":{"ha":515,"x_min":50,"x_max":527,"o":"m 326 -14 q 121 85 191 -14 q 50 374 50 183 q 117 671 50 573 q 323 770 184 770 q 412 758 366 770 q 494 722 458 745 l 443 582 q 343 615 387 615 q 260 555 286 615 q 235 375 235 495 q 260 200 235 258 q 342 142 285 142 q 484 189 410 142 l 484 31 q 326 -14 412 -14 m 195 842 l 195 860 q 259 962 222 896 q 311 1064 296 1029 l 527 1064 l 527 1050 q 446 956 511 1021 q 321 842 382 891 l 195 842 z "},"Ĉ":{"ha":643,"x_min":57,"x_max":618,"o":"m 416 844 q 291 751 337 844 q 245 493 245 659 q 425 149 245 149 q 590 199 504 149 l 590 35 q 404 -14 517 -14 q 147 120 237 -14 q 57 494 57 253 q 150 871 57 736 q 407 1006 242 1006 q 511 991 461 1006 q 618 939 561 976 l 557 789 q 492 827 526 810 q 416 844 457 844 m 503 1071 q 374 1192 437 1120 q 248 1071 314 1124 l 134 1071 l 134 1089 q 281 1293 254 1240 l 469 1293 q 616 1089 501 1234 l 616 1071 l 503 1071 z "},"ĉ":{"ha":515,"x_min":50,"x_max":543,"o":"m 326 -14 q 121 85 191 -14 q 50 374 50 183 q 117 671 50 573 q 323 770 184 770 q 412 758 366 770 q 494 722 458 745 l 443 582 q 343 615 387 615 q 260 555 286 615 q 235 375 235 495 q 260 200 235 258 q 342 142 285 142 q 484 189 410 142 l 484 31 q 326 -14 412 -14 m 429 842 q 300 962 363 890 q 174 842 240 895 l 60 842 l 60 860 q 208 1064 180 1011 l 395 1064 q 543 860 427 1005 l 543 842 l 429 842 z "},"Ċ":{"ha":643,"x_min":57,"x_max":618,"o":"m 416 844 q 291 751 337 844 q 245 493 245 659 q 425 149 245 149 q 590 199 504 149 l 590 35 q 404 -14 517 -14 q 147 120 237 -14 q 57 494 57 253 q 150 871 57 736 q 407 1006 242 1006 q 511 991 461 1006 q 618 939 561 976 l 557 789 q 492 827 526 810 q 416 844 457 844 m 267 1182 q 371 1279 267 1279 q 475 1182 475 1279 q 448 1109 475 1134 q 371 1085 420 1085 q 293 1109 320 1085 q 267 1182 267 1134 z "},"ċ":{"ha":515,"x_min":50,"x_max":494,"o":"m 326 -14 q 121 85 191 -14 q 50 374 50 183 q 117 671 50 573 q 323 770 184 770 q 412 758 366 770 q 494 722 458 745 l 443 582 q 343 615 387 615 q 260 555 286 615 q 235 375 235 495 q 260 200 235 258 q 342 142 285 142 q 484 189 410 142 l 484 31 q 326 -14 412 -14 m 199 953 q 303 1050 199 1050 q 407 953 407 1050 q 380 880 407 905 q 303 856 353 856 q 225 880 252 856 q 199 953 199 905 z "},"Č":{"ha":643,"x_min":57,"x_max":618,"o":"m 416 844 q 291 751 337 844 q 245 493 245 659 q 425 149 245 149 q 590 199 504 149 l 590 35 q 404 -14 517 -14 q 147 120 237 -14 q 57 494 57 253 q 150 871 57 736 q 407 1006 242 1006 q 511 991 461 1006 q 618 939 561 976 l 557 789 q 492 827 526 810 q 416 844 457 844 m 616 1293 l 616 1275 q 469 1071 505 1134 l 281 1071 q 134 1275 252 1126 l 134 1293 l 248 1293 q 377 1173 313 1246 q 503 1293 440 1242 l 616 1293 z "},"č":{"ha":515,"x_min":50,"x_max":541,"o":"m 326 -14 q 121 85 191 -14 q 50 374 50 183 q 117 671 50 573 q 323 770 184 770 q 412 758 366 770 q 494 722 458 745 l 443 582 q 343 615 387 615 q 260 555 286 615 q 235 375 235 495 q 260 200 235 258 q 342 142 285 142 q 484 189 410 142 l 484 31 q 326 -14 412 -14 m 541 1064 l 541 1046 q 394 842 429 905 l 206 842 q 59 1046 176 897 l 59 1064 l 173 1064 q 302 943 237 1017 q 427 1064 365 1013 l 541 1064 z "},"Ď":{"ha":775,"x_min":87,"x_max":718,"o":"m 718 505 q 618 130 718 260 q 330 0 518 0 l 87 0 l 87 991 l 353 991 q 622 864 526 991 q 718 505 718 736 m 529 500 q 346 832 529 832 l 272 832 l 272 161 l 332 161 q 481 246 433 161 q 529 500 529 330 m 606 1293 l 606 1275 q 459 1071 494 1134 l 271 1071 q 124 1275 241 1126 l 124 1293 l 238 1293 q 367 1173 302 1246 q 492 1293 430 1242 l 606 1293 z "},"ď":{"ha":733,"x_min":50,"x_max":895,"o":"m 275 -14 q 111 90 171 -14 q 50 376 50 193 q 109 665 50 561 q 272 770 168 770 q 361 744 323 770 q 431 659 399 719 l 441 659 q 433 803 433 762 l 433 1055 l 614 1055 l 614 0 l 479 0 l 449 98 l 443 98 q 275 -14 385 -14 m 334 139 q 407 185 384 139 q 432 351 430 231 l 432 375 q 409 560 432 507 q 332 614 385 614 q 259 552 281 614 q 236 374 236 491 q 259 198 236 256 q 334 139 282 139 m 675 851 q 717 1055 706 966 l 895 1055 l 895 1042 q 785 833 844 926 l 675 833 l 675 851 z "},"Đ":{"ha":775,"x_min":0,"x_max":718,"o":"m 0 571 l 87 571 l 87 991 l 353 991 q 622 864 526 991 q 718 505 718 736 q 618 130 718 260 q 330 0 518 0 l 87 0 l 87 410 l 0 410 l 0 571 m 529 500 q 346 832 529 832 l 272 832 l 272 571 l 396 571 l 396 410 l 272 410 l 272 161 l 332 161 q 481 246 433 161 q 529 500 529 330 z "},"đ":{"ha":689,"x_min":50,"x_max":697,"o":"m 275 -14 q 111 84 172 -14 q 50 359 50 182 q 109 635 50 535 q 273 736 168 736 q 362 710 324 736 q 431 625 399 685 l 441 625 q 433 794 433 726 l 433 817 l 271 817 l 271 943 l 433 943 l 433 1055 l 614 1055 l 614 943 l 697 943 l 697 817 l 614 817 l 614 0 l 479 0 l 450 98 l 443 98 q 275 -14 385 -14 m 334 139 q 411 192 389 139 q 432 353 432 245 l 432 372 q 409 534 432 487 q 332 581 386 581 q 235 357 235 581 q 258 193 235 248 q 334 139 282 139 z "},"Ē":{"ha":591,"x_min":87,"x_max":534,"o":"m 534 0 l 87 0 l 87 991 l 534 991 l 534 832 l 272 832 l 272 596 l 515 596 l 515 436 l 272 436 l 272 161 l 534 161 l 534 0 m 106 1230 l 517 1230 l 517 1095 l 106 1095 l 106 1230 z "},"ē":{"ha":639,"x_min":50,"x_max":596,"o":"m 355 -14 q 132 87 214 -14 q 50 372 50 188 q 124 665 50 559 q 330 770 198 770 q 525 680 454 770 q 596 428 596 590 l 596 332 l 233 332 q 275 181 235 231 q 383 132 314 132 q 564 187 471 132 l 564 39 q 355 -14 477 -14 m 329 631 q 265 590 290 631 q 236 463 240 549 l 419 463 q 394 588 418 545 q 329 631 370 631 m 126 1000 l 537 1000 l 537 865 l 126 865 l 126 1000 z "},"Ĕ":{"ha":591,"x_min":87,"x_max":534,"o":"m 534 0 l 87 0 l 87 991 l 534 991 l 534 832 l 272 832 l 272 596 l 515 596 l 515 436 l 272 436 l 272 161 l 534 161 l 534 0 m 522 1292 q 459 1128 514 1185 q 309 1071 404 1071 q 158 1129 210 1071 q 101 1292 105 1187 l 210 1292 q 234 1225 214 1244 q 311 1207 254 1207 q 385 1226 363 1207 q 412 1292 406 1246 l 522 1292 z "},"ĕ":{"ha":639,"x_min":50,"x_max":596,"o":"m 355 -14 q 132 87 214 -14 q 50 372 50 188 q 124 665 50 559 q 330 770 198 770 q 525 680 454 770 q 596 428 596 590 l 596 332 l 233 332 q 275 181 235 231 q 383 132 314 132 q 564 187 471 132 l 564 39 q 355 -14 477 -14 m 329 631 q 265 590 290 631 q 236 463 240 549 l 419 463 q 394 588 418 545 q 329 631 370 631 m 541 1063 q 478 899 533 956 q 328 842 422 842 q 177 900 229 842 q 120 1063 124 958 l 229 1063 q 253 996 233 1015 q 330 978 273 978 q 404 997 382 978 q 431 1063 425 1017 l 541 1063 z "},"Ė":{"ha":591,"x_min":87,"x_max":534,"o":"m 534 0 l 87 0 l 87 991 l 534 991 l 534 832 l 272 832 l 272 596 l 515 596 l 515 436 l 272 436 l 272 161 l 534 161 l 534 0 m 207 1162 q 311 1259 207 1259 q 415 1162 415 1259 q 388 1090 415 1114 q 311 1065 361 1065 q 234 1090 260 1065 q 207 1162 207 1114 z "},"ė":{"ha":639,"x_min":50,"x_max":596,"o":"m 355 -14 q 132 87 214 -14 q 50 372 50 188 q 124 665 50 559 q 330 770 198 770 q 525 680 454 770 q 596 428 596 590 l 596 332 l 233 332 q 275 181 235 231 q 383 132 314 132 q 564 187 471 132 l 564 39 q 355 -14 477 -14 m 329 631 q 265 590 290 631 q 236 463 240 549 l 419 463 q 394 588 418 545 q 329 631 370 631 m 225 953 q 330 1050 225 1050 q 433 953 433 1050 q 406 880 433 905 q 330 856 379 856 q 252 880 279 856 q 225 953 225 905 z "},"Ę":{"ha":591,"x_min":87,"x_max":534,"o":"m 534 0 l 87 0 l 87 991 l 534 991 l 534 832 l 272 832 l 272 596 l 515 596 l 515 436 l 272 436 l 272 161 l 534 161 l 534 0 m 408 -155 q 422 -199 408 -185 q 457 -212 436 -212 q 511 -203 484 -212 l 511 -317 q 429 -328 465 -328 q 316 -288 359 -328 q 273 -179 273 -248 q 380 0 273 -83 l 494 0 q 408 -155 408 -89 z "},"ę":{"ha":639,"x_min":50,"x_max":596,"o":"m 355 -14 q 132 87 214 -14 q 50 372 50 188 q 124 665 50 559 q 330 770 198 770 q 525 680 454 770 q 596 428 596 590 l 596 332 l 233 332 q 275 181 235 231 q 383 132 314 132 q 564 187 471 132 l 564 39 q 355 -14 477 -14 m 329 631 q 265 590 290 631 q 236 463 240 549 l 419 463 q 394 588 418 545 q 329 631 370 631 m 427 -140 q 441 -183 427 -170 q 476 -197 455 -197 q 530 -187 503 -197 l 530 -301 q 448 -312 484 -312 q 335 -272 378 -312 q 292 -163 292 -232 q 399 16 292 -68 l 513 16 q 427 -140 427 -73 z "},"Ě":{"ha":591,"x_min":70,"x_max":552,"o":"m 534 0 l 87 0 l 87 991 l 534 991 l 534 832 l 272 832 l 272 596 l 515 596 l 515 436 l 272 436 l 272 161 l 534 161 l 534 0 m 552 1293 l 552 1275 q 405 1071 440 1134 l 217 1071 q 70 1275 187 1126 l 70 1293 l 184 1293 q 313 1173 248 1246 q 438 1293 376 1242 l 552 1293 z "},"ě":{"ha":639,"x_min":50,"x_max":596,"o":"m 355 -14 q 132 87 214 -14 q 50 372 50 188 q 124 665 50 559 q 330 770 198 770 q 525 680 454 770 q 596 428 596 590 l 596 332 l 233 332 q 275 181 235 231 q 383 132 314 132 q 564 187 471 132 l 564 39 q 355 -14 477 -14 m 329 631 q 265 590 290 631 q 236 463 240 549 l 419 463 q 394 588 418 545 q 329 631 370 631 m 570 1064 l 570 1046 q 423 842 458 905 l 235 842 q 88 1046 205 897 l 88 1064 l 202 1064 q 331 943 267 1017 q 456 1064 394 1013 l 570 1064 z "},"Ĝ":{"ha":754,"x_min":57,"x_max":690,"o":"m 387 550 l 690 550 l 690 41 q 416 -14 562 -14 q 150 118 243 -14 q 57 497 57 250 q 164 871 57 736 q 463 1006 271 1006 q 689 945 581 1006 l 631 794 q 473 843 547 843 q 307 749 368 843 q 245 493 245 655 q 290 237 245 326 q 419 149 334 149 q 510 160 464 149 l 510 387 l 387 387 l 387 550 m 543 1071 q 415 1192 478 1120 q 289 1071 355 1124 l 175 1071 l 175 1089 q 322 1293 295 1240 l 510 1293 q 657 1089 542 1234 l 657 1071 l 543 1071 z "},"ĝ":{"ha":635,"x_min":12,"x_max":621,"o":"m 621 754 l 621 648 l 530 628 q 557 509 557 581 q 492 321 557 389 q 310 253 427 253 q 260 258 276 253 q 235 233 247 247 q 224 197 224 218 q 306 150 224 150 l 415 150 q 563 98 511 150 q 615 -58 615 46 q 527 -262 615 -190 q 273 -334 439 -334 q 80 -279 148 -334 q 12 -123 12 -224 q 51 -13 12 -60 q 158 57 90 35 q 101 99 123 71 q 79 165 79 127 q 86 207 79 189 q 105 242 93 226 q 157 292 118 259 q 83 379 110 320 q 56 510 56 438 q 121 702 56 634 q 307 770 186 770 q 360 765 330 770 q 406 754 390 760 l 621 754 m 176 -110 q 204 -179 176 -155 q 285 -203 233 -203 q 408 -172 367 -203 q 449 -86 449 -140 q 427 -26 449 -43 q 345 -8 405 -8 l 257 -8 q 198 -36 220 -8 q 176 -110 176 -63 m 232 509 q 307 375 232 375 q 380 510 380 375 q 307 648 380 648 q 232 509 232 648 m 451 842 q 323 962 386 890 q 197 842 262 895 l 83 842 l 83 860 q 230 1064 203 1011 l 418 1064 q 565 860 450 1005 l 565 842 l 451 842 z "},"Ğ":{"ha":754,"x_min":57,"x_max":690,"o":"m 387 550 l 690 550 l 690 41 q 416 -14 562 -14 q 150 118 243 -14 q 57 497 57 250 q 164 871 57 736 q 463 1006 271 1006 q 689 945 581 1006 l 631 794 q 473 843 547 843 q 307 749 368 843 q 245 493 245 655 q 290 237 245 326 q 419 149 334 149 q 510 160 464 149 l 510 387 l 387 387 l 387 550 m 626 1292 q 563 1128 618 1185 q 414 1071 508 1071 q 262 1129 315 1071 q 205 1292 210 1187 l 314 1292 q 339 1225 319 1244 q 415 1207 359 1207 q 489 1226 468 1207 q 517 1292 510 1246 l 626 1292 z "},"ğ":{"ha":635,"x_min":12,"x_max":621,"o":"m 621 754 l 621 648 l 530 628 q 557 509 557 581 q 492 321 557 389 q 310 253 427 253 q 260 258 276 253 q 235 233 247 247 q 224 197 224 218 q 306 150 224 150 l 415 150 q 563 98 511 150 q 615 -58 615 46 q 527 -262 615 -190 q 273 -334 439 -334 q 80 -279 148 -334 q 12 -123 12 -224 q 51 -13 12 -60 q 158 57 90 35 q 101 99 123 71 q 79 165 79 127 q 86 207 79 189 q 105 242 93 226 q 157 292 118 259 q 83 379 110 320 q 56 510 56 438 q 121 702 56 634 q 307 770 186 770 q 360 765 330 770 q 406 754 390 760 l 621 754 m 176 -110 q 204 -179 176 -155 q 285 -203 233 -203 q 408 -172 367 -203 q 449 -86 449 -140 q 427 -26 449 -43 q 345 -8 405 -8 l 257 -8 q 198 -36 220 -8 q 176 -110 176 -63 m 232 509 q 307 375 232 375 q 380 510 380 375 q 307 648 380 648 q 232 509 232 648 m 527 1063 q 464 899 519 956 q 315 842 409 842 q 163 900 216 842 q 106 1063 111 958 l 215 1063 q 240 996 220 1015 q 316 978 260 978 q 390 997 369 978 q 418 1063 411 1017 l 527 1063 z "},"Ġ":{"ha":754,"x_min":57,"x_max":690,"o":"m 387 550 l 690 550 l 690 41 q 416 -14 562 -14 q 150 118 243 -14 q 57 497 57 250 q 164 871 57 736 q 463 1006 271 1006 q 689 945 581 1006 l 631 794 q 473 843 547 843 q 307 749 368 843 q 245 493 245 655 q 290 237 245 326 q 419 149 334 149 q 510 160 464 149 l 510 387 l 387 387 l 387 550 m 310 1182 q 414 1279 310 1279 q 518 1182 518 1279 q 491 1109 518 1134 q 414 1085 464 1085 q 337 1109 363 1085 q 310 1182 310 1134 z "},"ġ":{"ha":635,"x_min":12,"x_max":621,"o":"m 621 754 l 621 648 l 530 628 q 557 509 557 581 q 492 321 557 389 q 310 253 427 253 q 260 258 276 253 q 235 233 247 247 q 224 197 224 218 q 306 150 224 150 l 415 150 q 563 98 511 150 q 615 -58 615 46 q 527 -262 615 -190 q 273 -334 439 -334 q 80 -279 148 -334 q 12 -123 12 -224 q 51 -13 12 -60 q 158 57 90 35 q 101 99 123 71 q 79 165 79 127 q 86 207 79 189 q 105 242 93 226 q 157 292 118 259 q 83 379 110 320 q 56 510 56 438 q 121 702 56 634 q 307 770 186 770 q 360 765 330 770 q 406 754 390 760 l 621 754 m 176 -110 q 204 -179 176 -155 q 285 -203 233 -203 q 408 -172 367 -203 q 449 -86 449 -140 q 427 -26 449 -43 q 345 -8 405 -8 l 257 -8 q 198 -36 220 -8 q 176 -110 176 -63 m 232 509 q 307 375 232 375 q 380 510 380 375 q 307 648 380 648 q 232 509 232 648 m 208 953 q 313 1050 208 1050 q 416 953 416 1050 q 389 880 416 905 q 313 856 362 856 q 235 880 262 856 q 208 953 208 905 z "},"Ģ":{"ha":754,"x_min":57,"x_max":690,"o":"m 387 550 l 690 550 l 690 41 q 416 -14 562 -14 q 150 118 243 -14 q 57 497 57 250 q 164 871 57 736 q 463 1006 271 1006 q 689 945 581 1006 l 631 794 q 473 843 547 843 q 307 749 368 843 q 245 493 245 655 q 290 237 245 326 q 419 149 334 149 q 510 160 464 149 l 510 387 l 387 387 l 387 550 m 283 -289 q 310 -184 296 -244 q 328 -85 323 -124 l 505 -85 l 505 -98 q 393 -307 454 -218 l 283 -307 l 283 -289 z "},"ģ":{"ha":635,"x_min":12,"x_max":621,"o":"m 621 754 l 621 648 l 530 628 q 557 509 557 581 q 492 321 557 389 q 310 253 427 253 q 260 258 276 253 q 235 233 247 247 q 224 197 224 218 q 306 150 224 150 l 415 150 q 563 98 511 150 q 615 -58 615 46 q 527 -262 615 -190 q 273 -334 439 -334 q 80 -279 148 -334 q 12 -123 12 -224 q 51 -13 12 -60 q 158 57 90 35 q 101 99 123 71 q 79 165 79 127 q 86 207 79 189 q 105 242 93 226 q 157 292 118 259 q 83 379 110 320 q 56 510 56 438 q 121 702 56 634 q 307 770 186 770 q 360 765 330 770 q 406 754 390 760 l 621 754 m 176 -110 q 204 -179 176 -155 q 285 -203 233 -203 q 408 -172 367 -203 q 449 -86 449 -140 q 427 -26 449 -43 q 345 -8 405 -8 l 257 -8 q 198 -36 220 -8 q 176 -110 176 -63 m 232 509 q 307 375 232 375 q 380 510 380 375 q 307 648 380 648 q 232 509 232 648 m 443 1046 q 416 941 429 1001 q 398 842 403 881 l 219 842 l 219 856 q 332 1064 265 964 l 443 1064 l 443 1046 z "},"Ĥ":{"ha":787,"x_min":87,"x_max":700,"o":"m 700 0 l 515 0 l 515 435 l 272 435 l 272 0 l 87 0 l 87 991 l 272 991 l 272 597 l 515 597 l 515 991 l 700 991 l 700 0 m 511 1071 q 382 1192 446 1120 q 256 1071 322 1124 l 142 1071 l 142 1089 q 290 1293 262 1240 l 477 1293 q 625 1089 509 1234 l 625 1071 l 511 1071 z "},"ĥ":{"ha":704,"x_min":77,"x_max":635,"o":"m 453 0 l 453 450 q 370 616 453 616 q 282 551 307 616 q 257 363 257 486 l 257 0 l 77 0 l 77 1055 l 257 1055 l 257 821 q 249 659 257 775 l 258 659 q 425 770 313 770 q 582 700 529 770 q 635 493 635 629 l 635 0 l 453 0 m 483 1108 q 355 1229 418 1157 q 229 1108 294 1161 l 115 1108 l 115 1126 q 262 1331 235 1278 l 450 1331 q 597 1126 481 1272 l 597 1108 l 483 1108 z "},"Ħ":{"ha":787,"x_min":-8,"x_max":796,"o":"m 700 852 l 796 852 l 796 725 l 700 725 l 700 0 l 515 0 l 515 435 l 272 435 l 272 0 l 87 0 l 87 725 l -8 725 l -8 852 l 87 852 l 87 991 l 272 991 l 272 852 l 515 852 l 515 991 l 700 991 l 700 852 m 515 597 l 515 725 l 272 725 l 272 597 l 515 597 z "},"ħ":{"ha":704,"x_min":-8,"x_max":635,"o":"m 635 0 l 453 0 l 453 425 q 370 582 453 582 q 284 525 311 582 q 257 343 257 467 l 257 0 l 77 0 l 77 817 l -8 817 l -8 943 l 77 943 l 77 1055 l 257 1055 l 257 943 l 424 943 l 424 817 l 257 817 l 253 685 l 249 624 l 258 624 q 327 707 283 679 q 425 736 370 736 q 582 669 529 736 q 635 472 635 602 l 635 0 z "},"ĩ":{"ha":336,"x_min":-62,"x_max":409,"o":"m 258 0 l 78 0 l 78 755 l 258 755 l 258 0 m 87 914 q 53 898 66 914 q 34 840 41 882 l -62 840 q -15 994 -54 944 q 87 1044 24 1044 q 139 1033 116 1044 q 183 1008 163 1022 q 222 984 203 995 q 262 972 241 972 q 295 990 285 972 q 313 1046 306 1008 l 409 1046 q 362 892 401 943 q 260 842 322 842 q 207 853 231 842 q 164 878 184 864 q 125 903 144 892 q 87 914 107 914 z "},"ī":{"ha":336,"x_min":-38,"x_max":373,"o":"m 258 0 l 78 0 l 78 755 l 258 755 l 258 0 m -38 1000 l 373 1000 l 373 865 l -38 865 l -38 1000 z "},"ĭ":{"ha":336,"x_min":-45,"x_max":376,"o":"m 258 0 l 78 0 l 78 755 l 258 755 l 258 0 m 376 1063 q 313 899 368 956 q 163 842 258 842 q 12 900 64 842 q -45 1063 -41 958 l 64 1063 q 89 996 68 1015 q 165 978 109 978 q 239 997 218 978 q 267 1063 260 1017 l 376 1063 z "},"į":{"ha":336,"x_min":38,"x_max":277,"o":"m 258 0 l 78 0 l 78 755 l 258 755 l 258 0 m 71 953 q 97 1024 71 998 q 170 1050 123 1050 q 240 1024 214 1050 q 267 953 267 998 q 239 881 267 907 q 170 856 212 856 q 98 881 125 856 q 71 953 71 907 m 174 -155 q 188 -199 174 -185 q 222 -212 201 -212 q 277 -203 250 -212 l 277 -317 q 195 -328 230 -328 q 81 -288 124 -328 q 38 -179 38 -248 q 146 0 38 -83 l 260 0 q 174 -155 174 -89 z "},"ı":{"ha":336,"x_min":78,"x_max":258,"o":"m 258 0 l 78 0 l 78 755 l 258 755 l 258 0 z "},"ĳ":{"ha":688,"x_min":71,"x_max":618,"o":"m 258 0 l 78 0 l 78 755 l 258 755 l 258 0 m 71 953 q 97 1024 71 998 q 170 1050 123 1050 q 240 1024 214 1050 q 267 953 267 998 q 239 881 267 907 q 170 856 212 856 q 98 881 125 856 q 71 953 71 907 m 401 -334 q 307 -317 345 -334 l 307 -167 q 366 -179 338 -179 q 429 -64 429 -179 l 429 755 l 610 755 l 610 -87 q 555 -270 610 -205 q 401 -334 500 -334 m 422 953 q 449 1024 422 998 q 521 1050 475 1050 q 592 1023 566 1050 q 618 953 618 997 q 591 882 618 907 q 521 856 565 856 q 450 881 477 856 q 422 953 422 906 z "},"Ĵ":{"ha":359,"x_min":-104,"x_max":422,"o":"m 9 -286 q -104 -269 -62 -286 l -104 -109 q -21 -122 -60 -122 q 61 -86 35 -122 q 87 21 87 -50 l 87 991 l 272 991 l 272 31 q 239 -139 272 -67 q 146 -249 206 -211 q 9 -286 86 -286 m 308 1071 q 180 1192 243 1120 q 54 1071 119 1124 l -60 1071 l -60 1089 q 87 1293 60 1240 l 275 1293 q 422 1089 307 1234 l 422 1071 l 308 1071 z "},"ĵ":{"ha":339,"x_min":-67,"x_max":415,"o":"m 54 -334 q -40 -317 -3 -334 l -40 -167 q 18 -179 -9 -179 q 82 -64 82 -179 l 82 755 l 262 755 l 262 -87 q 208 -270 262 -205 q 54 -334 153 -334 m 301 842 q 173 962 236 890 q 47 842 113 895 l -67 842 l -67 860 q 80 1064 53 1011 l 268 1064 q 415 860 300 1005 l 415 842 l 301 842 z "},"Ķ":{"ha":705,"x_min":87,"x_max":705,"o":"m 705 0 l 509 0 l 346 424 l 272 350 l 272 0 l 87 0 l 87 991 l 272 991 l 272 500 l 336 648 l 505 991 l 703 991 l 473 562 l 705 0 m 254 -289 q 280 -184 267 -244 q 298 -85 294 -124 l 476 -85 l 476 -98 q 363 -307 425 -218 l 254 -307 l 254 -289 z "},"ķ":{"ha":654,"x_min":77,"x_max":653,"o":"m 254 407 l 300 497 l 449 755 l 640 755 l 449 446 l 653 0 l 464 0 l 328 319 l 257 256 l 257 0 l 77 0 l 77 1055 l 257 1055 l 257 558 l 249 407 l 254 407 m 223 -289 q 250 -184 237 -244 q 268 -85 263 -124 l 446 -85 l 446 -98 q 333 -307 394 -218 l 223 -307 l 223 -289 z "},"ĸ":{"ha":654,"x_min":77,"x_max":653,"o":"m 449 755 l 640 755 l 449 447 l 653 0 l 464 0 l 328 319 l 257 256 l 257 0 l 77 0 l 77 755 l 257 755 l 257 561 l 249 400 l 307 514 l 449 755 z "},"Ĺ":{"ha":558,"x_min":87,"x_max":528,"o":"m 87 0 l 87 991 l 272 991 l 272 161 l 528 161 l 528 0 l 87 0 m 109 1071 l 109 1089 q 173 1192 136 1125 q 225 1293 210 1258 l 441 1293 l 441 1279 q 360 1185 425 1250 q 235 1071 296 1120 l 109 1071 z "},"ĺ":{"ha":332,"x_min":77,"x_max":412,"o":"m 257 0 l 77 0 l 77 1055 l 257 1055 l 257 0 m 79 1109 l 79 1128 q 144 1230 107 1164 q 196 1332 180 1297 l 412 1332 l 412 1318 q 331 1224 395 1289 q 206 1109 267 1159 l 79 1109 z "},"Ļ":{"ha":558,"x_min":87,"x_max":528,"o":"m 87 0 l 87 991 l 272 991 l 272 161 l 528 161 l 528 0 l 87 0 m 174 -289 q 201 -184 188 -244 q 219 -85 214 -124 l 397 -85 l 397 -98 q 284 -307 345 -218 l 174 -307 l 174 -289 z "},"ļ":{"ha":332,"x_min":38,"x_max":261,"o":"m 261 0 l 81 0 l 81 1055 l 261 1055 l 261 0 m 38 -289 q 65 -184 52 -244 q 83 -85 78 -124 l 260 -85 l 260 -98 q 148 -307 209 -218 l 38 -307 l 38 -289 z "},"Ľ":{"ha":558,"x_min":87,"x_max":564,"o":"m 87 0 l 87 991 l 272 991 l 272 161 l 528 161 l 528 0 l 87 0 m 345 788 q 386 992 375 903 l 564 992 l 564 979 q 454 770 513 863 l 345 770 l 345 788 z "},"ľ":{"ha":376,"x_min":77,"x_max":537,"o":"m 257 0 l 77 0 l 77 1055 l 257 1055 l 257 0 m 318 851 q 359 1055 349 966 l 537 1055 l 537 1042 q 427 833 486 926 l 318 833 l 318 851 z "},"Ŀ":{"ha":558,"x_min":87,"x_max":558,"o":"m 87 0 l 87 991 l 272 991 l 272 161 l 528 161 l 528 0 l 87 0 m 350 507 q 454 604 350 604 q 558 507 558 604 q 531 434 558 458 q 454 410 504 410 q 377 434 404 410 q 350 507 350 458 z "},"ŀ":{"ha":538,"x_min":77,"x_max":538,"o":"m 257 0 l 77 0 l 77 1055 l 257 1055 l 257 0 m 330 470 q 435 567 330 567 q 538 470 538 567 q 511 397 538 422 q 435 373 484 373 q 357 397 384 373 q 330 470 330 422 z "},"Ł":{"ha":586,"x_min":-12,"x_max":555,"o":"m 115 0 l 115 326 l 68 292 l -12 410 l 115 501 l 115 991 l 300 991 l 300 635 l 385 696 l 467 579 l 300 460 l 300 161 l 555 161 l 555 0 l 115 0 z "},"ł":{"ha":375,"x_min":-29,"x_max":404,"o":"m 277 635 l 321 667 l 404 550 l 277 457 l 277 0 l 97 0 l 97 328 l 53 296 l -29 412 l 97 504 l 97 1055 l 277 1055 l 277 635 z "},"Ń":{"ha":869,"x_min":87,"x_max":782,"o":"m 782 0 l 557 0 l 250 718 l 241 718 q 258 542 258 636 l 258 0 l 87 0 l 87 991 l 314 991 l 618 281 l 625 281 q 612 450 612 352 l 612 991 l 782 991 l 782 0 m 336 1071 l 336 1089 q 400 1192 363 1125 q 452 1293 437 1258 l 668 1293 l 668 1279 q 587 1185 652 1250 q 463 1071 523 1120 l 336 1071 z "},"ń":{"ha":704,"x_min":77,"x_max":635,"o":"m 453 0 l 453 450 q 433 574 453 532 q 370 616 414 616 q 284 558 311 616 q 257 363 257 500 l 257 0 l 77 0 l 77 755 l 220 755 l 241 659 l 253 659 q 323 740 277 711 q 429 770 368 770 q 584 699 532 770 q 635 493 635 629 l 635 0 l 453 0 m 261 842 l 261 860 q 326 962 289 896 q 378 1064 362 1029 l 593 1064 l 593 1050 q 513 956 577 1021 q 388 842 448 891 l 261 842 z "},"Ņ":{"ha":869,"x_min":87,"x_max":782,"o":"m 782 0 l 557 0 l 250 718 l 241 718 q 258 542 258 636 l 258 0 l 87 0 l 87 991 l 314 991 l 618 281 l 625 281 q 612 450 612 352 l 612 991 l 782 991 l 782 0 m 305 -289 q 332 -184 319 -244 q 350 -85 345 -124 l 528 -85 l 528 -98 q 415 -307 476 -218 l 305 -307 l 305 -289 z "},"ņ":{"ha":704,"x_min":77,"x_max":635,"o":"m 453 0 l 453 450 q 433 574 453 532 q 370 616 414 616 q 284 558 311 616 q 257 363 257 500 l 257 0 l 77 0 l 77 755 l 220 755 l 241 659 l 253 659 q 323 740 277 711 q 429 770 368 770 q 584 699 532 770 q 635 493 635 629 l 635 0 l 453 0 m 224 -289 q 251 -184 238 -244 q 269 -85 264 -124 l 447 -85 l 447 -98 q 334 -307 395 -218 l 224 -307 l 224 -289 z "},"Ň":{"ha":869,"x_min":87,"x_max":782,"o":"m 782 0 l 557 0 l 250 718 l 241 718 q 258 542 258 636 l 258 0 l 87 0 l 87 991 l 314 991 l 618 281 l 625 281 q 612 450 612 352 l 612 991 l 782 991 l 782 0 m 675 1293 l 675 1275 q 528 1071 564 1134 l 340 1071 q 193 1275 311 1126 l 193 1293 l 307 1293 q 436 1173 372 1246 q 562 1293 499 1242 l 675 1293 z "},"ň":{"ha":704,"x_min":77,"x_max":635,"o":"m 453 0 l 453 450 q 433 574 453 532 q 370 616 414 616 q 284 558 311 616 q 257 363 257 500 l 257 0 l 77 0 l 77 755 l 220 755 l 241 659 l 253 659 q 323 740 277 711 q 429 770 368 770 q 584 699 532 770 q 635 493 635 629 l 635 0 l 453 0 m 595 1064 l 595 1046 q 448 842 484 905 l 260 842 q 113 1046 231 897 l 113 1064 l 227 1064 q 356 943 292 1017 q 481 1064 419 1013 l 595 1064 z "},"ŉ":{"ha":851,"x_min":-24,"x_max":782,"o":"m 600 0 l 600 450 q 581 574 600 532 q 517 616 561 616 q 431 558 458 616 q 404 363 404 500 l 404 0 l 224 0 l 224 755 l 367 755 l 389 659 l 400 659 q 470 740 425 711 q 576 770 515 770 q 731 699 680 770 q 782 493 782 629 l 782 0 l 600 0 m 223 991 l 233 977 q 113 652 199 843 l -24 652 q 44 991 19 825 l 223 991 z "},"Ŋ":{"ha":869,"x_min":87,"x_max":782,"o":"m 521 -286 q 406 -269 448 -286 l 406 -109 q 494 -122 453 -122 q 611 0 602 -122 l 253 724 l 243 724 q 258 440 258 524 l 258 0 l 87 0 l 87 991 l 306 991 l 616 367 l 625 367 q 612 639 612 530 l 612 991 l 782 991 l 782 31 q 713 -202 782 -118 q 521 -286 644 -286 z "},"ŋ":{"ha":704,"x_min":77,"x_max":635,"o":"m 427 -334 q 330 -317 369 -334 l 330 -167 q 390 -179 361 -179 q 453 -64 453 -179 l 453 450 q 433 574 453 532 q 370 616 414 616 q 284 558 311 616 q 257 363 257 500 l 257 0 l 77 0 l 77 755 l 220 755 l 241 659 l 253 659 q 323 740 277 711 q 429 770 368 770 q 584 699 532 770 q 635 493 635 629 l 635 -87 q 580 -270 635 -205 q 427 -334 526 -334 z "},"Ō":{"ha":827,"x_min":57,"x_max":770,"o":"m 770 497 q 677 119 770 251 q 414 -14 585 -14 q 149 118 241 -14 q 57 498 57 250 q 149 876 57 745 q 415 1007 241 1007 q 678 875 587 1007 q 770 497 770 743 m 245 497 q 288 239 245 328 q 414 150 331 150 q 581 497 581 150 q 415 844 581 844 q 288 756 331 844 q 245 497 245 667 m 209 1230 l 620 1230 l 620 1095 l 209 1095 l 209 1230 z "},"ō":{"ha":686,"x_min":50,"x_max":636,"o":"m 636 379 q 557 90 636 193 q 342 -14 479 -14 q 189 34 255 -14 q 86 171 122 81 q 50 379 50 260 q 128 666 50 563 q 345 770 206 770 q 557 664 478 770 q 636 379 636 559 m 235 379 q 260 201 235 261 q 343 140 286 140 q 452 379 452 140 q 426 556 452 498 q 343 615 399 615 q 260 556 286 615 q 235 379 235 498 m 138 1000 l 549 1000 l 549 865 l 138 865 l 138 1000 z "},"Ŏ":{"ha":827,"x_min":57,"x_max":770,"o":"m 770 497 q 677 119 770 251 q 414 -14 585 -14 q 149 118 241 -14 q 57 498 57 250 q 149 876 57 745 q 415 1007 241 1007 q 678 875 587 1007 q 770 497 770 743 m 245 497 q 288 239 245 328 q 414 150 331 150 q 581 497 581 150 q 415 844 581 844 q 288 756 331 844 q 245 497 245 667 m 622 1292 q 559 1128 614 1185 q 410 1071 504 1071 q 258 1129 311 1071 q 201 1292 205 1187 l 310 1292 q 335 1225 315 1244 q 411 1207 355 1207 q 485 1226 464 1207 q 513 1292 506 1246 l 622 1292 z "},"ŏ":{"ha":686,"x_min":50,"x_max":636,"o":"m 636 379 q 557 90 636 193 q 342 -14 479 -14 q 189 34 255 -14 q 86 171 122 81 q 50 379 50 260 q 128 666 50 563 q 345 770 206 770 q 557 664 478 770 q 636 379 636 559 m 235 379 q 260 201 235 261 q 343 140 286 140 q 452 379 452 140 q 426 556 452 498 q 343 615 399 615 q 260 556 286 615 q 235 379 235 498 m 553 1063 q 491 899 546 956 q 341 842 435 842 q 190 900 242 842 q 133 1063 137 958 l 241 1063 q 266 996 246 1015 q 342 978 286 978 q 416 997 395 978 q 444 1063 437 1017 l 553 1063 z "},"Ő":{"ha":827,"x_min":57,"x_max":776,"o":"m 770 497 q 677 119 770 251 q 414 -14 585 -14 q 149 118 241 -14 q 57 498 57 250 q 149 876 57 745 q 415 1007 241 1007 q 678 875 587 1007 q 770 497 770 743 m 245 497 q 288 239 245 328 q 414 150 331 150 q 581 497 581 150 q 415 844 581 844 q 288 756 331 844 q 245 497 245 667 m 203 1071 l 203 1089 q 269 1194 233 1131 q 321 1293 304 1256 l 511 1293 l 511 1279 q 420 1176 489 1244 q 305 1071 351 1108 l 203 1071 m 468 1071 l 468 1089 q 534 1194 498 1131 q 586 1293 569 1256 l 776 1293 l 776 1279 q 693 1185 759 1250 q 569 1071 628 1120 l 468 1071 z "},"ő":{"ha":686,"x_min":50,"x_max":704,"o":"m 636 379 q 557 90 636 193 q 342 -14 479 -14 q 189 34 255 -14 q 86 171 122 81 q 50 379 50 260 q 128 666 50 563 q 345 770 206 770 q 557 664 478 770 q 636 379 636 559 m 235 379 q 260 201 235 261 q 343 140 286 140 q 452 379 452 140 q 426 556 452 498 q 343 615 399 615 q 260 556 286 615 q 235 379 235 498 m 131 842 l 131 860 q 197 964 161 902 q 249 1064 232 1027 l 439 1064 l 439 1050 q 348 947 417 1015 q 233 842 279 879 l 131 842 m 396 842 l 396 860 q 462 964 427 902 q 514 1064 497 1027 l 704 1064 l 704 1050 q 622 956 687 1021 q 497 842 556 890 l 396 842 z "},"Œ":{"ha":981,"x_min":57,"x_max":922,"o":"m 922 0 l 515 0 q 414 -14 464 -14 q 149 118 241 -14 q 57 498 57 250 q 149 876 57 745 q 415 1007 241 1007 q 522 991 470 1007 l 922 991 l 922 832 l 663 832 l 663 596 l 903 596 l 903 436 l 663 436 l 663 161 l 922 161 l 922 0 m 415 844 q 288 756 331 844 q 245 497 245 667 q 288 239 245 328 q 414 150 331 150 q 478 160 450 150 l 478 835 q 415 844 446 844 z "},"œ":{"ha":1039,"x_min":50,"x_max":996,"o":"m 757 -14 q 545 82 623 -14 q 342 -14 466 -14 q 189 34 255 -14 q 86 171 122 81 q 50 379 50 260 q 128 666 50 563 q 345 770 206 770 q 541 675 463 770 q 732 770 613 770 q 925 679 855 770 q 996 428 996 589 l 996 332 l 635 332 q 676 181 637 231 q 783 132 715 132 q 965 187 873 132 l 965 39 q 757 -14 877 -14 m 235 379 q 260 201 235 261 q 343 140 286 140 q 452 379 452 140 q 426 556 452 498 q 343 615 399 615 q 260 556 286 615 q 235 379 235 498 m 730 631 q 667 590 692 631 q 637 463 642 549 l 821 463 q 795 588 819 545 q 730 631 772 631 z "},"Ŕ":{"ha":694,"x_min":87,"x_max":692,"o":"m 272 386 l 272 0 l 87 0 l 87 991 l 329 991 q 555 919 482 991 q 628 697 628 846 q 501 435 628 509 l 692 0 l 494 0 l 338 386 l 272 386 m 272 545 l 319 545 q 413 582 385 545 q 441 692 441 618 q 411 800 441 768 q 318 832 381 832 l 272 832 l 272 545 m 245 1071 l 245 1089 q 310 1192 273 1125 q 362 1293 347 1258 l 578 1293 l 578 1279 q 497 1185 562 1250 q 372 1071 433 1120 l 245 1071 z "},"ŕ":{"ha":468,"x_min":77,"x_max":496,"o":"m 399 770 q 464 760 432 770 l 443 585 q 393 591 424 591 q 292 539 328 591 q 257 389 257 488 l 257 0 l 77 0 l 77 755 l 225 755 l 245 637 l 252 637 q 317 739 281 709 q 399 770 352 770 m 164 842 l 164 860 q 229 962 192 896 q 281 1064 265 1029 l 496 1064 l 496 1050 q 416 956 480 1021 q 291 842 351 891 l 164 842 z "},"Ŗ":{"ha":694,"x_min":87,"x_max":692,"o":"m 272 386 l 272 0 l 87 0 l 87 991 l 329 991 q 555 919 482 991 q 628 697 628 846 q 501 435 628 509 l 692 0 l 494 0 l 338 386 l 272 386 m 272 545 l 319 545 q 413 582 385 545 q 441 692 441 618 q 411 800 441 768 q 318 832 381 832 l 272 832 l 272 545 m 248 -289 q 275 -184 262 -244 q 293 -85 288 -124 l 471 -85 l 471 -98 q 358 -307 419 -218 l 248 -307 l 248 -289 z "},"ŗ":{"ha":468,"x_min":39,"x_max":464,"o":"m 399 770 q 464 760 432 770 l 443 585 q 393 591 424 591 q 292 539 328 591 q 257 389 257 488 l 257 0 l 77 0 l 77 755 l 225 755 l 245 637 l 252 637 q 317 739 281 709 q 399 770 352 770 m 39 -289 q 66 -184 53 -244 q 84 -85 79 -124 l 262 -85 l 262 -98 q 149 -307 210 -218 l 39 -307 l 39 -289 z "},"Ř":{"ha":694,"x_min":87,"x_max":692,"o":"m 272 386 l 272 0 l 87 0 l 87 991 l 329 991 q 555 919 482 991 q 628 697 628 846 q 501 435 628 509 l 692 0 l 494 0 l 338 386 l 272 386 m 272 545 l 319 545 q 413 582 385 545 q 441 692 441 618 q 411 800 441 768 q 318 832 381 832 l 272 832 l 272 545 m 598 1293 l 598 1275 q 451 1071 486 1134 l 263 1071 q 116 1275 233 1126 l 116 1293 l 230 1293 q 359 1173 294 1246 q 484 1293 422 1242 l 598 1293 z "},"ř":{"ha":468,"x_min":20,"x_max":503,"o":"m 399 770 q 464 760 432 770 l 443 585 q 393 591 424 591 q 292 539 328 591 q 257 389 257 488 l 257 0 l 77 0 l 77 755 l 225 755 l 245 637 l 252 637 q 317 739 281 709 q 399 770 352 770 m 503 1064 l 503 1046 q 355 842 391 905 l 168 842 q 20 1046 138 897 l 20 1064 l 134 1064 q 263 943 199 1017 q 389 1064 326 1013 l 503 1064 z "},"Ś":{"ha":574,"x_min":46,"x_max":543,"o":"m 539 273 q 469 60 539 134 q 267 -14 399 -14 q 46 37 137 -14 l 46 220 q 250 147 157 147 q 330 176 303 147 q 357 256 357 205 q 325 346 357 305 q 220 437 293 387 q 123 522 156 481 q 72 612 90 562 q 54 729 54 663 q 125 931 54 857 q 315 1006 196 1006 q 534 942 429 1006 l 473 794 q 405 828 441 813 q 329 843 370 843 q 260 813 284 843 q 236 733 236 784 q 265 646 236 683 q 366 561 294 608 q 501 428 463 496 q 539 273 539 360 m 210 1071 l 210 1089 q 275 1192 238 1125 q 327 1293 311 1258 l 543 1293 l 543 1279 q 462 1185 526 1250 q 337 1071 397 1120 l 210 1071 z "},"ś":{"ha":519,"x_min":41,"x_max":508,"o":"m 482 221 q 417 48 482 111 q 227 -14 353 -14 q 41 31 115 -14 l 41 187 q 129 144 79 161 q 216 127 178 127 q 280 148 258 127 q 302 203 302 169 q 279 263 302 237 q 195 326 256 289 q 77 430 113 375 q 41 561 41 486 q 107 713 41 657 q 289 770 174 770 q 478 717 389 770 l 419 587 q 292 627 347 627 q 240 608 257 627 q 222 564 222 590 q 244 509 222 533 q 323 450 265 486 q 422 378 394 408 q 467 310 451 348 q 482 221 482 272 m 176 842 l 176 860 q 240 962 203 896 q 292 1064 277 1029 l 508 1064 l 508 1050 q 427 956 492 1021 q 302 842 363 891 l 176 842 z "},"Ŝ":{"ha":574,"x_min":46,"x_max":539,"o":"m 539 273 q 469 60 539 134 q 267 -14 399 -14 q 46 37 137 -14 l 46 220 q 250 147 157 147 q 330 176 303 147 q 357 256 357 205 q 325 346 357 305 q 220 437 293 387 q 123 522 156 481 q 72 612 90 562 q 54 729 54 663 q 125 931 54 857 q 315 1006 196 1006 q 534 942 429 1006 l 473 794 q 405 828 441 813 q 329 843 370 843 q 260 813 284 843 q 236 733 236 784 q 265 646 236 683 q 366 561 294 608 q 501 428 463 496 q 539 273 539 360 m 423 1071 q 295 1192 358 1120 q 169 1071 235 1124 l 55 1071 l 55 1089 q 202 1293 175 1240 l 390 1293 q 537 1089 422 1234 l 537 1071 l 423 1071 z "},"ŝ":{"ha":519,"x_min":24,"x_max":507,"o":"m 482 221 q 417 48 482 111 q 227 -14 353 -14 q 41 31 115 -14 l 41 187 q 129 144 79 161 q 216 127 178 127 q 280 148 258 127 q 302 203 302 169 q 279 263 302 237 q 195 326 256 289 q 77 430 113 375 q 41 561 41 486 q 107 713 41 657 q 289 770 174 770 q 478 717 389 770 l 419 587 q 292 627 347 627 q 240 608 257 627 q 222 564 222 590 q 244 509 222 533 q 323 450 265 486 q 422 378 394 408 q 467 310 451 348 q 482 221 482 272 m 393 842 q 264 962 328 890 q 138 842 204 895 l 24 842 l 24 860 q 172 1064 144 1011 l 359 1064 q 507 860 391 1005 l 507 842 l 393 842 z "},"Ş":{"ha":574,"x_min":46,"x_max":539,"o":"m 539 273 q 469 60 539 134 q 267 -14 399 -14 q 46 37 137 -14 l 46 220 q 250 147 157 147 q 330 176 303 147 q 357 256 357 205 q 325 346 357 305 q 220 437 293 387 q 123 522 156 481 q 72 612 90 562 q 54 729 54 663 q 125 931 54 857 q 315 1006 196 1006 q 534 942 429 1006 l 473 794 q 405 828 441 813 q 329 843 370 843 q 260 813 284 843 q 236 733 236 784 q 265 646 236 683 q 366 561 294 608 q 501 428 463 496 q 539 273 539 360 m 415 -176 q 367 -291 415 -249 q 218 -334 319 -334 q 129 -319 168 -334 l 129 -215 q 211 -227 170 -227 q 271 -182 271 -227 q 164 -107 271 -125 l 218 0 l 335 0 l 310 -52 q 386 -94 356 -63 q 415 -176 415 -125 z "},"ş":{"ha":519,"x_min":41,"x_max":482,"o":"m 482 221 q 417 48 482 111 q 227 -14 353 -14 q 41 31 115 -14 l 41 187 q 129 144 79 161 q 216 127 178 127 q 280 148 258 127 q 302 203 302 169 q 279 263 302 237 q 195 326 256 289 q 77 430 113 375 q 41 561 41 486 q 107 713 41 657 q 289 770 174 770 q 478 717 389 770 l 419 587 q 292 627 347 627 q 240 608 257 627 q 222 564 222 590 q 244 509 222 533 q 323 450 265 486 q 422 378 394 408 q 467 310 451 348 q 482 221 482 272 m 383 -176 q 335 -291 383 -249 q 186 -334 287 -334 q 97 -319 136 -334 l 97 -215 q 179 -227 138 -227 q 239 -182 239 -227 q 132 -107 239 -125 l 186 0 l 303 0 l 278 -52 q 354 -94 324 -63 q 383 -176 383 -125 z "},"Š":{"ha":574,"x_min":46,"x_max":539,"o":"m 539 273 q 469 60 539 134 q 267 -14 399 -14 q 46 37 137 -14 l 46 220 q 250 147 157 147 q 330 176 303 147 q 357 256 357 205 q 325 346 357 305 q 220 437 293 387 q 123 522 156 481 q 72 612 90 562 q 54 729 54 663 q 125 931 54 857 q 315 1006 196 1006 q 534 942 429 1006 l 473 794 q 405 828 441 813 q 329 843 370 843 q 260 813 284 843 q 236 733 236 784 q 265 646 236 683 q 366 561 294 608 q 501 428 463 496 q 539 273 539 360 m 537 1293 l 537 1275 q 390 1071 425 1134 l 202 1071 q 55 1275 172 1126 l 55 1293 l 169 1293 q 298 1173 233 1246 q 423 1293 361 1242 l 537 1293 z "},"š":{"ha":519,"x_min":19,"x_max":501,"o":"m 482 221 q 417 48 482 111 q 227 -14 353 -14 q 41 31 115 -14 l 41 187 q 129 144 79 161 q 216 127 178 127 q 280 148 258 127 q 302 203 302 169 q 279 263 302 237 q 195 326 256 289 q 77 430 113 375 q 41 561 41 486 q 107 713 41 657 q 289 770 174 770 q 478 717 389 770 l 419 587 q 292 627 347 627 q 240 608 257 627 q 222 564 222 590 q 244 509 222 533 q 323 450 265 486 q 422 378 394 408 q 467 310 451 348 q 482 221 482 272 m 501 1064 l 501 1046 q 354 842 389 905 l 166 842 q 19 1046 136 897 l 19 1064 l 133 1064 q 262 943 197 1017 q 387 1064 325 1013 l 501 1064 z "},"Ț":{"ha":600,"x_min":18,"x_max":582,"o":"m 392 0 l 208 0 l 208 829 l 18 829 l 18 991 l 582 991 l 582 829 l 392 829 l 392 0 m 168 -289 q 195 -184 182 -244 q 213 -85 208 -124 l 391 -85 l 391 -98 q 278 -307 339 -218 l 168 -307 l 168 -289 z "},"ț":{"ha":450,"x_min":22,"x_max":421,"o":"m 339 139 q 421 158 377 139 l 421 17 q 289 -14 377 -14 q 143 45 191 -14 q 96 221 96 104 l 96 612 l 22 612 l 22 693 l 117 758 l 163 918 l 278 918 l 278 755 l 415 755 l 415 612 l 278 612 l 278 215 q 339 139 278 139 m 113 -289 q 139 -184 126 -244 q 157 -85 153 -124 l 335 -85 l 335 -98 q 222 -307 283 -218 l 113 -307 l 113 -289 z "},"Ť":{"ha":600,"x_min":18,"x_max":582,"o":"m 392 0 l 208 0 l 208 829 l 18 829 l 18 991 l 582 991 l 582 829 l 392 829 l 392 0 m 541 1293 l 541 1275 q 394 1071 429 1134 l 206 1071 q 59 1275 176 1126 l 59 1293 l 173 1293 q 302 1173 237 1246 q 427 1293 365 1242 l 541 1293 z "},"ť":{"ha":529,"x_min":22,"x_max":581,"o":"m 339 139 q 421 158 377 139 l 421 17 q 289 -14 377 -14 q 143 45 191 -14 q 96 221 96 104 l 96 612 l 22 612 l 22 693 l 117 758 l 163 918 l 278 918 l 278 755 l 415 755 l 415 612 l 278 612 l 278 215 q 339 139 278 139 m 361 862 q 403 1066 392 977 l 581 1066 l 581 1053 q 471 844 530 937 l 361 844 l 361 862 z "},"Ŧ":{"ha":600,"x_min":18,"x_max":582,"o":"m 392 0 l 208 0 l 208 414 l 81 414 l 81 572 l 208 572 l 208 829 l 18 829 l 18 991 l 582 991 l 582 829 l 392 829 l 392 572 l 518 572 l 518 414 l 392 414 l 392 0 z "},"ŧ":{"ha":450,"x_min":22,"x_max":421,"o":"m 339 139 q 421 158 377 139 l 421 17 q 289 -14 377 -14 q 143 45 191 -14 q 96 221 96 104 l 96 347 l 22 347 l 22 475 l 96 475 l 96 612 l 22 612 l 22 693 l 117 758 l 163 918 l 278 918 l 278 755 l 415 755 l 415 612 l 278 612 l 278 475 l 401 475 l 401 347 l 278 347 l 278 215 q 339 139 278 139 z "},"Ũ":{"ha":781,"x_min":83,"x_max":697,"o":"m 697 991 l 697 350 q 617 80 697 173 q 386 -14 537 -14 q 161 79 238 -14 q 83 353 83 172 l 83 991 l 267 991 l 267 339 q 392 150 267 150 q 482 198 450 150 q 514 335 514 246 l 514 991 l 697 991 m 309 1143 q 276 1127 288 1143 q 256 1069 263 1112 l 161 1069 q 207 1223 168 1173 q 309 1274 246 1274 q 362 1262 338 1274 q 406 1238 385 1251 q 445 1213 426 1224 q 484 1202 464 1202 q 518 1219 507 1202 q 536 1275 528 1237 l 631 1275 q 584 1121 624 1172 q 483 1071 545 1071 q 430 1082 453 1071 q 386 1107 406 1093 q 348 1132 366 1121 q 309 1143 330 1143 z "},"ũ":{"ha":704,"x_min":69,"x_max":629,"o":"m 485 0 l 463 97 l 453 97 q 381 16 428 45 q 275 -14 335 -14 q 121 56 174 -14 q 69 262 69 125 l 69 755 l 252 755 l 252 306 q 271 181 252 223 q 335 139 291 139 q 420 197 393 139 q 447 393 447 256 l 447 755 l 629 755 l 629 0 l 485 0 m 270 914 q 236 898 249 914 q 217 840 224 882 l 121 840 q 168 994 129 944 q 270 1044 207 1044 q 322 1033 299 1044 q 366 1008 346 1022 q 406 984 387 995 q 445 972 425 972 q 478 990 468 972 q 496 1046 489 1008 l 592 1046 q 545 892 585 943 q 444 842 505 842 q 390 853 414 842 q 347 878 367 864 q 309 903 327 892 q 270 914 290 914 z "},"Ū":{"ha":781,"x_min":83,"x_max":697,"o":"m 697 991 l 697 350 q 617 80 697 173 q 386 -14 537 -14 q 161 79 238 -14 q 83 353 83 172 l 83 991 l 267 991 l 267 339 q 392 150 267 150 q 482 198 450 150 q 514 335 514 246 l 514 991 l 697 991 m 185 1230 l 596 1230 l 596 1095 l 185 1095 l 185 1230 z "},"ū":{"ha":704,"x_min":69,"x_max":629,"o":"m 485 0 l 463 97 l 453 97 q 381 16 428 45 q 275 -14 335 -14 q 121 56 174 -14 q 69 262 69 125 l 69 755 l 252 755 l 252 306 q 271 181 252 223 q 335 139 291 139 q 420 197 393 139 q 447 393 447 256 l 447 755 l 629 755 l 629 0 l 485 0 m 145 1000 l 556 1000 l 556 865 l 145 865 l 145 1000 z "},"Ŭ":{"ha":781,"x_min":83,"x_max":697,"o":"m 697 991 l 697 350 q 617 80 697 173 q 386 -14 537 -14 q 161 79 238 -14 q 83 353 83 172 l 83 991 l 267 991 l 267 339 q 392 150 267 150 q 482 198 450 150 q 514 335 514 246 l 514 991 l 697 991 m 600 1292 q 537 1128 592 1185 q 387 1071 481 1071 q 236 1129 288 1071 q 179 1292 183 1187 l 288 1292 q 312 1225 292 1244 q 389 1207 332 1207 q 463 1226 441 1207 q 490 1292 484 1246 l 600 1292 z "},"ŭ":{"ha":704,"x_min":69,"x_max":629,"o":"m 485 0 l 463 97 l 453 97 q 381 16 428 45 q 275 -14 335 -14 q 121 56 174 -14 q 69 262 69 125 l 69 755 l 252 755 l 252 306 q 271 181 252 223 q 335 139 291 139 q 420 197 393 139 q 447 393 447 256 l 447 755 l 629 755 l 629 0 l 485 0 m 560 1063 q 497 899 553 956 q 348 842 442 842 q 196 900 249 842 q 140 1063 144 958 l 248 1063 q 273 996 253 1015 q 349 978 293 978 q 423 997 402 978 q 451 1063 444 1017 l 560 1063 z "},"Ů":{"ha":781,"x_min":83,"x_max":697,"o":"m 697 991 l 697 350 q 617 80 697 173 q 386 -14 537 -14 q 161 79 238 -14 q 83 353 83 172 l 83 991 l 267 991 l 267 339 q 392 150 267 150 q 482 198 450 150 q 514 335 514 246 l 514 991 l 697 991 m 557 1230 q 510 1113 557 1157 q 387 1069 463 1069 q 267 1112 313 1069 q 222 1228 222 1154 q 267 1344 222 1301 q 387 1386 313 1386 q 509 1343 461 1386 q 557 1230 557 1299 m 455 1228 q 436 1278 455 1259 q 387 1296 416 1296 q 339 1278 358 1296 q 319 1228 319 1259 q 336 1178 319 1196 q 387 1160 353 1160 q 436 1178 416 1160 q 455 1228 455 1196 z "},"ů":{"ha":704,"x_min":69,"x_max":629,"o":"m 485 0 l 463 97 l 453 97 q 381 16 428 45 q 275 -14 335 -14 q 121 56 174 -14 q 69 262 69 125 l 69 755 l 252 755 l 252 306 q 271 181 252 223 q 335 139 291 139 q 420 197 393 139 q 447 393 447 256 l 447 755 l 629 755 l 629 0 l 485 0 m 517 1000 q 470 884 517 928 q 348 840 423 840 q 228 883 273 840 q 182 999 182 925 q 228 1115 182 1072 q 348 1157 273 1157 q 470 1114 422 1157 q 517 1000 517 1070 m 416 999 q 396 1048 416 1030 q 348 1067 377 1067 q 299 1048 319 1067 q 280 999 280 1030 q 297 949 280 967 q 348 930 314 930 q 396 949 377 930 q 416 999 416 967 z "},"Ű":{"ha":781,"x_min":83,"x_max":747,"o":"m 697 991 l 697 350 q 617 80 697 173 q 386 -14 537 -14 q 161 79 238 -14 q 83 353 83 172 l 83 991 l 267 991 l 267 339 q 392 150 267 150 q 482 198 450 150 q 514 335 514 246 l 514 991 l 697 991 m 174 1071 l 174 1089 q 239 1194 204 1131 q 292 1293 275 1256 l 481 1293 l 481 1279 q 391 1176 460 1244 q 276 1071 322 1108 l 174 1071 m 439 1071 l 439 1089 q 505 1194 469 1131 q 557 1293 540 1256 l 747 1293 l 747 1279 q 664 1185 730 1250 q 540 1071 599 1120 l 439 1071 z "},"ű":{"ha":704,"x_min":69,"x_max":699,"o":"m 485 0 l 463 97 l 453 97 q 381 16 428 45 q 275 -14 335 -14 q 121 56 174 -14 q 69 262 69 125 l 69 755 l 252 755 l 252 306 q 271 181 252 223 q 335 139 291 139 q 420 197 393 139 q 447 393 447 256 l 447 755 l 629 755 l 629 0 l 485 0 m 125 842 l 125 860 q 191 964 156 902 q 243 1064 227 1027 l 433 1064 l 433 1050 q 343 947 412 1015 q 228 842 274 879 l 125 842 m 391 842 l 391 860 q 456 964 421 902 q 509 1064 492 1027 l 699 1064 l 699 1050 q 616 956 682 1021 q 492 842 551 890 l 391 842 z "},"Ų":{"ha":781,"x_min":83,"x_max":697,"o":"m 697 991 l 697 350 q 617 80 697 173 q 386 -14 537 -14 q 161 79 238 -14 q 83 353 83 172 l 83 991 l 267 991 l 267 339 q 392 150 267 150 q 482 198 450 150 q 514 335 514 246 l 514 991 l 697 991 m 404 -155 q 418 -199 404 -185 q 453 -212 432 -212 q 507 -203 480 -212 l 507 -317 q 425 -328 460 -328 q 312 -288 355 -328 q 269 -179 269 -248 q 376 0 269 -83 l 490 0 q 404 -155 404 -89 z "},"ų":{"ha":704,"x_min":69,"x_max":643,"o":"m 485 0 l 463 97 l 453 97 q 381 16 428 45 q 275 -14 335 -14 q 121 56 174 -14 q 69 262 69 125 l 69 755 l 252 755 l 252 306 q 271 181 252 223 q 335 139 291 139 q 420 197 393 139 q 447 393 447 256 l 447 755 l 629 755 l 629 0 l 485 0 m 540 -155 q 554 -199 540 -185 q 589 -212 568 -212 q 643 -203 616 -212 l 643 -317 q 561 -328 596 -328 q 447 -288 490 -328 q 404 -179 404 -248 q 512 0 404 -83 l 626 0 q 540 -155 540 -89 z "},"Ŵ":{"ha":1100,"x_min":12,"x_max":1088,"o":"m 909 0 l 679 0 l 582 519 q 550 771 559 626 l 545 721 l 517 517 l 422 0 l 192 0 l 12 991 l 193 991 l 282 432 q 317 168 295 348 q 349 428 334 350 l 454 991 l 646 991 l 751 428 q 785 167 772 302 q 819 432 808 368 l 905 991 l 1088 991 l 909 0 m 678 1071 q 550 1192 613 1120 q 424 1071 490 1124 l 310 1071 l 310 1089 q 457 1293 430 1240 l 645 1293 q 792 1089 677 1234 l 792 1071 l 678 1071 z "},"ŵ":{"ha":1003,"x_min":14,"x_max":989,"o":"m 603 0 l 528 439 l 501 624 l 498 624 q 482 493 488 534 q 396 0 476 453 l 164 0 l 14 755 l 195 755 l 264 339 q 286 136 276 270 l 290 136 q 300 246 292 172 q 311 340 308 319 l 386 755 l 618 755 l 692 339 q 714 136 705 273 l 717 136 q 741 339 726 258 l 812 755 l 989 755 l 838 0 l 603 0 m 629 842 q 501 962 564 890 q 375 842 441 895 l 261 842 l 261 860 q 408 1064 381 1011 l 596 1064 q 743 860 628 1005 l 743 842 l 629 842 z "},"Ŷ":{"ha":652,"x_min":0,"x_max":652,"o":"m 326 600 l 458 991 l 652 991 l 416 397 l 416 0 l 235 0 l 235 390 l 0 991 l 195 991 l 326 600 m 454 1071 q 326 1192 389 1120 q 199 1071 265 1124 l 85 1071 l 85 1089 q 233 1293 205 1240 l 420 1293 q 568 1089 452 1234 l 568 1071 l 454 1071 z "},"ŷ":{"ha":619,"x_min":0,"x_max":619,"o":"m 0 755 l 187 755 l 292 329 q 317 170 307 272 l 321 170 q 327 228 321 186 q 336 293 332 269 q 429 755 339 317 l 619 755 l 403 -54 q 298 -269 363 -203 q 125 -334 233 -334 q 29 -322 71 -334 l 29 -171 q 92 -179 57 -179 q 211 -60 182 -179 l 224 -12 l 0 755 m 437 842 q 309 962 372 890 q 182 842 248 895 l 68 842 l 68 860 q 216 1064 189 1011 l 404 1064 q 551 860 435 1005 l 551 842 l 437 842 z "},"Ÿ":{"ha":652,"x_min":0,"x_max":652,"o":"m 326 600 l 458 991 l 652 991 l 416 397 l 416 0 l 235 0 l 235 390 l 0 991 l 195 991 l 326 600 m 102 1181 q 125 1245 102 1222 q 191 1268 149 1268 q 257 1244 233 1268 q 281 1181 281 1220 q 257 1118 281 1142 q 191 1095 233 1095 q 125 1117 149 1095 q 102 1181 102 1140 m 372 1181 q 395 1245 372 1221 q 462 1268 419 1268 q 528 1245 503 1268 q 552 1181 552 1222 q 528 1118 552 1141 q 462 1095 504 1095 q 396 1118 420 1095 q 372 1181 372 1141 z "},"Ź":{"ha":595,"x_min":29,"x_max":566,"o":"m 566 0 l 29 0 l 29 129 l 346 831 l 39 831 l 39 991 l 555 991 l 555 863 l 239 161 l 566 161 l 566 0 m 201 1071 l 201 1089 q 265 1192 229 1125 q 317 1293 302 1258 l 533 1293 l 533 1279 q 452 1185 517 1250 q 328 1071 388 1120 l 201 1071 z "},"ź":{"ha":496,"x_min":28,"x_max":484,"o":"m 468 0 l 28 0 l 28 115 l 260 610 l 43 610 l 43 755 l 458 755 l 458 628 l 233 146 l 468 146 l 468 0 m 152 842 l 152 860 q 216 962 180 896 q 269 1064 253 1029 l 484 1064 l 484 1050 q 404 956 468 1021 q 279 842 339 891 l 152 842 z "},"Ż":{"ha":595,"x_min":29,"x_max":566,"o":"m 566 0 l 29 0 l 29 129 l 346 831 l 39 831 l 39 991 l 555 991 l 555 863 l 239 161 l 566 161 l 566 0 m 192 1182 q 296 1279 192 1279 q 400 1182 400 1279 q 373 1109 400 1134 q 296 1085 346 1085 q 219 1109 245 1085 q 192 1182 192 1134 z "},"ż":{"ha":496,"x_min":28,"x_max":468,"o":"m 468 0 l 28 0 l 28 115 l 260 610 l 43 610 l 43 755 l 458 755 l 458 628 l 233 146 l 468 146 l 468 0 m 146 953 q 250 1050 146 1050 q 354 953 354 1050 q 327 880 354 905 q 250 856 300 856 q 173 880 199 856 q 146 953 146 905 z "},"Ž":{"ha":595,"x_min":29,"x_max":566,"o":"m 566 0 l 29 0 l 29 129 l 346 831 l 39 831 l 39 991 l 555 991 l 555 863 l 239 161 l 566 161 l 566 0 m 537 1293 l 537 1275 q 390 1071 425 1134 l 202 1071 q 55 1275 172 1126 l 55 1293 l 169 1293 q 298 1173 233 1246 q 423 1293 361 1242 l 537 1293 z "},"ž":{"ha":496,"x_min":9,"x_max":491,"o":"m 468 0 l 28 0 l 28 115 l 260 610 l 43 610 l 43 755 l 458 755 l 458 628 l 233 146 l 468 146 l 468 0 m 491 1064 l 491 1046 q 344 842 379 905 l 156 842 q 9 1046 126 897 l 9 1064 l 123 1064 q 252 943 187 1017 q 377 1064 315 1013 l 491 1064 z "},"ſ":{"ha":382,"x_min":77,"x_max":433,"o":"m 257 0 l 77 0 l 77 814 q 130 1001 77 939 q 297 1063 183 1063 q 433 1032 371 1063 l 386 895 q 317 911 352 911 q 271 887 286 911 q 257 812 257 863 l 257 0 z "},"ƒ":{"ha":643,"x_min":33,"x_max":607,"o":"m 150 -334 q 33 -318 89 -334 l 33 -167 q 113 -179 73 -179 q 181 -150 159 -179 q 203 -58 203 -121 l 203 554 l 90 554 l 90 646 l 203 699 l 203 757 q 259 945 203 884 q 441 1006 315 1006 q 607 975 535 1006 l 561 835 q 468 854 509 854 q 410 827 427 854 q 393 750 393 800 l 393 699 l 542 699 l 542 554 l 393 554 l 392 -82 q 330 -270 392 -205 q 150 -334 268 -334 z "},"Ǻ":{"ha":742,"x_min":0,"x_max":742,"o":"m 538 987 q 503 890 538 930 l 742 0 l 557 0 l 503 218 l 237 218 l 184 0 l 0 0 l 236 889 q 204 986 204 927 q 249 1101 204 1058 q 368 1145 293 1145 q 490 1101 442 1145 q 538 987 538 1058 m 468 382 q 393 690 408 621 q 371 791 377 760 q 328 593 367 770 l 275 382 l 468 382 m 292 1194 q 353 1259 319 1219 q 410 1331 387 1299 l 625 1331 l 625 1321 q 536 1254 608 1301 q 418 1182 465 1206 l 292 1182 l 292 1194 m 436 986 q 417 1036 436 1018 q 368 1054 397 1054 q 320 1036 338 1054 q 301 986 301 1018 q 374 920 301 920 q 418 938 401 920 q 436 986 436 956 z "},"ǻ":{"ha":650,"x_min":37,"x_max":590,"o":"m 257 1182 l 257 1193 q 323 1264 290 1224 q 375 1331 356 1304 l 590 1331 l 590 1322 q 506 1257 571 1301 q 383 1182 441 1212 l 257 1182 m 447 0 l 412 103 l 407 103 q 324 12 367 37 q 216 -14 281 -14 q 85 49 133 -14 q 37 222 37 111 q 103 400 37 342 q 298 464 168 458 l 397 468 l 397 521 q 307 628 397 628 q 153 575 241 628 l 89 700 q 334 771 201 771 q 516 702 454 771 q 579 507 579 633 l 579 0 l 447 0 m 399 354 l 343 351 q 253 316 283 348 q 224 221 224 284 q 290 127 224 127 q 369 172 340 127 q 399 290 399 216 l 399 354 m 503 989 q 455 873 503 917 q 334 829 408 829 q 214 872 259 829 q 170 987 170 915 q 215 1104 170 1061 q 334 1146 260 1146 q 455 1102 408 1146 q 503 989 503 1059 m 401 987 q 382 1037 401 1019 q 334 1054 363 1054 q 285 1037 304 1054 q 267 987 267 1019 q 283 938 267 956 q 334 920 300 920 q 382 938 363 920 q 401 987 401 956 z "},"Ǽ":{"ha":966,"x_min":0,"x_max":908,"o":"m 908 0 l 464 0 l 464 250 l 261 250 l 184 0 l 0 0 l 321 991 l 908 991 l 908 832 l 648 832 l 648 596 l 889 596 l 889 436 l 648 436 l 648 161 l 908 161 l 908 0 m 437 832 l 428 799 l 313 414 l 464 414 l 464 832 l 437 832 m 494 1071 l 494 1089 q 559 1192 522 1125 q 611 1293 595 1258 l 827 1293 l 827 1279 q 746 1185 810 1250 q 621 1071 682 1120 l 494 1071 z "},"ǽ":{"ha":981,"x_min":37,"x_max":937,"o":"m 697 -14 q 464 109 541 -14 q 374 16 425 45 q 252 -14 323 -14 q 92 46 147 -14 q 37 222 37 106 q 103 400 37 342 q 298 464 168 458 l 399 468 l 399 521 q 307 628 399 628 q 151 575 239 628 l 89 700 q 334 771 201 771 q 509 708 446 771 q 672 770 576 770 q 867 679 797 770 q 937 428 937 588 l 937 332 l 575 332 q 616 181 577 231 q 725 132 656 132 q 905 187 817 132 l 905 39 q 697 -14 819 -14 m 399 354 l 343 351 q 253 316 281 348 q 224 221 224 284 q 290 127 224 127 q 369 172 340 127 q 399 290 399 216 l 399 354 m 672 631 q 579 463 587 631 l 762 463 q 737 588 761 545 q 672 631 713 631 m 408 842 l 408 860 q 473 962 436 896 q 525 1064 509 1029 l 741 1064 l 741 1050 q 660 956 724 1021 q 535 842 595 891 l 408 842 z "},"Ǿ":{"ha":827,"x_min":57,"x_max":770,"o":"m 770 497 q 677 119 770 251 q 414 -14 585 -14 q 250 25 322 -14 l 203 -69 l 90 -17 l 155 110 q 57 498 57 241 q 149 876 57 745 q 415 1007 241 1007 q 586 961 508 1007 l 635 1057 l 747 1006 l 679 872 q 770 497 770 742 m 581 497 q 572 657 581 600 l 326 176 q 414 150 359 150 q 581 497 581 150 m 245 497 q 260 317 245 390 l 511 811 q 415 844 475 844 q 288 756 331 844 q 245 497 245 667 m 321 1071 l 321 1089 q 385 1192 349 1125 q 437 1293 422 1258 l 653 1293 l 653 1279 q 572 1185 637 1250 q 448 1071 508 1120 l 321 1071 z "},"ǿ":{"ha":686,"x_min":50,"x_max":636,"o":"m 636 379 q 557 90 636 193 q 342 -14 479 -14 q 229 11 279 -14 l 191 -65 l 81 -14 l 134 89 q 73 211 95 137 q 50 379 50 284 q 128 666 50 563 q 345 770 206 770 q 464 742 411 770 l 498 807 l 607 757 l 558 661 q 636 379 636 561 m 229 379 l 229 330 l 231 282 l 396 604 q 343 615 373 615 q 229 379 229 615 m 458 379 l 456 458 l 297 149 q 343 140 314 140 q 429 201 399 140 q 458 379 458 261 m 247 842 l 247 860 q 311 962 275 896 q 363 1064 348 1029 l 579 1064 l 579 1050 q 498 956 563 1021 q 374 842 434 891 l 247 842 z "},"Ș":{"ha":574,"x_min":46,"x_max":539,"o":"m 539 273 q 469 60 539 134 q 267 -14 399 -14 q 46 37 137 -14 l 46 220 q 250 147 157 147 q 330 176 303 147 q 357 256 357 205 q 325 346 357 305 q 220 437 293 387 q 123 522 156 481 q 72 612 90 562 q 54 729 54 663 q 125 931 54 857 q 315 1006 196 1006 q 534 942 429 1006 l 473 794 q 405 828 441 813 q 329 843 370 843 q 260 813 284 843 q 236 733 236 784 q 265 646 236 683 q 366 561 294 608 q 501 428 463 496 q 539 273 539 360 m 155 -289 q 181 -184 168 -244 q 199 -85 195 -124 l 377 -85 l 377 -98 q 264 -307 326 -218 l 155 -307 l 155 -289 z "},"ș":{"ha":519,"x_min":41,"x_max":482,"o":"m 482 221 q 417 48 482 111 q 227 -14 353 -14 q 41 31 115 -14 l 41 187 q 129 144 79 161 q 216 127 178 127 q 280 148 258 127 q 302 203 302 169 q 279 263 302 237 q 195 326 256 289 q 77 430 113 375 q 41 561 41 486 q 107 713 41 657 q 289 770 174 770 q 478 717 389 770 l 419 587 q 292 627 347 627 q 240 608 257 627 q 222 564 222 590 q 244 509 222 533 q 323 450 265 486 q 422 378 394 408 q 467 310 451 348 q 482 221 482 272 m 121 -289 q 148 -184 135 -244 q 166 -85 161 -124 l 344 -85 l 344 -98 q 231 -307 292 -218 l 121 -307 l 121 -289 z "},"ˆ":{"ha":770,"x_min":143,"x_max":625,"o":"m 511 842 q 383 962 446 890 q 257 842 323 895 l 143 842 l 143 860 q 290 1064 263 1011 l 478 1064 q 625 860 510 1005 l 625 842 l 511 842 z "},"ˇ":{"ha":770,"x_min":143,"x_max":625,"o":"m 625 1064 l 625 1046 q 478 842 513 905 l 290 842 q 143 1046 260 897 l 143 1064 l 257 1064 q 386 943 321 1017 q 511 1064 449 1013 l 625 1064 z "},"ˉ":{"ha":736,"x_min":163,"x_max":574,"o":"m 163 1000 l 574 1000 l 574 865 l 163 865 l 163 1000 z "},"˘":{"ha":764,"x_min":171,"x_max":591,"o":"m 591 1063 q 529 899 584 956 q 379 842 473 842 q 228 900 280 842 q 171 1063 175 958 l 279 1063 q 304 996 284 1015 q 380 978 324 978 q 454 997 433 978 q 482 1063 475 1017 l 591 1063 z "},"˙":{"ha":386,"x_min":89,"x_max":297,"o":"m 89 953 q 193 1050 89 1050 q 297 953 297 1050 q 270 880 297 905 q 193 856 243 856 q 116 880 142 856 q 89 953 89 905 z "},"˚":{"ha":757,"x_min":211,"x_max":546,"o":"m 546 1000 q 499 884 546 928 q 376 840 452 840 q 256 883 302 840 q 211 999 211 925 q 256 1115 211 1072 q 376 1157 302 1157 q 498 1114 450 1157 q 546 1000 546 1070 m 444 999 q 425 1048 444 1030 q 376 1067 406 1067 q 328 1048 347 1067 q 309 999 309 1030 q 326 949 309 967 q 376 930 342 930 q 425 949 406 930 q 444 999 444 967 z "},"˛":{"ha":278,"x_min":20,"x_max":258,"o":"m 155 -155 q 169 -199 155 -185 q 204 -212 183 -212 q 258 -203 231 -212 l 258 -317 q 176 -328 212 -328 q 63 -288 106 -328 q 20 -179 20 -248 q 127 0 20 -83 l 241 0 q 155 -155 155 -89 z "},"˜":{"ha":770,"x_min":150,"x_max":621,"o":"m 298 914 q 265 898 277 914 q 245 840 252 882 l 150 840 q 196 994 157 944 q 298 1044 235 1044 q 351 1033 328 1044 q 395 1008 374 1022 q 434 984 415 995 q 473 972 453 972 q 507 990 496 972 q 525 1046 517 1008 l 621 1046 q 573 892 613 943 q 472 842 534 842 q 419 853 442 842 q 375 878 395 864 q 337 903 355 892 q 298 914 319 914 z "},"˝":{"ha":779,"x_min":103,"x_max":676,"o":"m 103 842 l 103 860 q 169 964 134 902 q 221 1064 204 1027 l 411 1064 l 411 1050 q 320 947 389 1015 q 205 842 252 879 l 103 842 m 368 842 l 368 860 q 434 964 399 902 q 486 1064 469 1027 l 676 1064 l 676 1050 q 594 956 659 1021 q 469 842 528 890 l 368 842 z "},"΄":{"ha":745,"x_min":292,"x_max":518,"o":"m 292 863 q 340 1063 321 949 l 518 1063 l 518 1046 q 403 842 479 962 l 292 842 l 292 863 z "},"΅":{"ha":774,"x_min":125,"x_max":648,"o":"m 319 942 l 319 960 q 366 1164 351 1065 l 536 1164 l 536 1150 q 406 942 492 1057 l 319 942 m 125 951 q 148 1018 125 998 q 207 1039 170 1039 q 268 1018 243 1039 q 292 951 292 998 q 268 886 292 907 q 207 865 243 865 q 148 886 170 865 q 125 951 125 907 m 481 951 q 566 1039 481 1039 q 625 1018 601 1039 q 648 951 648 997 q 625 886 648 907 q 566 865 601 865 q 504 886 527 865 q 481 951 481 907 z "},"Ά":{"ha":764,"x_min":-26,"x_max":764,"o":"m 579 0 l 522 250 l 264 250 l 207 0 l 22 0 l 268 996 l 518 996 l 764 0 l 579 0 m 488 414 l 435 644 q 413 750 430 665 q 393 863 397 834 q 371 734 385 804 q 300 414 357 664 l 488 414 m -26 791 q 23 991 3 878 l 201 991 l 201 975 q 85 770 162 890 l -26 770 l -26 791 z "},"·":{"ha":375,"x_min":75,"x_max":300,"o":"m 75 490 q 103 572 75 543 q 187 602 132 602 q 271 573 243 602 q 300 490 300 544 q 270 408 300 437 q 187 379 241 379 q 104 409 132 379 q 75 490 75 438 z "},"Έ":{"ha":760,"x_min":-26,"x_max":703,"o":"m 703 0 l 256 0 l 256 991 l 703 991 l 703 832 l 440 832 l 440 596 l 684 596 l 684 436 l 440 436 l 440 161 l 703 161 l 703 0 m -26 791 q 23 991 3 878 l 201 991 l 201 975 q 85 770 162 890 l -26 770 l -26 791 z "},"Ή":{"ha":965,"x_min":-26,"x_max":878,"o":"m 878 0 l 693 0 l 693 435 l 450 435 l 450 0 l 265 0 l 265 991 l 450 991 l 450 597 l 693 597 l 693 991 l 878 991 l 878 0 m -26 791 q 23 991 3 878 l 201 991 l 201 975 q 85 770 162 890 l -26 770 l -26 791 z "},"Ό":{"ha":942,"x_min":-12,"x_max":885,"o":"m 885 497 q 793 119 885 251 q 529 -14 701 -14 q 264 118 357 -14 q 172 498 172 250 q 264 876 172 745 q 530 1007 357 1007 q 793 875 702 1007 q 885 497 885 743 m 361 497 q 404 239 361 328 q 529 150 446 150 q 696 497 696 150 q 530 844 696 844 q 404 756 446 844 q 361 497 361 667 m -12 791 q 37 991 17 878 l 214 991 l 214 975 q 99 770 176 890 l -12 770 l -12 791 z "},"Ύ":{"ha":878,"x_min":-38,"x_max":878,"o":"m 553 600 l 685 991 l 878 991 l 643 397 l 643 0 l 461 0 l 461 390 l 227 991 l 421 991 l 553 600 m -38 791 q 11 991 -9 878 l 189 991 l 189 975 q 73 770 150 890 l -38 770 l -38 791 z "},"Ώ":{"ha":954,"x_min":-12,"x_max":929,"o":"m 537 844 q 409 768 448 844 q 370 549 370 692 q 398 325 370 416 q 490 160 427 233 l 490 0 l 146 0 l 146 164 l 342 164 q 180 574 180 319 q 275 891 180 774 q 537 1007 370 1007 q 798 891 703 1007 q 893 572 893 775 q 734 164 893 320 l 929 164 l 929 0 l 587 0 l 587 160 q 676 322 648 230 q 704 550 704 414 q 665 769 704 693 q 537 844 625 844 m -12 791 q 37 991 17 878 l 214 991 l 214 975 q 99 770 176 890 l -12 770 l -12 791 z "},"ΐ":{"ha":397,"x_min":-94,"x_max":429,"o":"m 257 755 l 257 228 q 272 161 257 183 q 313 139 288 139 q 378 151 340 139 l 378 7 q 268 -14 329 -14 q 121 43 168 -14 q 75 222 75 99 l 75 755 l 257 755 m 100 942 l 100 960 q 146 1164 132 1065 l 317 1164 l 317 1150 q 186 942 273 1057 l 100 942 m -94 951 q -72 1018 -94 998 q -12 1039 -49 1039 q 48 1018 24 1039 q 73 951 73 998 q 48 886 73 907 q -12 865 24 865 q -72 886 -49 865 q -94 951 -94 907 m 262 951 q 347 1039 262 1039 q 406 1018 382 1039 q 429 951 429 997 q 406 886 429 907 q 347 865 382 865 q 285 886 308 865 q 262 951 262 907 z "},"Α":{"ha":742,"x_min":0,"x_max":742,"o":"m 557 0 l 500 250 l 241 250 l 184 0 l 0 0 l 245 996 l 496 996 l 742 0 l 557 0 m 465 414 l 412 644 q 391 750 408 665 q 371 863 374 834 q 349 734 362 804 q 278 414 335 664 l 465 414 z "},"Β":{"ha":704,"x_min":87,"x_max":656,"o":"m 87 991 l 340 991 q 566 931 495 991 q 636 741 636 871 q 599 596 636 654 q 497 526 562 538 l 497 519 q 618 441 581 498 q 656 288 656 383 q 584 76 656 153 q 386 0 511 0 l 87 0 l 87 991 m 261 593 l 346 593 q 428 624 404 593 q 452 717 452 655 q 425 805 452 779 q 339 832 397 832 l 261 832 l 261 593 m 261 439 l 261 161 l 354 161 q 440 197 412 161 q 468 306 468 232 q 351 439 468 439 l 261 439 z "},"Γ":{"ha":555,"x_min":87,"x_max":530,"o":"m 530 991 l 530 832 l 271 832 l 271 0 l 87 0 l 87 991 l 530 991 z "},"Δ":{"ha":736,"x_min":24,"x_max":713,"o":"m 24 109 l 241 996 l 493 996 l 713 109 l 713 0 l 24 0 l 24 109 m 367 859 q 321 624 342 708 l 216 163 l 517 163 q 380 784 389 740 q 367 859 370 827 z "},"Ε":{"ha":591,"x_min":87,"x_max":534,"o":"m 534 0 l 87 0 l 87 991 l 534 991 l 534 832 l 272 832 l 272 596 l 515 596 l 515 436 l 272 436 l 272 161 l 534 161 l 534 0 z "},"Ζ":{"ha":595,"x_min":29,"x_max":566,"o":"m 566 0 l 29 0 l 29 129 l 346 831 l 39 831 l 39 991 l 555 991 l 555 863 l 239 161 l 566 161 l 566 0 z "},"Η":{"ha":787,"x_min":87,"x_max":700,"o":"m 700 0 l 515 0 l 515 435 l 272 435 l 272 0 l 87 0 l 87 991 l 272 991 l 272 597 l 515 597 l 515 991 l 700 991 l 700 0 z "},"Θ":{"ha":827,"x_min":57,"x_max":770,"o":"m 307 585 l 519 585 l 519 424 l 307 424 l 307 585 m 770 497 q 677 119 770 251 q 414 -14 585 -14 q 149 118 241 -14 q 57 498 57 250 q 149 876 57 745 q 415 1007 241 1007 q 678 875 587 1007 q 770 497 770 743 m 245 497 q 288 239 245 328 q 414 150 331 150 q 581 497 581 150 q 415 844 581 844 q 288 756 331 844 q 245 497 245 667 z "},"Κ":{"ha":705,"x_min":87,"x_max":705,"o":"m 705 0 l 509 0 l 346 424 l 272 350 l 272 0 l 87 0 l 87 991 l 272 991 l 272 500 l 336 648 l 505 991 l 703 991 l 473 562 l 705 0 z "},"Λ":{"ha":700,"x_min":0,"x_max":700,"o":"m 186 0 l 0 0 l 233 991 l 468 991 l 700 0 l 514 0 l 385 606 q 369 694 380 626 q 350 828 358 763 q 314 606 345 779 l 186 0 z "},"Μ":{"ha":1089,"x_min":87,"x_max":1002,"o":"m 441 0 l 253 844 l 245 844 q 258 665 258 747 l 258 0 l 87 0 l 87 991 l 371 991 l 541 212 l 546 212 l 714 991 l 1002 991 l 1002 0 l 827 0 l 827 672 q 836 843 827 755 l 831 843 l 643 0 l 441 0 z "},"Ν":{"ha":869,"x_min":87,"x_max":782,"o":"m 782 0 l 557 0 l 250 718 l 241 718 q 258 542 258 636 l 258 0 l 87 0 l 87 991 l 314 991 l 618 281 l 625 281 q 612 450 612 352 l 612 991 l 782 991 l 782 0 z "},"Ξ":{"ha":568,"x_min":39,"x_max":529,"o":"m 102 596 l 467 596 l 467 436 l 102 436 l 102 596 m 60 991 l 509 991 l 509 832 l 60 832 l 60 991 m 529 161 l 529 0 l 39 0 l 39 161 l 529 161 z "},"Ο":{"ha":827,"x_min":57,"x_max":770,"o":"m 770 497 q 677 119 770 251 q 414 -14 585 -14 q 149 118 241 -14 q 57 498 57 250 q 149 876 57 745 q 415 1007 241 1007 q 678 875 587 1007 q 770 497 770 743 m 245 497 q 288 239 245 328 q 414 150 331 150 q 581 497 581 150 q 415 844 581 844 q 288 756 331 844 q 245 497 245 667 z "},"Π":{"ha":787,"x_min":87,"x_max":700,"o":"m 700 0 l 517 0 l 517 829 l 272 829 l 272 0 l 87 0 l 87 991 l 700 991 l 700 0 z "},"Ρ":{"ha":665,"x_min":87,"x_max":628,"o":"m 628 686 q 548 444 628 528 q 318 359 469 359 l 272 359 l 272 0 l 87 0 l 87 991 l 339 991 q 628 686 628 991 m 272 519 l 307 519 q 408 557 375 519 q 441 679 441 594 q 411 794 441 757 q 317 832 380 832 l 272 832 l 272 519 z "},"Σ":{"ha":597,"x_min":49,"x_max":557,"o":"m 49 0 l 49 153 l 265 519 l 54 843 l 54 991 l 528 991 l 528 832 l 330 832 q 244 838 317 832 l 452 521 l 232 154 l 339 161 l 557 161 l 557 0 l 49 0 z "},"Τ":{"ha":600,"x_min":18,"x_max":582,"o":"m 392 0 l 208 0 l 208 829 l 18 829 l 18 991 l 582 991 l 582 829 l 392 829 l 392 0 z "},"Υ":{"ha":652,"x_min":0,"x_max":652,"o":"m 326 600 l 458 991 l 652 991 l 416 397 l 416 0 l 235 0 l 235 390 l 0 991 l 195 991 l 326 600 z "},"Φ":{"ha":970,"x_min":50,"x_max":920,"o":"m 399 1006 l 572 1006 l 572 884 l 597 884 q 835 786 751 884 q 920 517 920 688 q 880 317 920 402 q 763 185 840 232 q 579 139 687 139 l 572 139 l 572 -14 l 399 -14 l 399 139 l 390 139 q 139 237 228 139 q 50 511 50 336 q 90 706 50 621 q 203 837 129 791 q 376 884 277 884 l 399 884 l 399 1006 m 572 278 l 578 278 q 691 340 651 278 q 730 515 730 403 q 694 685 730 626 q 590 743 658 743 l 572 743 l 572 278 m 399 743 l 379 743 q 275 683 311 743 q 239 515 239 623 q 279 341 239 404 q 392 278 319 278 l 399 278 l 399 743 z "},"Χ":{"ha":657,"x_min":0,"x_max":657,"o":"m 657 0 l 465 0 l 323 355 l 192 0 l 0 0 l 227 515 l 17 991 l 203 991 l 334 665 l 447 991 l 640 991 l 431 507 l 657 0 z "},"Ψ":{"ha":985,"x_min":64,"x_max":920,"o":"m 579 0 l 406 0 l 406 297 l 385 297 q 144 386 224 297 q 64 664 64 475 l 64 991 l 237 991 l 237 667 q 274 504 237 553 q 392 454 310 454 l 406 454 l 406 991 l 579 991 l 579 454 l 593 454 q 710 506 673 454 q 747 664 747 557 l 747 991 l 920 991 l 920 667 q 840 387 920 477 q 599 297 761 297 l 579 297 l 579 0 z "},"Ω":{"ha":833,"x_min":25,"x_max":808,"o":"m 416 844 q 288 768 328 844 q 249 549 249 692 q 277 325 249 416 q 370 160 306 233 l 370 0 l 25 0 l 25 164 l 221 164 q 60 574 60 319 q 154 891 60 774 q 416 1007 249 1007 q 677 891 583 1007 q 772 572 772 775 q 614 164 772 320 l 808 164 l 808 0 l 467 0 l 467 160 q 555 322 527 230 q 583 550 583 414 q 544 769 583 693 q 416 844 505 844 z "},"Ϋ":{"ha":652,"x_min":0,"x_max":652,"o":"m 326 600 l 458 991 l 652 991 l 416 397 l 416 0 l 235 0 l 235 390 l 0 991 l 195 991 l 326 600 m 102 1181 q 125 1245 102 1222 q 191 1268 149 1268 q 257 1244 233 1268 q 281 1181 281 1220 q 257 1118 281 1142 q 191 1095 233 1095 q 125 1117 149 1095 q 102 1181 102 1140 m 372 1181 q 395 1245 372 1221 q 462 1268 419 1268 q 528 1245 503 1268 q 552 1181 552 1222 q 528 1118 552 1141 q 462 1095 504 1095 q 396 1118 420 1095 q 372 1181 372 1141 z "},"ά":{"ha":718,"x_min":50,"x_max":696,"o":"m 281 -14 q 110 82 170 -14 q 50 370 50 178 q 114 666 50 562 q 296 770 178 770 q 391 744 353 770 q 463 656 429 719 l 469 656 q 510 757 482 713 l 659 757 q 627 621 641 709 q 614 450 614 532 l 614 225 q 624 164 614 182 q 660 146 635 146 q 696 153 677 146 l 696 4 q 658 -8 685 -3 q 612 -14 631 -14 q 517 14 552 -14 q 467 100 483 41 l 461 100 q 281 -14 397 -14 m 330 139 q 409 189 386 139 q 432 359 432 239 l 432 376 q 408 562 432 509 q 332 614 384 614 q 236 374 236 614 q 259 198 236 256 q 330 139 281 139 m 286 863 q 334 1063 315 949 l 512 1063 l 512 1046 q 397 842 473 962 l 286 842 l 286 863 z "},"έ":{"ha":585,"x_min":47,"x_max":547,"o":"m 428 461 l 428 326 l 355 326 q 256 301 286 326 q 227 227 227 275 q 353 135 227 135 q 538 187 444 135 l 538 36 q 443 0 499 13 q 323 -14 387 -14 q 120 43 193 -14 q 47 204 47 100 q 208 392 47 355 l 208 399 q 74 566 74 436 q 146 714 74 659 q 336 770 219 770 q 547 714 452 770 l 481 583 q 413 616 444 606 q 346 627 382 627 q 241 549 241 627 q 273 481 241 500 q 366 461 304 461 l 428 461 m 258 863 q 307 1063 287 949 l 484 1063 l 484 1046 q 369 842 446 962 l 258 842 l 258 863 z "},"ή":{"ha":704,"x_min":77,"x_max":635,"o":"m 453 -334 l 453 450 q 433 574 453 532 q 370 616 414 616 q 284 558 311 616 q 257 363 257 500 l 257 0 l 77 0 l 77 755 l 220 755 l 241 659 l 253 659 q 323 740 277 711 q 429 770 368 770 q 584 699 532 770 q 635 493 635 629 l 635 -334 l 453 -334 m 287 863 q 336 1063 316 949 l 513 1063 l 513 1046 q 398 842 475 962 l 287 842 l 287 863 z "},"ί":{"ha":397,"x_min":75,"x_max":378,"o":"m 257 755 l 257 228 q 272 161 257 183 q 313 139 288 139 q 378 151 340 139 l 378 7 q 268 -14 329 -14 q 121 43 168 -14 q 75 222 75 99 l 75 755 l 257 755 m 100 863 q 149 1063 130 949 l 327 1063 l 327 1046 q 212 842 288 962 l 100 842 l 100 863 z "},"ΰ":{"ha":701,"x_min":69,"x_max":646,"o":"m 345 -12 q 137 73 205 -12 q 69 332 69 157 l 69 755 l 252 755 l 252 330 q 275 186 252 231 q 351 140 298 140 q 437 208 411 140 q 464 415 464 275 q 422 755 464 567 l 603 755 q 636 573 626 652 q 646 410 646 494 q 345 -12 646 -12 m 281 942 l 281 960 q 328 1164 313 1065 l 498 1164 l 498 1150 q 368 942 454 1057 l 281 942 m 87 951 q 110 1018 87 998 q 169 1039 132 1039 q 230 1018 205 1039 q 254 951 254 998 q 230 886 254 907 q 169 865 205 865 q 110 886 132 865 q 87 951 87 907 m 443 951 q 528 1039 443 1039 q 587 1018 563 1039 q 610 951 610 997 q 587 886 610 907 q 528 865 563 865 q 466 886 489 865 q 443 951 443 907 z "},"α":{"ha":718,"x_min":50,"x_max":696,"o":"m 281 -14 q 110 82 170 -14 q 50 370 50 178 q 114 666 50 562 q 296 770 178 770 q 391 744 353 770 q 463 656 429 719 l 469 656 q 510 757 482 713 l 659 757 q 627 621 641 709 q 614 450 614 532 l 614 225 q 624 164 614 182 q 660 146 635 146 q 696 153 677 146 l 696 4 q 658 -8 685 -3 q 612 -14 631 -14 q 517 14 552 -14 q 467 100 483 41 l 461 100 q 281 -14 397 -14 m 330 139 q 409 189 386 139 q 432 359 432 239 l 432 376 q 408 562 432 509 q 332 614 384 614 q 236 374 236 614 q 259 198 236 256 q 330 139 281 139 z "},"β":{"ha":720,"x_min":77,"x_max":679,"o":"m 366 1063 q 568 992 495 1063 q 640 796 640 922 q 597 645 640 703 q 463 557 555 587 l 463 551 q 625 474 571 534 q 679 301 679 414 q 610 70 679 153 q 418 -14 541 -14 q 326 -3 363 -14 q 257 29 288 8 l 257 -334 l 77 -334 l 77 743 q 150 981 77 899 q 366 1063 224 1063 m 364 913 q 282 867 307 913 q 257 730 257 821 l 257 180 q 371 139 312 139 q 493 307 493 139 q 457 429 493 387 q 353 471 420 471 l 323 471 l 323 624 l 353 624 q 432 664 404 624 q 460 775 460 704 q 434 879 460 845 q 364 913 408 913 z "},"γ":{"ha":621,"x_min":1,"x_max":619,"o":"m 355 -334 l 175 -334 q 187 -189 175 -276 q 221 -11 199 -102 l 1 755 l 189 755 l 281 370 q 307 179 299 288 l 313 179 q 339 361 321 287 l 432 755 l 619 755 l 406 9 q 355 -334 359 -157 z "},"δ":{"ha":686,"x_min":50,"x_max":636,"o":"m 258 624 q 150 731 181 680 q 119 844 119 783 q 192 1003 119 944 q 390 1063 264 1063 q 504 1052 452 1063 q 629 1008 557 1040 l 574 869 q 393 920 473 920 q 298 851 298 920 q 319 792 298 818 q 439 692 340 766 q 590 529 545 613 q 636 336 636 446 q 558 78 636 169 q 340 -14 481 -14 q 129 71 208 -14 q 50 297 50 155 q 99 499 50 420 q 258 624 149 578 m 452 332 q 361 543 452 465 q 235 307 235 486 q 263 186 235 232 q 342 140 291 140 q 423 190 395 140 q 452 332 452 239 z "},"ε":{"ha":585,"x_min":47,"x_max":547,"o":"m 428 461 l 428 326 l 355 326 q 256 301 286 326 q 227 227 227 275 q 353 135 227 135 q 538 187 444 135 l 538 36 q 443 0 499 13 q 323 -14 387 -14 q 120 43 193 -14 q 47 204 47 100 q 208 392 47 355 l 208 399 q 74 566 74 436 q 146 714 74 659 q 336 770 219 770 q 547 714 452 770 l 481 583 q 413 616 444 606 q 346 627 382 627 q 241 549 241 627 q 273 481 241 500 q 366 461 304 461 l 428 461 z "},"ζ":{"ha":505,"x_min":50,"x_max":494,"o":"m 72 914 l 72 1055 l 490 1055 l 490 937 q 297 623 359 764 q 235 343 235 482 q 245 267 235 298 q 280 213 256 237 q 358 161 303 190 q 447 101 424 125 q 482 45 469 77 q 494 -31 494 14 q 471 -145 494 -85 q 407 -260 448 -205 l 233 -260 q 319 -60 319 -125 q 304 -16 319 -35 q 256 22 289 3 l 211 46 q 88 162 125 91 q 50 338 50 233 q 75 517 50 433 q 146 685 99 602 q 318 924 194 768 q 197 914 288 914 l 72 914 z "},"η":{"ha":704,"x_min":77,"x_max":635,"o":"m 453 -334 l 453 450 q 433 574 453 532 q 370 616 414 616 q 284 558 311 616 q 257 363 257 500 l 257 0 l 77 0 l 77 755 l 220 755 l 241 659 l 253 659 q 323 740 277 711 q 429 770 368 770 q 584 699 532 770 q 635 493 635 629 l 635 -334 l 453 -334 z "},"θ":{"ha":697,"x_min":50,"x_max":648,"o":"m 648 530 q 575 119 648 252 q 346 -14 501 -14 q 122 119 193 -14 q 50 530 50 251 q 123 939 50 808 q 351 1071 196 1071 q 577 940 505 1071 q 648 530 648 809 m 350 129 q 472 465 467 129 l 225 465 q 260 211 229 292 q 350 129 292 129 m 349 928 q 260 849 291 928 q 225 604 230 771 l 472 604 q 349 928 464 928 z "},"ι":{"ha":397,"x_min":75,"x_max":378,"o":"m 257 755 l 257 228 q 272 161 257 183 q 313 139 288 139 q 378 151 340 139 l 378 7 q 268 -14 329 -14 q 121 43 168 -14 q 75 222 75 99 l 75 755 l 257 755 z "},"κ":{"ha":654,"x_min":77,"x_max":653,"o":"m 449 755 l 640 755 l 449 447 l 653 0 l 464 0 l 328 319 l 257 256 l 257 0 l 77 0 l 77 755 l 257 755 l 257 561 l 249 400 l 307 514 l 449 755 z "},"λ":{"ha":699,"x_min":5,"x_max":693,"o":"m 5 0 l 253 747 l 241 791 q 199 882 224 857 q 119 907 173 907 q 62 899 88 907 l 62 1055 q 151 1067 109 1067 q 316 1012 256 1067 q 414 823 376 957 l 567 271 q 592 196 580 223 q 617 158 604 170 q 654 146 631 146 q 693 153 677 146 l 693 7 q 599 -14 651 -14 q 481 33 524 -14 q 415 171 438 80 l 366 370 q 338 546 347 442 l 332 546 q 298 374 312 416 l 186 0 l 5 0 z "},"μ":{"ha":704,"x_min":69,"x_max":629,"o":"m 252 281 q 272 171 252 203 q 335 139 292 139 q 420 197 393 139 q 447 393 447 256 l 447 755 l 629 755 l 629 0 l 485 0 l 463 97 l 452 97 q 317 -14 409 -14 q 245 14 277 -14 q 252 -171 252 -75 l 252 -334 l 69 -334 l 69 755 l 252 755 l 252 281 z "},"ν":{"ha":642,"x_min":0,"x_max":606,"o":"m 0 755 l 187 755 l 279 336 q 295 252 289 296 q 306 170 300 208 l 311 170 q 400 411 373 278 q 428 755 428 543 l 606 755 q 551 335 606 513 q 375 0 496 158 l 199 0 l 0 755 z "},"ξ":{"ha":505,"x_min":50,"x_max":494,"o":"m 50 302 q 96 458 50 397 q 224 549 142 519 l 224 555 q 89 732 89 593 q 127 848 89 802 q 245 922 165 895 q 121 914 148 914 l 61 914 l 61 1055 l 469 1055 l 469 922 l 463 922 q 323 873 378 922 q 268 742 268 824 q 295 645 268 674 q 382 616 321 616 l 447 616 l 447 484 l 375 484 q 235 309 235 484 q 246 248 235 273 q 279 204 258 223 q 358 154 300 185 q 443 98 418 121 q 481 43 468 74 q 494 -31 494 13 q 472 -143 494 -84 q 407 -260 449 -203 l 233 -260 q 295 -150 270 -204 q 319 -64 319 -96 q 297 -16 319 -35 q 232 26 275 3 q 125 100 161 64 q 70 186 90 137 q 50 302 50 235 z "},"ο":{"ha":686,"x_min":50,"x_max":636,"o":"m 636 379 q 557 90 636 193 q 342 -14 479 -14 q 189 34 255 -14 q 86 171 122 81 q 50 379 50 260 q 128 666 50 563 q 345 770 206 770 q 557 664 478 770 q 636 379 636 559 m 235 379 q 260 201 235 261 q 343 140 286 140 q 452 379 452 140 q 426 556 452 498 q 343 615 399 615 q 260 556 286 615 q 235 379 235 498 z "},"π":{"ha":796,"x_min":14,"x_max":771,"o":"m 705 139 q 765 150 724 139 l 765 5 q 663 -14 720 -14 q 514 42 561 -14 q 468 220 468 98 l 468 610 l 317 610 l 317 0 l 135 0 l 135 610 l 14 610 l 14 690 l 109 755 l 771 755 l 771 610 l 650 610 l 650 225 q 705 139 650 139 z "},"ρ":{"ha":689,"x_min":77,"x_max":639,"o":"m 639 379 q 574 87 639 187 q 393 -14 510 -14 q 315 1 346 -14 q 258 40 283 16 l 249 40 q 256 -68 254 -28 q 258 -142 258 -109 l 258 -334 l 77 -334 l 77 395 q 361 770 77 770 q 572 673 505 770 q 639 379 639 576 m 357 616 q 282 565 307 616 q 258 397 258 513 l 258 189 q 350 142 294 142 q 427 198 401 142 q 453 378 453 254 q 431 558 453 500 q 357 616 408 616 z "},"ς":{"ha":505,"x_min":50,"x_max":494,"o":"m 50 364 q 117 669 50 568 q 321 770 183 770 q 494 722 412 770 l 441 582 q 343 615 384 615 q 260 555 285 615 q 235 361 235 494 q 245 272 235 307 q 278 214 256 237 q 359 160 300 190 q 464 78 434 121 q 494 -31 494 35 q 470 -147 494 -85 q 407 -260 446 -210 l 233 -260 q 319 -62 319 -125 q 299 -12 319 -33 q 237 29 279 9 q 93 157 135 79 q 50 364 50 236 z "},"σ":{"ha":715,"x_min":50,"x_max":689,"o":"m 625 350 q 590 162 625 245 q 489 33 555 79 q 336 -14 424 -14 q 126 86 203 -14 q 50 355 50 186 q 359 755 50 755 l 689 755 l 689 614 l 528 614 q 625 350 625 509 m 235 367 q 261 198 235 256 q 336 140 287 140 q 440 361 440 140 q 429 501 440 444 q 390 614 418 559 l 358 614 q 262 556 290 614 q 235 367 235 499 z "},"τ":{"ha":554,"x_min":24,"x_max":529,"o":"m 349 610 l 349 224 q 414 139 349 139 q 496 158 452 139 l 496 17 q 364 -14 448 -14 q 215 45 263 -14 q 167 227 167 104 l 167 610 l 24 610 l 24 689 l 119 755 l 529 755 l 529 610 l 349 610 z "},"υ":{"ha":701,"x_min":69,"x_max":646,"o":"m 345 -12 q 137 73 205 -12 q 69 332 69 157 l 69 755 l 252 755 l 252 330 q 275 186 252 231 q 351 140 298 140 q 437 208 411 140 q 464 415 464 275 q 422 755 464 567 l 603 755 q 636 573 626 652 q 646 410 646 494 q 345 -12 646 -12 z "},"φ":{"ha":908,"x_min":50,"x_max":859,"o":"m 371 -334 l 371 -14 q 132 96 214 -3 q 50 376 50 195 q 175 765 50 587 l 321 688 q 245 518 264 587 q 227 372 227 450 q 266 197 227 257 q 371 127 305 136 l 371 497 q 430 698 371 629 q 603 766 489 766 q 793 673 728 766 q 859 399 859 580 q 778 101 859 205 q 538 -14 696 -3 l 538 -334 l 371 -334 m 682 395 q 662 566 682 504 q 603 628 641 628 q 538 501 538 628 l 538 127 q 645 204 607 136 q 682 395 682 272 z "},"χ":{"ha":701,"x_min":4,"x_max":684,"o":"m 107 764 q 209 742 170 764 q 276 675 249 721 q 328 533 303 629 l 361 403 l 504 755 l 684 755 l 439 232 l 522 -58 q 563 -151 543 -129 q 625 -174 583 -174 q 677 -167 646 -174 l 677 -322 q 595 -334 637 -334 q 491 -312 532 -334 q 421 -241 450 -290 q 370 -100 393 -193 l 334 41 l 183 -334 l 4 -334 l 257 222 l 178 492 q 151 563 163 539 q 122 595 138 586 q 77 604 105 604 q 24 597 58 604 l 24 753 q 107 764 65 764 z "},"ψ":{"ha":918,"x_min":69,"x_max":863,"o":"m 546 1055 l 546 127 l 549 127 q 650 197 613 127 q 688 416 688 267 q 646 755 688 569 l 819 755 q 863 411 863 564 q 546 -12 863 -12 l 546 -334 l 379 -334 l 379 -12 q 148 74 227 -12 q 69 334 69 159 l 69 755 l 244 755 l 244 330 q 279 179 244 231 q 379 127 314 127 l 379 1055 l 546 1055 z "},"ω":{"ha":922,"x_min":54,"x_max":868,"o":"m 637 -14 q 526 23 567 -14 q 464 123 485 60 l 458 123 q 396 23 437 60 q 285 -14 355 -14 q 114 87 173 -14 q 54 367 54 188 q 71 562 54 473 q 127 755 87 651 l 314 755 q 236 370 236 572 q 307 136 236 136 q 378 301 378 136 l 378 510 l 545 510 l 545 301 q 615 136 545 136 q 686 370 686 136 q 608 755 686 572 l 794 755 q 851 562 834 654 q 868 367 868 469 q 808 86 868 186 q 637 -14 747 -14 z "},"ϊ":{"ha":397,"x_min":-54,"x_max":397,"o":"m 257 755 l 257 228 q 272 161 257 183 q 313 139 288 139 q 378 151 340 139 l 378 7 q 268 -14 329 -14 q 121 43 168 -14 q 75 222 75 99 l 75 755 l 257 755 m -54 951 q -30 1016 -54 993 q 36 1039 -6 1039 q 102 1015 78 1039 q 126 951 126 991 q 102 889 126 913 q 36 865 78 865 q -30 888 -6 865 q -54 951 -54 911 m 216 951 q 240 1016 216 992 q 307 1039 264 1039 q 372 1016 348 1039 q 397 951 397 993 q 373 888 397 911 q 307 865 349 865 q 240 889 264 865 q 216 951 216 912 z "},"ϋ":{"ha":701,"x_min":69,"x_max":646,"o":"m 345 -12 q 137 73 205 -12 q 69 332 69 157 l 69 755 l 252 755 l 252 330 q 275 186 252 231 q 351 140 298 140 q 437 208 411 140 q 464 415 464 275 q 422 755 464 567 l 603 755 q 636 573 626 652 q 646 410 646 494 q 345 -12 646 -12 m 124 951 q 148 1016 124 993 q 214 1039 172 1039 q 280 1015 256 1039 q 304 951 304 991 q 280 889 304 913 q 214 865 256 865 q 148 888 172 865 q 124 951 124 911 m 394 951 q 418 1016 394 992 q 484 1039 441 1039 q 550 1016 526 1039 q 574 951 574 993 q 550 888 574 911 q 484 865 526 865 q 418 889 442 865 q 394 951 394 912 z "},"ό":{"ha":686,"x_min":50,"x_max":636,"o":"m 636 379 q 557 90 636 193 q 342 -14 479 -14 q 189 34 255 -14 q 86 171 122 81 q 50 379 50 260 q 128 666 50 563 q 345 770 206 770 q 557 664 478 770 q 636 379 636 559 m 235 379 q 260 201 235 261 q 343 140 286 140 q 452 379 452 140 q 426 556 452 498 q 343 615 399 615 q 260 556 286 615 q 235 379 235 498 m 279 863 q 328 1063 308 949 l 505 1063 l 505 1046 q 390 842 467 962 l 279 842 l 279 863 z "},"ύ":{"ha":701,"x_min":69,"x_max":646,"o":"m 345 -12 q 137 73 205 -12 q 69 332 69 157 l 69 755 l 252 755 l 252 330 q 275 186 252 231 q 351 140 298 140 q 437 208 411 140 q 464 415 464 275 q 422 755 464 567 l 603 755 q 636 573 626 652 q 646 410 646 494 q 345 -12 646 -12 m 275 863 q 324 1063 304 949 l 502 1063 l 502 1046 q 387 842 463 962 l 275 842 l 275 863 z "},"ώ":{"ha":922,"x_min":54,"x_max":868,"o":"m 637 -14 q 526 23 567 -14 q 464 123 485 60 l 458 123 q 396 23 437 60 q 285 -14 355 -14 q 114 87 173 -14 q 54 367 54 188 q 71 562 54 473 q 127 755 87 651 l 314 755 q 236 370 236 572 q 307 136 236 136 q 378 301 378 136 l 378 510 l 545 510 l 545 301 q 615 136 545 136 q 686 370 686 136 q 608 755 686 572 l 794 755 q 851 562 834 654 q 868 367 868 469 q 808 86 868 186 q 637 -14 747 -14 m 387 863 q 436 1063 416 949 l 614 1063 l 614 1046 q 498 842 575 962 l 387 842 l 387 863 z "},"Ё":{"ha":591,"x_min":87,"x_max":538,"o":"m 534 0 l 87 0 l 87 991 l 534 991 l 534 832 l 272 832 l 272 596 l 515 596 l 515 436 l 272 436 l 272 161 l 534 161 l 534 0 m 88 1181 q 112 1245 88 1222 q 178 1268 136 1268 q 244 1244 220 1268 q 268 1181 268 1220 q 244 1118 268 1142 q 178 1095 220 1095 q 112 1117 136 1095 q 88 1181 88 1140 m 358 1181 q 382 1245 358 1221 q 448 1268 406 1268 q 514 1245 490 1268 q 538 1181 538 1222 q 514 1118 538 1141 q 448 1095 490 1095 q 382 1118 406 1095 q 358 1181 358 1141 z "},"Ђ":{"ha":860,"x_min":18,"x_max":790,"o":"m 576 -12 q 476 4 523 -12 l 476 158 q 536 146 509 146 q 591 174 575 146 q 607 260 607 203 l 607 349 q 582 438 607 411 q 496 465 556 465 l 383 465 l 383 0 l 200 0 l 200 829 l 18 829 l 18 991 l 574 991 l 574 829 l 383 829 l 383 628 l 519 628 q 725 565 660 628 q 790 367 790 502 l 790 258 q 576 -12 790 -12 z "},"Ѓ":{"ha":555,"x_min":87,"x_max":530,"o":"m 530 991 l 530 832 l 271 832 l 271 0 l 87 0 l 87 991 l 530 991 m 198 1071 l 198 1089 q 262 1192 226 1125 q 315 1293 299 1258 l 530 1293 l 530 1279 q 450 1185 514 1250 q 325 1071 385 1120 l 198 1071 z "},"Є":{"ha":643,"x_min":57,"x_max":618,"o":"m 415 844 q 304 775 347 844 q 250 583 261 706 l 507 583 l 507 424 l 249 424 q 424 149 264 149 q 589 199 503 149 l 589 35 q 403 -14 516 -14 q 146 119 235 -14 q 57 494 57 252 q 150 871 57 736 q 406 1006 242 1006 q 511 990 460 1006 q 618 939 562 975 l 555 789 q 490 827 525 810 q 415 844 456 844 z "},"Ѕ":{"ha":574,"x_min":46,"x_max":539,"o":"m 539 273 q 469 60 539 134 q 267 -14 399 -14 q 46 37 137 -14 l 46 220 q 250 147 157 147 q 330 176 303 147 q 357 256 357 205 q 325 346 357 305 q 220 437 293 387 q 123 522 156 481 q 72 612 90 562 q 54 729 54 663 q 125 931 54 857 q 315 1006 196 1006 q 534 942 429 1006 l 473 794 q 405 828 441 813 q 329 843 370 843 q 260 813 284 843 q 236 733 236 784 q 265 646 236 683 q 366 561 294 608 q 501 428 463 496 q 539 273 539 360 z "},"Ј":{"ha":359,"x_min":-104,"x_max":272,"o":"m 9 -286 q -104 -269 -62 -286 l -104 -109 q -21 -122 -60 -122 q 61 -86 35 -122 q 87 21 87 -50 l 87 991 l 272 991 l 272 31 q 239 -139 272 -67 q 146 -249 206 -211 q 9 -286 86 -286 z "},"Љ":{"ha":1053,"x_min":0,"x_max":1015,"o":"m 1015 313 q 936 82 1015 165 q 710 0 857 0 l 475 0 l 475 829 l 367 829 q 306 262 336 486 q 232 53 286 119 q 90 -14 179 -14 q 0 1 35 -14 l 0 154 q 50 146 20 146 q 108 205 88 146 q 154 473 128 265 q 207 991 179 682 l 660 991 l 660 597 l 705 597 q 1015 313 1015 597 m 660 160 l 704 160 q 829 306 829 160 q 799 406 829 375 q 694 436 768 436 l 660 436 l 660 160 z "},"Њ":{"ha":1053,"x_min":87,"x_max":1015,"o":"m 1015 313 q 936 82 1015 165 q 710 0 857 0 l 476 0 l 476 435 l 272 435 l 272 0 l 87 0 l 87 991 l 272 991 l 272 597 l 476 597 l 476 991 l 661 991 l 661 597 l 705 597 q 1015 313 1015 597 m 661 160 l 704 160 q 829 306 829 160 q 799 406 829 375 q 694 436 768 436 l 661 436 l 661 160 z "},"Ћ":{"ha":867,"x_min":18,"x_max":790,"o":"m 383 628 l 518 628 q 725 565 659 628 q 790 367 790 502 l 790 0 l 607 0 l 607 349 q 582 438 607 411 q 496 465 556 465 l 383 465 l 383 0 l 200 0 l 200 829 l 18 829 l 18 991 l 575 991 l 575 829 l 383 829 l 383 628 z "},"Ќ":{"ha":734,"x_min":90,"x_max":734,"o":"m 734 0 l 528 0 l 273 503 l 273 0 l 90 0 l 90 991 l 273 991 l 273 511 l 532 991 l 729 991 l 457 514 l 734 0 m 254 1071 l 254 1089 q 318 1192 281 1125 q 370 1293 355 1258 l 586 1293 l 586 1279 q 505 1185 570 1250 q 380 1071 441 1120 l 254 1071 z "},"Ў":{"ha":659,"x_min":0,"x_max":659,"o":"m 146 -14 q 26 5 75 -14 l 26 170 q 129 150 76 150 q 254 301 210 150 l 0 991 l 193 991 l 319 604 q 339 513 335 551 l 345 513 l 354 559 l 364 604 l 472 991 l 659 991 l 437 290 q 316 55 385 124 q 146 -14 248 -14 m 591 1291 q 516 1124 577 1177 q 338 1071 456 1071 q 165 1123 222 1071 q 96 1291 107 1175 l 246 1291 q 275 1199 254 1223 q 342 1175 296 1175 q 409 1202 387 1175 q 438 1291 431 1230 l 591 1291 z "},"Џ":{"ha":787,"x_min":87,"x_max":700,"o":"m 700 0 l 488 0 l 488 -283 l 302 -283 l 302 0 l 87 0 l 87 991 l 272 991 l 272 163 l 515 163 l 515 991 l 700 991 l 700 0 z "},"А":{"ha":742,"x_min":0,"x_max":742,"o":"m 557 0 l 500 250 l 241 250 l 184 0 l 0 0 l 245 996 l 496 996 l 742 0 l 557 0 m 465 414 l 412 644 q 391 750 408 665 q 371 863 374 834 q 349 734 362 804 q 278 414 335 664 l 465 414 z "},"Б":{"ha":676,"x_min":87,"x_max":635,"o":"m 635 315 q 558 82 635 165 q 338 0 481 0 l 87 0 l 87 991 l 558 991 l 558 831 l 272 831 l 272 604 l 330 604 q 558 532 481 604 q 635 315 635 459 m 272 160 l 329 160 q 449 309 449 160 q 419 411 449 380 q 317 443 389 443 l 272 443 l 272 160 z "},"В":{"ha":704,"x_min":87,"x_max":656,"o":"m 87 991 l 340 991 q 566 931 495 991 q 636 741 636 871 q 599 596 636 654 q 497 526 562 538 l 497 519 q 618 441 581 498 q 656 288 656 383 q 584 76 656 153 q 386 0 511 0 l 87 0 l 87 991 m 261 593 l 346 593 q 428 624 404 593 q 452 717 452 655 q 425 805 452 779 q 339 832 397 832 l 261 832 l 261 593 m 261 439 l 261 161 l 354 161 q 440 197 412 161 q 468 306 468 232 q 351 439 468 439 l 261 439 z "},"Г":{"ha":555,"x_min":87,"x_max":530,"o":"m 530 991 l 530 832 l 271 832 l 271 0 l 87 0 l 87 991 l 530 991 z "},"Д":{"ha":831,"x_min":7,"x_max":810,"o":"m 810 -283 l 631 -283 l 631 0 l 186 0 l 186 -283 l 7 -283 l 7 163 l 65 163 q 244 991 205 534 l 697 991 l 697 163 l 810 163 l 810 -283 m 513 163 l 513 829 l 400 829 q 346 487 383 665 q 257 163 308 310 l 513 163 z "},"Е":{"ha":591,"x_min":87,"x_max":534,"o":"m 534 0 l 87 0 l 87 991 l 534 991 l 534 832 l 272 832 l 272 596 l 515 596 l 515 436 l 272 436 l 272 161 l 534 161 l 534 0 z "},"Ж":{"ha":1013,"x_min":0,"x_max":1013,"o":"m 248 514 l 4 991 l 193 991 l 419 511 l 419 991 l 591 991 l 591 511 l 818 991 l 1008 991 l 765 515 l 1013 0 l 812 0 l 591 503 l 591 0 l 419 0 l 419 503 l 200 0 l 0 0 l 248 514 z "},"З":{"ha":672,"x_min":41,"x_max":624,"o":"m 602 757 q 547 604 602 665 q 390 522 492 543 l 390 517 q 563 443 501 503 q 624 281 624 382 q 536 65 624 144 q 297 -14 448 -14 q 47 33 137 -14 l 47 195 q 261 139 148 139 q 439 294 439 139 q 388 402 439 365 q 236 439 336 439 l 170 439 l 170 590 l 229 590 q 374 624 328 590 q 421 730 421 659 q 390 819 421 788 q 300 850 359 850 q 129 777 210 850 l 41 900 q 178 982 109 958 q 332 1006 247 1006 q 528 938 454 1006 q 602 757 602 869 z "},"И":{"ha":869,"x_min":87,"x_max":782,"o":"m 87 991 l 258 991 l 258 447 q 245 279 258 362 l 253 279 l 555 991 l 782 991 l 782 0 l 612 0 l 612 543 q 628 720 612 644 l 619 720 l 315 0 l 87 0 l 87 991 z "},"Й":{"ha":869,"x_min":87,"x_max":782,"o":"m 87 991 l 258 991 l 258 447 q 245 279 258 362 l 253 279 l 555 991 l 782 991 l 782 0 l 612 0 l 612 543 q 628 720 612 644 l 619 720 l 315 0 l 87 0 l 87 991 m 682 1291 q 608 1124 669 1177 q 429 1071 547 1071 q 256 1123 314 1071 q 188 1291 199 1175 l 338 1291 q 367 1199 345 1223 q 433 1175 388 1175 q 500 1202 478 1175 q 530 1291 522 1230 l 682 1291 z "},"К":{"ha":734,"x_min":90,"x_max":734,"o":"m 734 0 l 528 0 l 273 503 l 273 0 l 90 0 l 90 991 l 273 991 l 273 511 l 532 991 l 729 991 l 457 514 l 734 0 z "},"Л":{"ha":787,"x_min":0,"x_max":700,"o":"m 700 0 l 515 0 l 515 829 l 367 829 q 306 262 336 486 q 232 53 286 119 q 90 -14 179 -14 q 0 1 35 -14 l 0 154 q 50 146 20 146 q 108 205 88 146 q 154 473 128 265 q 207 991 179 682 l 700 991 l 700 0 z "},"М":{"ha":1089,"x_min":87,"x_max":1002,"o":"m 441 0 l 253 844 l 245 844 q 258 665 258 747 l 258 0 l 87 0 l 87 991 l 371 991 l 541 212 l 546 212 l 714 991 l 1002 991 l 1002 0 l 827 0 l 827 672 q 836 843 827 755 l 831 843 l 643 0 l 441 0 z "},"Н":{"ha":787,"x_min":87,"x_max":700,"o":"m 700 0 l 515 0 l 515 435 l 272 435 l 272 0 l 87 0 l 87 991 l 272 991 l 272 597 l 515 597 l 515 991 l 700 991 l 700 0 z "},"О":{"ha":827,"x_min":57,"x_max":770,"o":"m 770 497 q 677 119 770 251 q 414 -14 585 -14 q 149 118 241 -14 q 57 498 57 250 q 149 876 57 745 q 415 1007 241 1007 q 678 875 587 1007 q 770 497 770 743 m 245 497 q 288 239 245 328 q 414 150 331 150 q 581 497 581 150 q 415 844 581 844 q 288 756 331 844 q 245 497 245 667 z "},"П":{"ha":787,"x_min":87,"x_max":700,"o":"m 700 0 l 517 0 l 517 829 l 272 829 l 272 0 l 87 0 l 87 991 l 700 991 l 700 0 z "},"Р":{"ha":665,"x_min":87,"x_max":628,"o":"m 628 686 q 548 444 628 528 q 318 359 469 359 l 272 359 l 272 0 l 87 0 l 87 991 l 339 991 q 628 686 628 991 m 272 519 l 307 519 q 408 557 375 519 q 441 679 441 594 q 411 794 441 757 q 317 832 380 832 l 272 832 l 272 519 z "},"С":{"ha":643,"x_min":57,"x_max":618,"o":"m 416 844 q 291 751 337 844 q 245 493 245 659 q 425 149 245 149 q 590 199 504 149 l 590 35 q 404 -14 517 -14 q 147 120 237 -14 q 57 494 57 253 q 150 871 57 736 q 407 1006 242 1006 q 511 991 461 1006 q 618 939 561 976 l 557 789 q 492 827 526 810 q 416 844 457 844 z "},"Т":{"ha":600,"x_min":18,"x_max":582,"o":"m 392 0 l 208 0 l 208 829 l 18 829 l 18 991 l 582 991 l 582 829 l 392 829 l 392 0 z "},"У":{"ha":659,"x_min":0,"x_max":659,"o":"m 146 -14 q 26 5 75 -14 l 26 170 q 129 150 76 150 q 254 301 210 150 l 0 991 l 193 991 l 319 604 q 339 513 335 551 l 345 513 l 354 559 l 364 604 l 472 991 l 659 991 l 437 290 q 316 55 385 124 q 146 -14 248 -14 z "},"Ф":{"ha":970,"x_min":50,"x_max":920,"o":"m 399 1006 l 572 1006 l 572 884 l 597 884 q 835 786 751 884 q 920 517 920 688 q 880 317 920 402 q 763 185 840 232 q 579 139 687 139 l 572 139 l 572 -14 l 399 -14 l 399 139 l 390 139 q 139 237 228 139 q 50 511 50 336 q 90 706 50 621 q 203 837 129 791 q 376 884 277 884 l 399 884 l 399 1006 m 572 278 l 578 278 q 691 340 651 278 q 730 515 730 403 q 694 685 730 626 q 590 743 658 743 l 572 743 l 572 278 m 399 743 l 379 743 q 275 683 311 743 q 239 515 239 623 q 279 341 239 404 q 392 278 319 278 l 399 278 l 399 743 z "},"Х":{"ha":657,"x_min":0,"x_max":657,"o":"m 657 0 l 465 0 l 323 355 l 192 0 l 0 0 l 227 515 l 17 991 l 203 991 l 334 665 l 447 991 l 640 991 l 431 507 l 657 0 z "},"Ц":{"ha":833,"x_min":87,"x_max":812,"o":"m 700 155 l 812 155 l 812 -283 l 633 -283 l 633 0 l 87 0 l 87 991 l 272 991 l 272 163 l 515 163 l 515 991 l 700 991 l 700 155 z "},"Ч":{"ha":783,"x_min":85,"x_max":696,"o":"m 696 0 l 511 0 l 511 385 q 319 326 416 326 q 146 394 208 326 q 85 585 85 463 l 85 991 l 269 991 l 269 625 q 291 522 269 554 q 361 489 312 489 q 437 503 401 489 q 511 541 473 517 l 511 991 l 696 991 l 696 0 z "},"Ш":{"ha":1156,"x_min":87,"x_max":1068,"o":"m 669 163 l 884 163 l 884 991 l 1068 991 l 1068 0 l 87 0 l 87 991 l 272 991 l 272 163 l 486 163 l 486 991 l 669 991 l 669 163 z "},"Щ":{"ha":1202,"x_min":87,"x_max":1179,"o":"m 669 163 l 884 163 l 884 991 l 1067 991 l 1067 155 l 1179 155 l 1179 -283 l 1000 -283 l 1000 0 l 87 0 l 87 991 l 272 991 l 272 163 l 486 163 l 486 991 l 669 991 l 669 163 z "},"Ъ":{"ha":783,"x_min":20,"x_max":745,"o":"m 745 315 q 665 83 745 165 q 440 0 586 0 l 205 0 l 205 829 l 20 829 l 20 991 l 390 991 l 390 604 l 436 604 q 745 315 745 604 m 390 160 l 435 160 q 558 309 558 160 q 528 412 558 380 q 425 443 498 443 l 390 443 l 390 160 z "},"Ы":{"ha":1029,"x_min":87,"x_max":942,"o":"m 87 0 l 87 991 l 272 991 l 272 604 l 319 604 q 628 315 628 604 q 549 83 628 165 q 323 0 469 0 l 87 0 m 272 160 l 318 160 q 441 309 441 160 q 411 412 441 380 q 309 443 381 443 l 272 443 l 272 160 m 942 0 l 757 0 l 757 991 l 942 991 l 942 0 z "},"Ь":{"ha":667,"x_min":87,"x_max":628,"o":"m 628 315 q 549 83 628 165 q 323 0 469 0 l 87 0 l 87 991 l 272 991 l 272 604 l 319 604 q 628 315 628 604 m 272 160 l 318 160 q 441 309 441 160 q 411 412 441 380 q 309 443 381 443 l 272 443 l 272 160 z "},"Э":{"ha":643,"x_min":25,"x_max":586,"o":"m 233 844 q 87 789 166 844 l 25 939 q 124 989 74 970 q 239 1007 175 1007 q 495 875 405 1007 q 586 501 586 743 q 494 123 586 259 q 235 -14 402 -14 q 49 35 120 -14 l 49 199 q 221 149 134 149 q 395 424 379 149 l 135 424 l 135 583 l 393 583 q 233 844 376 844 z "},"Ю":{"ha":1137,"x_min":87,"x_max":1080,"o":"m 1080 497 q 994 119 1080 252 q 747 -14 908 -14 q 511 101 597 -14 q 415 435 425 216 l 272 435 l 272 0 l 87 0 l 87 991 l 272 991 l 272 597 l 416 597 q 518 902 434 797 q 749 1007 603 1007 q 995 874 909 1007 q 1080 497 1080 742 m 603 497 q 747 150 603 150 q 892 497 892 150 q 749 844 892 844 q 603 497 603 844 z "},"Я":{"ha":694,"x_min":3,"x_max":607,"o":"m 355 386 l 201 0 l 3 0 l 192 433 q 96 536 126 474 q 66 688 66 598 q 368 991 66 991 l 607 991 l 607 0 l 422 0 l 422 386 l 355 386 m 422 832 l 378 832 q 284 800 315 832 q 254 692 254 768 q 282 582 254 618 q 375 545 309 545 l 422 545 l 422 832 z "},"а":{"ha":648,"x_min":37,"x_max":579,"o":"m 447 0 l 411 103 l 407 103 q 324 12 367 37 q 216 -14 281 -14 q 85 49 133 -14 q 37 222 37 111 q 103 400 37 342 q 298 464 168 458 l 399 468 l 399 522 q 307 628 399 628 q 151 575 239 628 l 89 700 q 334 771 201 771 q 516 702 454 771 q 579 507 579 633 l 579 0 l 447 0 m 290 127 q 369 172 340 127 q 399 290 399 216 l 399 354 l 343 351 q 253 316 281 348 q 224 221 224 284 q 290 127 224 127 z "},"б":{"ha":686,"x_min":50,"x_max":636,"o":"m 50 437 q 124 831 50 695 q 364 1015 197 966 q 615 1063 451 1040 l 636 904 l 516 885 q 345 836 401 866 q 260 746 288 806 q 227 589 232 687 l 232 589 q 309 675 264 646 q 408 704 355 704 q 576 616 517 704 q 636 372 636 529 q 559 89 636 191 q 343 -14 481 -14 q 126 104 202 -14 q 50 437 50 221 m 350 140 q 452 354 452 140 q 359 561 452 561 q 285 529 319 561 q 235 447 250 496 q 350 140 235 140 z "},"в":{"ha":672,"x_min":77,"x_max":637,"o":"m 615 559 q 577 453 615 496 q 468 399 540 411 l 468 393 q 592 339 547 383 q 637 224 637 294 q 561 58 637 115 q 342 0 484 0 l 77 0 l 77 755 l 340 755 q 615 559 615 755 m 450 235 q 419 304 450 283 q 325 325 388 325 l 257 325 l 257 135 l 328 135 q 450 235 450 135 m 431 543 q 332 618 431 618 l 257 618 l 257 458 l 311 458 q 401 478 371 458 q 431 543 431 497 z "},"г":{"ha":494,"x_min":77,"x_max":469,"o":"m 469 755 l 469 610 l 257 610 l 257 0 l 77 0 l 77 755 l 469 755 z "},"д":{"ha":742,"x_min":20,"x_max":722,"o":"m 441 142 l 441 612 l 353 612 q 254 142 327 319 l 441 142 m 722 -269 l 543 -269 l 543 0 l 199 0 l 199 -269 l 20 -269 l 20 142 l 65 142 q 151 409 119 251 q 192 755 183 567 l 624 755 l 624 142 l 722 142 l 722 -269 z "},"е":{"ha":639,"x_min":50,"x_max":596,"o":"m 355 -14 q 132 87 214 -14 q 50 372 50 188 q 124 665 50 559 q 330 770 198 770 q 525 680 454 770 q 596 428 596 590 l 596 332 l 233 332 q 275 181 235 231 q 383 132 314 132 q 564 187 471 132 l 564 39 q 355 -14 477 -14 m 329 631 q 265 590 290 631 q 236 463 240 549 l 419 463 q 394 588 418 545 q 329 631 370 631 z "},"ж":{"ha":953,"x_min":0,"x_max":953,"o":"m 390 393 l 390 755 l 564 755 l 564 393 l 753 755 l 940 755 l 737 397 l 953 0 l 757 0 l 564 389 l 564 0 l 390 0 l 390 389 l 196 0 l 0 0 l 215 397 l 14 755 l 201 755 l 390 393 z "},"з":{"ha":586,"x_min":37,"x_max":539,"o":"m 231 461 q 322 481 292 461 q 353 549 353 500 q 249 627 353 627 q 181 616 212 627 q 114 583 150 606 l 49 714 q 258 770 143 770 q 450 716 378 770 q 521 570 521 663 q 378 400 521 440 l 378 395 q 498 328 456 376 q 539 203 539 279 q 463 44 539 102 q 252 -14 387 -14 q 133 0 189 -14 q 37 36 76 14 l 37 187 q 235 135 132 135 q 358 227 358 135 q 329 301 358 275 q 231 326 299 326 l 157 326 l 157 461 l 231 461 z "},"и":{"ha":771,"x_min":77,"x_max":694,"o":"m 244 755 l 244 406 q 228 189 244 340 l 473 755 l 694 755 l 694 0 l 526 0 l 526 355 q 542 571 526 435 l 296 0 l 77 0 l 77 755 l 244 755 z "},"й":{"ha":771,"x_min":77,"x_max":694,"o":"m 244 755 l 244 406 q 228 189 244 340 l 473 755 l 694 755 l 694 0 l 526 0 l 526 355 q 542 571 526 435 l 296 0 l 77 0 l 77 755 l 244 755 m 633 1061 q 558 895 619 947 q 380 842 498 842 q 207 893 264 842 q 138 1061 149 945 l 288 1061 q 317 970 296 994 q 384 946 338 946 q 451 973 429 946 q 480 1061 473 1000 l 633 1061 z "},"к":{"ha":654,"x_min":77,"x_max":653,"o":"m 450 755 l 640 755 l 433 397 l 653 0 l 454 0 l 257 389 l 257 0 l 77 0 l 77 755 l 257 755 l 257 395 l 450 755 z "},"л":{"ha":700,"x_min":0,"x_max":624,"o":"m 624 0 l 443 0 l 443 610 l 342 610 q 298 245 328 380 q 217 49 268 110 q 83 -12 167 -12 q 0 3 33 -12 l 0 151 q 41 144 20 144 q 130 290 98 144 q 179 755 162 435 l 624 755 l 624 0 z "},"м":{"ha":932,"x_min":77,"x_max":857,"o":"m 857 0 l 696 0 l 696 614 q 640 367 676 504 l 542 0 l 389 0 l 290 368 q 235 614 258 487 l 235 0 l 77 0 l 77 755 l 336 755 l 428 403 q 464 183 458 285 q 478 280 467 218 q 505 403 490 342 l 599 755 l 857 755 l 857 0 z "},"н":{"ha":718,"x_min":77,"x_max":643,"o":"m 257 755 l 257 461 l 461 461 l 461 755 l 643 755 l 643 0 l 461 0 l 461 317 l 257 317 l 257 0 l 77 0 l 77 755 l 257 755 z "},"о":{"ha":686,"x_min":50,"x_max":636,"o":"m 636 379 q 557 90 636 193 q 342 -14 479 -14 q 189 34 255 -14 q 86 171 122 81 q 50 379 50 260 q 128 666 50 563 q 345 770 206 770 q 557 664 478 770 q 636 379 636 559 m 235 379 q 260 201 235 261 q 343 140 286 140 q 452 379 452 140 q 426 556 452 498 q 343 615 399 615 q 260 556 286 615 q 235 379 235 498 z "},"п":{"ha":720,"x_min":77,"x_max":643,"o":"m 643 755 l 643 0 l 461 0 l 461 610 l 257 610 l 257 0 l 77 0 l 77 755 l 643 755 z "},"р":{"ha":689,"x_min":77,"x_max":639,"o":"m 414 -14 q 327 8 365 -14 q 257 86 290 31 l 248 86 q 258 -25 258 -6 l 258 -334 l 77 -334 l 77 755 l 216 755 l 248 657 l 256 657 q 419 770 312 770 q 581 668 522 770 q 639 379 639 566 q 578 91 639 195 q 414 -14 518 -14 m 358 616 q 282 567 305 616 q 257 404 258 518 l 257 380 q 281 199 257 256 q 359 142 304 142 q 454 382 454 142 q 431 558 454 500 q 358 616 408 616 z "},"с":{"ha":515,"x_min":50,"x_max":494,"o":"m 326 -14 q 121 85 191 -14 q 50 374 50 183 q 117 671 50 573 q 323 770 184 770 q 412 758 366 770 q 494 722 458 745 l 443 582 q 343 615 387 615 q 260 555 286 615 q 235 375 235 495 q 260 200 235 258 q 342 142 285 142 q 484 189 410 142 l 484 31 q 326 -14 412 -14 z "},"т":{"ha":567,"x_min":25,"x_max":542,"o":"m 542 755 l 542 610 l 374 610 l 374 0 l 193 0 l 193 610 l 25 610 l 25 755 l 542 755 z "},"у":{"ha":619,"x_min":0,"x_max":619,"o":"m 0 755 l 187 755 l 292 329 q 317 170 307 272 l 321 170 q 327 228 321 186 q 336 293 332 269 q 429 755 339 317 l 619 755 l 403 -54 q 298 -269 363 -203 q 125 -334 233 -334 q 29 -322 71 -334 l 29 -171 q 92 -179 57 -179 q 211 -60 182 -179 l 224 -12 l 0 755 z "},"ф":{"ha":907,"x_min":50,"x_max":857,"o":"m 371 -14 q 136 91 221 -12 q 50 379 50 194 q 135 666 50 564 q 371 770 219 767 l 371 1055 l 536 1055 l 536 770 q 775 667 692 767 q 857 379 857 567 q 773 91 857 195 q 536 -14 689 -12 l 536 -334 l 371 -334 l 371 -14 m 227 379 q 265 198 227 262 q 371 131 303 133 l 371 625 q 265 560 303 623 q 227 379 227 496 m 536 131 q 642 198 604 132 q 681 379 681 264 q 643 560 681 496 q 536 625 606 623 l 536 131 z "},"х":{"ha":603,"x_min":9,"x_max":593,"o":"m 207 386 l 18 755 l 205 755 l 306 525 l 399 755 l 585 755 l 395 386 l 593 0 l 404 0 l 297 241 l 197 0 l 9 0 l 207 386 z "},"ц":{"ha":760,"x_min":77,"x_max":743,"o":"m 642 142 l 743 142 l 743 -269 l 564 -269 l 564 0 l 77 0 l 77 755 l 257 755 l 257 146 l 460 146 l 460 755 l 642 755 l 642 142 z "},"ч":{"ha":703,"x_min":69,"x_max":628,"o":"m 250 755 l 250 475 q 267 399 250 422 q 321 375 284 375 q 388 391 359 375 q 446 429 416 406 l 446 755 l 628 755 l 628 0 l 446 0 l 446 306 q 258 233 352 233 q 117 290 165 233 q 69 460 69 347 l 69 755 l 250 755 z "},"ш":{"ha":1039,"x_min":77,"x_max":962,"o":"m 962 0 l 77 0 l 77 755 l 257 755 l 257 146 l 428 146 l 428 755 l 610 755 l 610 146 l 781 146 l 781 755 l 962 755 l 962 0 z "},"щ":{"ha":1080,"x_min":77,"x_max":1064,"o":"m 77 0 l 77 755 l 257 755 l 257 146 l 428 146 l 428 755 l 610 755 l 610 146 l 781 146 l 781 755 l 962 755 l 962 142 l 1064 142 l 1064 -269 l 885 -269 l 885 0 l 77 0 z "},"ъ":{"ha":778,"x_min":25,"x_max":737,"o":"m 380 460 l 443 460 q 666 405 594 460 q 737 239 737 350 q 437 0 737 0 l 199 0 l 199 610 l 25 610 l 25 755 l 380 755 l 380 460 m 553 235 q 523 304 553 283 q 431 325 494 325 l 380 325 l 380 135 l 433 135 q 522 158 491 135 q 553 235 553 180 z "},"ы":{"ha":966,"x_min":77,"x_max":892,"o":"m 257 460 l 311 460 q 533 405 461 460 q 604 239 604 350 q 306 0 604 0 l 77 0 l 77 755 l 257 755 l 257 460 m 419 235 q 390 304 419 283 q 297 325 360 325 l 257 325 l 257 135 l 300 135 q 388 158 357 135 q 419 235 419 180 m 892 0 l 710 0 l 710 755 l 892 755 l 892 0 z "},"ь":{"ha":656,"x_min":77,"x_max":615,"o":"m 257 460 l 321 460 q 544 405 472 460 q 615 239 615 350 q 315 0 615 0 l 77 0 l 77 755 l 257 755 l 257 460 m 429 235 q 400 304 429 283 q 309 325 372 325 l 257 325 l 257 135 l 311 135 q 398 158 368 135 q 429 235 429 180 z "},"э":{"ha":596,"x_min":36,"x_max":546,"o":"m 220 -14 q 36 35 117 -14 l 36 183 q 140 141 103 151 q 211 132 176 132 q 314 180 275 132 q 359 317 353 229 l 144 317 l 144 449 l 359 449 q 325 582 357 537 q 232 627 292 627 q 161 615 193 627 q 90 585 129 604 l 40 720 q 237 770 138 770 q 546 386 546 770 q 463 91 546 195 q 220 -14 379 -14 z "},"ю":{"ha":982,"x_min":77,"x_max":932,"o":"m 932 379 q 858 90 932 193 q 647 -14 783 -14 q 453 74 526 -14 q 368 317 380 161 l 257 317 l 257 0 l 77 0 l 77 755 l 257 755 l 257 461 l 370 461 q 457 689 384 608 q 650 770 530 770 q 858 668 783 770 q 932 379 932 566 m 550 379 q 648 140 550 140 q 724 201 700 140 q 747 379 747 261 q 724 556 747 498 q 648 615 700 615 q 574 556 597 615 q 550 379 550 498 z "},"я":{"ha":686,"x_min":4,"x_max":610,"o":"m 208 0 l 4 0 l 192 310 q 56 521 56 364 q 129 693 56 631 q 332 755 203 755 l 610 755 l 610 0 l 429 0 l 429 285 l 364 285 l 208 0 m 239 519 q 351 418 239 418 l 429 418 l 429 621 l 336 621 q 239 519 239 621 z "},"ё":{"ha":639,"x_min":50,"x_max":596,"o":"m 355 -14 q 132 87 214 -14 q 50 372 50 188 q 124 665 50 559 q 330 770 198 770 q 525 680 454 770 q 596 428 596 590 l 596 332 l 233 332 q 275 181 235 231 q 383 132 314 132 q 564 187 471 132 l 564 39 q 355 -14 477 -14 m 329 631 q 265 590 290 631 q 236 463 240 549 l 419 463 q 394 588 418 545 q 329 631 370 631 m 106 951 q 130 1016 106 993 q 195 1039 153 1039 q 261 1015 237 1039 q 286 951 286 991 q 261 889 286 913 q 195 865 237 865 q 130 888 153 865 q 106 951 106 911 m 376 951 q 399 1016 376 992 q 466 1039 423 1039 q 532 1016 507 1039 q 556 951 556 993 q 532 888 556 911 q 466 865 508 865 q 400 889 424 865 q 376 951 376 912 z "},"ђ":{"ha":713,"x_min":0,"x_max":643,"o":"m 643 -87 q 588 -270 643 -205 q 435 -334 534 -334 q 339 -317 376 -334 l 339 -167 q 399 -179 370 -179 q 446 -151 431 -179 q 461 -64 461 -123 l 461 425 q 378 582 461 582 q 292 525 319 582 q 265 343 265 467 l 265 0 l 85 0 l 85 817 l 0 817 l 0 943 l 85 943 l 85 1055 l 265 1055 l 265 943 l 431 943 l 431 817 l 265 817 l 265 778 q 257 624 265 719 l 267 624 q 335 707 292 679 q 433 736 378 736 q 590 669 537 736 q 643 472 643 602 l 643 -87 z "},"ѓ":{"ha":494,"x_min":77,"x_max":492,"o":"m 469 755 l 469 610 l 257 610 l 257 0 l 77 0 l 77 755 l 469 755 m 160 842 l 160 860 q 224 962 188 896 q 277 1064 261 1029 l 492 1064 l 492 1050 q 412 956 476 1021 q 287 842 347 891 l 160 842 z "},"є":{"ha":596,"x_min":50,"x_max":559,"o":"m 354 -14 q 125 81 199 -14 q 50 371 50 176 q 129 668 50 567 q 359 770 207 770 q 559 718 464 770 l 507 581 q 435 614 469 602 q 364 627 401 627 q 235 449 245 627 l 452 449 l 452 317 l 235 317 q 366 132 247 132 q 457 146 416 132 q 541 183 498 160 l 541 35 q 354 -14 452 -14 z "},"ѕ":{"ha":519,"x_min":41,"x_max":482,"o":"m 482 221 q 417 48 482 111 q 227 -14 353 -14 q 41 31 115 -14 l 41 187 q 129 144 79 161 q 216 127 178 127 q 280 148 258 127 q 302 203 302 169 q 279 263 302 237 q 195 326 256 289 q 77 430 113 375 q 41 561 41 486 q 107 713 41 657 q 289 770 174 770 q 478 717 389 770 l 419 587 q 292 627 347 627 q 240 608 257 627 q 222 564 222 590 q 244 509 222 533 q 323 450 265 486 q 422 378 394 408 q 467 310 451 348 q 482 221 482 272 z "},"і":{"ha":336,"x_min":71,"x_max":267,"o":"m 258 0 l 78 0 l 78 755 l 258 755 l 258 0 m 71 953 q 97 1024 71 998 q 170 1050 123 1050 q 240 1024 214 1050 q 267 953 267 998 q 239 881 267 907 q 170 856 212 856 q 98 881 125 856 q 71 953 71 907 z "},"ї":{"ha":336,"x_min":-54,"x_max":397,"o":"m 258 0 l 78 0 l 78 755 l 258 755 l 258 0 m -54 951 q -30 1016 -54 993 q 36 1039 -6 1039 q 102 1015 78 1039 q 126 951 126 991 q 102 889 126 913 q 36 865 78 865 q -30 888 -6 865 q -54 951 -54 911 m 216 951 q 240 1016 216 992 q 307 1039 264 1039 q 372 1016 348 1039 q 397 951 397 993 q 373 888 397 911 q 307 865 349 865 q 240 889 264 865 q 216 951 216 912 z "},"ј":{"ha":339,"x_min":-40,"x_max":271,"o":"m 54 -334 q -40 -317 -3 -334 l -40 -167 q 18 -179 -9 -179 q 82 -64 82 -179 l 82 755 l 262 755 l 262 -87 q 208 -270 262 -205 q 54 -334 153 -334 m 75 953 q 101 1024 75 998 q 174 1050 127 1050 q 245 1023 219 1050 q 271 953 271 997 q 244 882 271 907 q 174 856 218 856 q 102 881 130 856 q 75 953 75 906 z "},"љ":{"ha":1023,"x_min":0,"x_max":983,"o":"m 625 460 l 689 460 q 912 405 840 460 q 983 239 983 350 q 684 0 983 0 l 443 0 l 443 610 l 342 610 q 298 245 328 380 q 217 49 268 110 q 83 -12 167 -12 q 0 3 33 -12 l 0 151 q 41 144 20 144 q 130 290 98 144 q 179 755 162 435 l 625 755 l 625 460 m 798 235 q 768 304 798 283 q 676 325 739 325 l 625 325 l 625 135 l 679 135 q 767 158 736 135 q 798 235 798 180 z "},"њ":{"ha":1021,"x_min":77,"x_max":981,"o":"m 621 460 l 686 460 q 908 405 836 460 q 981 239 981 350 q 681 0 981 0 l 439 0 l 439 317 l 257 317 l 257 0 l 77 0 l 77 755 l 257 755 l 257 461 l 439 461 l 439 755 l 621 755 l 621 460 m 794 235 q 765 304 794 283 q 672 325 736 325 l 621 325 l 621 135 l 675 135 q 763 158 732 135 q 794 235 794 180 z "},"ћ":{"ha":704,"x_min":-8,"x_max":635,"o":"m 635 0 l 453 0 l 453 425 q 370 582 453 582 q 284 525 311 582 q 257 343 257 467 l 257 0 l 77 0 l 77 817 l -8 817 l -8 943 l 77 943 l 77 1055 l 257 1055 l 257 943 l 424 943 l 424 817 l 257 817 l 253 685 l 249 624 l 258 624 q 327 707 283 679 q 425 736 370 736 q 582 669 529 736 q 635 472 635 602 l 635 0 z "},"ќ":{"ha":654,"x_min":77,"x_max":653,"o":"m 450 755 l 640 755 l 433 397 l 653 0 l 454 0 l 257 389 l 257 0 l 77 0 l 77 755 l 257 755 l 257 395 l 450 755 m 257 842 l 257 860 q 321 962 285 896 q 374 1064 358 1029 l 589 1064 l 589 1050 q 509 956 573 1021 q 384 842 444 891 l 257 842 z "},"ў":{"ha":619,"x_min":0,"x_max":619,"o":"m 0 755 l 187 755 l 292 329 q 317 170 307 272 l 321 170 q 327 228 321 186 q 336 293 332 269 q 429 755 339 317 l 619 755 l 403 -54 q 298 -269 363 -203 q 125 -334 233 -334 q 29 -322 71 -334 l 29 -171 q 92 -179 57 -179 q 211 -60 182 -179 l 224 -12 l 0 755 m 557 1061 q 483 895 544 947 q 304 842 422 842 q 132 893 189 842 q 63 1061 74 945 l 213 1061 q 242 970 220 994 q 309 946 263 946 q 375 973 353 946 q 405 1061 397 1000 l 557 1061 z "},"џ":{"ha":718,"x_min":77,"x_max":642,"o":"m 77 0 l 77 755 l 257 755 l 257 146 l 460 146 l 460 755 l 642 755 l 642 0 l 449 0 l 449 -269 l 269 -269 l 269 0 l 77 0 z "},"Ґ":{"ha":572,"x_min":87,"x_max":547,"o":"m 271 0 l 87 0 l 87 991 l 368 991 l 368 1200 l 547 1200 l 547 832 l 271 832 l 271 0 z "},"ґ":{"ha":511,"x_min":77,"x_max":486,"o":"m 257 0 l 77 0 l 77 755 l 307 755 l 307 964 l 486 964 l 486 610 l 257 610 l 257 0 z "},"Ẁ":{"ha":1100,"x_min":12,"x_max":1088,"o":"m 909 0 l 679 0 l 582 519 q 550 771 559 626 l 545 721 l 517 517 l 422 0 l 192 0 l 12 991 l 193 991 l 282 432 q 317 168 295 348 q 349 428 334 350 l 454 991 l 646 991 l 751 428 q 785 167 772 302 q 819 432 808 368 l 905 991 l 1088 991 l 909 0 m 516 1071 q 397 1180 465 1112 q 311 1279 328 1248 l 311 1293 l 526 1293 q 581 1188 545 1253 q 643 1089 617 1123 l 643 1071 l 516 1071 z "},"ẁ":{"ha":1003,"x_min":14,"x_max":989,"o":"m 603 0 l 528 439 l 501 624 l 498 624 q 482 493 488 534 q 396 0 476 453 l 164 0 l 14 755 l 195 755 l 264 339 q 286 136 276 270 l 290 136 q 300 246 292 172 q 311 340 308 319 l 386 755 l 618 755 l 692 339 q 714 136 705 273 l 717 136 q 741 339 726 258 l 812 755 l 989 755 l 838 0 l 603 0 m 483 842 q 363 950 432 882 q 277 1050 295 1019 l 277 1064 l 493 1064 q 548 959 511 1023 q 610 860 584 894 l 610 842 l 483 842 z "},"Ẃ":{"ha":1100,"x_min":12,"x_max":1088,"o":"m 909 0 l 679 0 l 582 519 q 550 771 559 626 l 545 721 l 517 517 l 422 0 l 192 0 l 12 991 l 193 991 l 282 432 q 317 168 295 348 q 349 428 334 350 l 454 991 l 646 991 l 751 428 q 785 167 772 302 q 819 432 808 368 l 905 991 l 1088 991 l 909 0 m 456 1071 l 456 1089 q 521 1192 484 1125 q 573 1293 557 1258 l 789 1293 l 789 1279 q 708 1185 772 1250 q 583 1071 644 1120 l 456 1071 z "},"ẃ":{"ha":1003,"x_min":14,"x_max":989,"o":"m 603 0 l 528 439 l 501 624 l 498 624 q 482 493 488 534 q 396 0 476 453 l 164 0 l 14 755 l 195 755 l 264 339 q 286 136 276 270 l 290 136 q 300 246 292 172 q 311 340 308 319 l 386 755 l 618 755 l 692 339 q 714 136 705 273 l 717 136 q 741 339 726 258 l 812 755 l 989 755 l 838 0 l 603 0 m 394 842 l 394 860 q 458 962 422 896 q 511 1064 495 1029 l 726 1064 l 726 1050 q 646 956 710 1021 q 521 842 581 891 l 394 842 z "},"Ẅ":{"ha":1100,"x_min":12,"x_max":1088,"o":"m 909 0 l 679 0 l 582 519 q 550 771 559 626 l 545 721 l 517 517 l 422 0 l 192 0 l 12 991 l 193 991 l 282 432 q 317 168 295 348 q 349 428 334 350 l 454 991 l 646 991 l 751 428 q 785 167 772 302 q 819 432 808 368 l 905 991 l 1088 991 l 909 0 m 325 1181 q 349 1245 325 1222 q 414 1268 372 1268 q 480 1244 456 1268 q 505 1181 505 1220 q 480 1118 505 1142 q 414 1095 456 1095 q 349 1117 372 1095 q 325 1181 325 1140 m 595 1181 q 618 1245 595 1221 q 685 1268 642 1268 q 751 1245 726 1268 q 775 1181 775 1222 q 751 1118 775 1141 q 685 1095 727 1095 q 619 1118 643 1095 q 595 1181 595 1141 z "},"ẅ":{"ha":1003,"x_min":14,"x_max":989,"o":"m 603 0 l 528 439 l 501 624 l 498 624 q 482 493 488 534 q 396 0 476 453 l 164 0 l 14 755 l 195 755 l 264 339 q 286 136 276 270 l 290 136 q 300 246 292 172 q 311 340 308 319 l 386 755 l 618 755 l 692 339 q 714 136 705 273 l 717 136 q 741 339 726 258 l 812 755 l 989 755 l 838 0 l 603 0 m 276 951 q 300 1016 276 993 q 366 1039 323 1039 q 432 1015 408 1039 q 456 951 456 991 q 432 889 456 913 q 366 865 408 865 q 300 888 323 865 q 276 951 276 911 m 546 951 q 570 1016 546 992 q 636 1039 593 1039 q 702 1016 677 1039 q 726 951 726 993 q 702 888 726 911 q 636 865 678 865 q 570 889 594 865 q 546 951 546 912 z "},"Ỳ":{"ha":652,"x_min":0,"x_max":652,"o":"m 326 600 l 458 991 l 652 991 l 416 397 l 416 0 l 235 0 l 235 390 l 0 991 l 195 991 l 326 600 m 298 1071 q 178 1180 247 1112 q 92 1279 110 1248 l 92 1293 l 308 1293 q 362 1188 326 1253 q 425 1089 399 1123 l 425 1071 l 298 1071 z "},"ỳ":{"ha":619,"x_min":0,"x_max":619,"o":"m 0 755 l 187 755 l 292 329 q 317 170 307 272 l 321 170 q 327 228 321 186 q 336 293 332 269 q 429 755 339 317 l 619 755 l 403 -54 q 298 -269 363 -203 q 125 -334 233 -334 q 29 -322 71 -334 l 29 -171 q 92 -179 57 -179 q 211 -60 182 -179 l 224 -12 l 0 755 m 277 842 q 157 950 226 882 q 71 1050 89 1019 l 71 1064 l 287 1064 q 341 959 305 1023 q 404 860 378 894 l 404 842 l 277 842 z "},"–":{"ha":660,"x_min":47,"x_max":612,"o":"m 47 300 l 47 447 l 612 447 l 612 300 l 47 300 z "},"—":{"ha":1071,"x_min":47,"x_max":1022,"o":"m 47 300 l 47 447 l 1022 447 l 1022 300 l 47 300 z "},"―":{"ha":1071,"x_min":47,"x_max":1022,"o":"m 47 300 l 47 447 l 1022 447 l 1022 300 l 47 300 z "},"‗":{"ha":571,"x_min":-3,"x_max":574,"o":"m 574 -314 l -3 -314 l -3 -220 l 574 -220 l 574 -314 m 574 -125 l -3 -125 l -3 -31 l 574 -31 l 574 -125 z "},"‘":{"ha":285,"x_min":14,"x_max":271,"o":"m 24 652 l 14 667 q 63 821 31 732 q 134 991 96 910 l 271 991 q 229 804 250 907 q 203 652 209 701 l 24 652 z "},"’":{"ha":285,"x_min":14,"x_max":271,"o":"m 261 991 l 271 977 q 151 652 237 843 l 14 652 q 82 991 57 825 l 261 991 z "},"‚":{"ha":375,"x_min":35,"x_max":292,"o":"m 292 146 q 172 -179 256 9 l 35 -179 q 103 161 79 1 l 282 161 l 292 146 z "},"‛":{"ha":285,"x_min":14,"x_max":271,"o":"m 203 991 q 229 842 209 944 q 271 652 249 741 l 134 652 q 61 829 94 738 q 14 977 28 920 l 24 991 l 203 991 z "},"“":{"ha":579,"x_min":14,"x_max":566,"o":"m 309 667 q 365 839 330 747 q 428 991 400 932 l 566 991 q 497 652 521 810 l 318 652 l 309 667 m 14 667 q 63 821 31 732 q 134 991 96 910 l 271 991 q 229 804 250 907 q 203 652 209 701 l 24 652 l 14 667 z "},"”":{"ha":579,"x_min":14,"x_max":566,"o":"m 271 977 q 151 652 237 843 l 14 652 q 82 991 57 825 l 261 991 l 271 977 m 566 977 q 446 652 532 846 l 309 652 q 376 991 351 819 l 555 991 l 566 977 z "},"„":{"ha":669,"x_min":35,"x_max":586,"o":"m 292 146 q 172 -179 256 9 l 35 -179 q 103 161 79 1 l 282 161 l 292 146 m 586 146 q 467 -179 551 9 l 329 -179 q 397 161 373 1 l 576 161 l 586 146 z "},"†":{"ha":694,"x_min":77,"x_max":618,"o":"m 618 637 l 393 659 l 431 0 l 250 0 l 288 659 l 77 637 l 77 793 l 288 772 l 250 1055 l 431 1055 l 393 772 l 618 793 l 618 637 z "},"‡":{"ha":694,"x_min":69,"x_max":625,"o":"m 400 370 l 625 390 l 625 235 l 400 256 l 437 0 l 257 0 l 294 256 l 69 235 l 69 390 l 294 370 l 262 533 l 294 686 l 69 665 l 69 821 l 294 800 l 257 1055 l 437 1055 l 400 800 l 625 821 l 625 665 l 400 686 l 432 533 l 400 370 z "},"•":{"ha":509,"x_min":66,"x_max":441,"o":"m 66 507 q 115 662 66 608 q 254 715 163 715 q 393 661 344 715 q 441 507 441 606 q 392 354 441 409 q 254 298 342 298 q 115 353 164 298 q 66 507 66 408 z "},"…":{"ha":1125,"x_min":75,"x_max":1050,"o":"m 75 93 q 103 175 75 146 q 187 204 132 204 q 271 175 243 204 q 300 93 300 146 q 270 11 300 40 q 187 -18 241 -18 q 104 11 132 -18 q 75 93 75 41 m 450 93 q 478 175 450 146 q 562 204 507 204 q 646 175 618 204 q 675 93 675 146 q 645 11 675 40 q 562 -18 616 -18 q 479 11 507 -18 q 450 93 450 41 m 825 93 q 853 175 825 146 q 937 204 882 204 q 1021 175 993 204 q 1050 93 1050 146 q 1020 11 1050 40 q 937 -18 991 -18 q 854 11 882 -18 q 825 93 825 41 z "},"‰":{"ha":1496,"x_min":43,"x_max":1453,"o":"m 439 696 q 388 463 439 543 q 239 383 336 383 q 90 461 138 383 q 43 693 43 539 q 239 1006 43 1006 q 439 696 439 1006 m 187 694 q 199 557 187 600 q 240 514 212 514 q 281 557 269 514 q 294 694 294 600 q 281 832 294 789 q 240 875 269 875 q 199 832 212 875 q 187 694 187 789 m 1013 300 q 961 67 1013 146 q 812 -12 909 -12 q 663 65 711 -12 q 615 297 615 143 q 812 610 615 610 q 1013 300 1013 610 m 760 298 q 772 161 760 204 q 814 118 785 118 q 868 298 868 118 q 812 478 868 478 q 772 435 785 478 q 760 298 760 393 m 1202 298 q 1214 161 1202 204 q 1254 118 1225 118 q 1295 161 1282 118 q 1308 298 1308 204 q 1254 478 1308 478 q 1214 435 1226 478 q 1202 298 1202 393 m 1453 300 q 1401 67 1453 146 q 1253 -12 1350 -12 q 1104 65 1152 -12 q 1057 297 1057 143 q 1253 610 1057 610 q 1453 300 1453 610 m 802 991 l 392 0 l 252 0 l 661 991 l 802 991 z "},"′":{"ha":342,"x_min":82,"x_max":260,"o":"m 260 991 l 232 633 l 110 633 l 82 991 l 260 991 z "},"″":{"ha":619,"x_min":82,"x_max":538,"o":"m 260 991 l 232 633 l 110 633 l 82 991 l 260 991 m 538 991 l 510 633 l 387 633 l 359 991 l 538 991 z "},"‹":{"ha":443,"x_min":50,"x_max":393,"o":"m 50 386 l 258 689 l 393 614 l 244 378 l 393 142 l 258 66 l 50 368 l 50 386 z "},"›":{"ha":443,"x_min":50,"x_max":393,"o":"m 393 368 l 184 66 l 50 142 l 199 378 l 50 614 l 184 689 l 393 386 l 393 368 z "},"‼":{"ha":753,"x_min":75,"x_max":676,"o":"m 639 319 l 490 319 l 457 991 l 673 991 l 639 319 m 452 93 q 480 175 452 146 q 564 204 508 204 q 648 175 619 204 q 676 93 676 146 q 647 11 676 40 q 564 -18 617 -18 q 480 11 509 -18 q 452 93 452 41 m 262 319 l 114 319 l 81 991 l 297 991 l 262 319 m 75 93 q 103 175 75 146 q 187 204 132 204 q 271 175 243 204 q 300 93 300 146 q 270 11 300 40 q 187 -18 241 -18 q 104 11 132 -18 q 75 93 75 41 z "},"⁄":{"ha":136,"x_min":-253,"x_max":389,"o":"m 389 991 l -115 0 l -253 0 l 250 991 l 389 991 z "},"ⁿ":{"ha":510,"x_min":69,"x_max":446,"o":"m 326 522 l 326 802 q 313 875 326 852 q 269 897 300 897 q 205 865 222 897 q 187 753 187 833 l 187 522 l 69 522 l 69 991 l 161 991 l 176 935 l 183 935 q 306 1003 222 1003 q 446 833 446 1003 l 446 522 l 326 522 z "},"₣":{"ha":643,"x_min":32,"x_max":567,"o":"m 306 293 l 444 293 l 444 178 l 306 178 l 306 0 l 123 0 l 123 178 l 32 178 l 32 293 l 123 293 l 123 991 l 567 991 l 567 832 l 306 832 l 306 579 l 549 579 l 549 419 l 306 419 l 306 293 z "},"₤":{"ha":643,"x_min":52,"x_max":612,"o":"m 406 1006 q 597 957 512 1006 l 541 814 q 416 850 478 850 q 339 724 339 850 l 339 636 l 504 636 l 504 522 l 339 522 l 339 439 l 504 439 l 504 325 l 338 325 l 338 319 q 328 258 338 284 q 303 213 318 233 q 250 164 289 194 l 612 164 l 612 0 l 52 0 l 52 155 q 136 225 114 187 q 158 319 158 263 l 158 325 l 53 325 l 53 439 l 158 439 l 158 522 l 53 522 l 53 636 l 158 636 l 158 728 q 222 935 158 863 q 406 1006 286 1006 z "},"₧":{"ha":1014,"x_min":85,"x_max":977,"o":"m 903 127 q 977 144 938 127 l 977 14 q 844 -14 920 -14 q 721 41 763 -14 q 679 203 679 96 l 679 441 l 591 441 l 591 511 l 688 576 l 742 730 l 846 730 l 846 574 l 970 574 l 970 441 l 846 441 l 846 218 q 860 149 846 170 q 903 127 874 127 m 608 686 q 524 444 608 528 q 281 359 439 359 l 265 359 l 265 0 l 85 0 l 85 991 l 296 991 q 608 686 608 991 m 265 519 l 285 519 q 391 557 355 519 q 427 681 427 595 q 395 795 427 758 q 296 832 363 832 l 265 832 l 265 519 z "},"€":{"ha":643,"x_min":28,"x_max":629,"o":"m 447 846 q 352 793 389 846 q 298 642 314 741 l 498 642 l 498 528 l 289 528 l 289 444 l 468 444 l 468 330 l 300 330 q 457 149 334 149 q 615 199 530 149 l 615 35 q 437 -14 541 -14 q 224 74 306 -14 q 117 330 142 162 l 28 330 l 28 444 l 107 444 l 107 528 l 28 528 l 28 642 l 115 642 q 225 913 141 820 q 439 1007 309 1007 q 542 996 498 1007 q 629 960 585 985 l 568 814 q 447 846 503 846 z "},"℅":{"ha":1004,"x_min":82,"x_max":929,"o":"m 760 991 l 350 0 l 208 0 l 618 991 l 760 991 m 929 232 q 879 53 929 119 q 737 -12 828 -12 q 601 54 653 -12 q 549 232 549 120 q 600 410 549 345 q 741 475 650 475 q 877 408 825 475 q 929 232 929 341 m 684 232 q 696 128 684 164 q 739 92 709 92 q 794 232 794 92 q 781 336 794 301 q 739 371 768 371 q 696 336 709 371 q 684 232 684 301 m 275 517 q 133 579 184 517 q 82 755 82 642 q 131 936 82 872 q 277 999 180 999 q 390 966 338 999 l 366 868 q 289 895 320 895 q 216 757 216 895 q 286 623 216 623 q 380 650 342 623 l 380 546 q 275 517 336 517 z "},"ℓ":{"ha":686,"x_min":35,"x_max":633,"o":"m 419 119 q 479 153 454 119 q 507 257 504 186 l 633 257 q 569 52 626 115 q 399 -12 512 -12 q 222 58 284 -12 q 160 254 160 127 l 160 354 l 35 319 l 35 443 q 160 481 83 455 l 160 771 q 218 948 160 891 q 395 1004 276 1004 q 550 946 494 1004 q 607 787 607 887 q 549 588 607 670 q 342 429 490 506 l 342 250 q 361 153 342 187 q 419 119 381 119 m 446 783 q 395 885 446 885 q 355 862 368 885 q 342 783 342 838 l 342 564 q 421 649 397 595 q 446 783 446 703 z "},"№":{"ha":1190,"x_min":87,"x_max":1143,"o":"m 694 0 l 464 0 l 240 747 l 233 747 q 245 485 245 576 l 245 0 l 87 0 l 87 991 l 318 991 l 539 250 l 545 250 q 536 504 536 440 l 536 991 l 694 991 l 694 0 m 1143 431 q 1092 246 1143 307 q 951 186 1041 186 q 760 431 760 186 q 810 611 760 547 q 953 675 860 675 q 1095 612 1046 675 q 1143 431 1143 550 m 888 431 q 951 292 888 292 q 1001 326 986 292 q 1015 431 1015 361 q 1000 536 1015 502 q 951 570 985 570 q 888 431 888 570 m 1109 0 l 794 0 l 794 122 l 1109 122 l 1109 0 z "},"™":{"ha":926,"x_min":8,"x_max":852,"o":"m 228 503 l 123 503 l 123 896 l 8 896 l 8 991 l 343 991 l 343 896 l 228 896 l 228 503 m 561 503 l 478 864 l 473 864 l 476 736 l 476 503 l 375 503 l 375 991 l 539 991 l 611 660 l 690 991 l 852 991 l 852 503 l 749 503 l 749 809 l 750 864 l 747 864 l 661 503 l 561 503 z "},"Ω":{"ha":833,"x_min":25,"x_max":808,"o":"m 416 844 q 288 768 328 844 q 249 549 249 692 q 277 325 249 416 q 370 160 306 233 l 370 0 l 25 0 l 25 164 l 221 164 q 60 574 60 319 q 154 891 60 774 q 416 1007 249 1007 q 677 891 583 1007 q 772 572 772 775 q 614 164 772 320 l 808 164 l 808 0 l 467 0 l 467 160 q 555 322 527 230 q 583 550 583 414 q 544 769 583 693 q 416 844 505 844 z "},"℮":{"ha":639,"x_min":52,"x_max":587,"o":"m 319 -14 q 121 82 191 -14 q 52 370 52 178 q 86 574 52 488 q 182 707 121 661 q 319 753 243 753 q 458 705 396 753 q 554 569 520 656 q 587 370 587 481 l 207 370 l 207 83 q 319 45 254 45 q 430 80 385 45 q 517 203 475 115 l 567 178 q 460 32 522 77 q 319 -14 399 -14 m 433 428 l 433 652 q 318 696 381 696 q 207 654 256 696 l 207 428 l 433 428 z "},"⅛":{"ha":1083,"x_min":40,"x_max":1018,"o":"m 817 606 q 950 564 901 606 q 998 453 998 522 q 977 375 998 408 q 912 313 956 341 q 996 240 973 275 q 1018 163 1018 205 q 963 35 1018 85 q 817 -16 907 -16 q 668 31 723 -16 q 614 159 614 77 q 636 240 614 205 q 709 307 658 276 q 632 453 632 368 q 683 565 632 523 q 817 606 734 606 m 740 159 q 759 106 740 126 q 814 85 777 85 q 871 106 852 85 q 890 159 890 126 q 870 210 890 189 q 806 249 850 231 q 757 212 774 233 q 740 159 740 191 m 815 505 q 772 488 788 505 q 757 448 757 471 q 768 409 757 427 q 817 367 780 391 q 863 406 850 387 q 875 448 875 425 q 860 488 875 471 q 815 505 846 505 m 829 991 l 325 0 l 187 0 l 690 991 l 829 991 m 334 397 l 201 397 l 201 710 l 203 786 l 206 851 q 191 835 201 844 q 102 758 181 825 l 40 838 l 224 991 l 334 991 l 334 397 z "},"⅜":{"ha":1083,"x_min":41,"x_max":1042,"o":"m 840 606 q 974 564 925 606 q 1022 453 1022 522 q 1001 375 1022 408 q 936 313 980 341 q 1019 240 997 275 q 1042 163 1042 205 q 986 35 1042 85 q 840 -16 931 -16 q 692 31 747 -16 q 637 159 637 77 q 660 240 637 205 q 733 307 682 276 q 656 453 656 368 q 707 565 656 523 q 840 606 758 606 m 764 159 q 782 106 764 126 q 838 85 801 85 q 895 106 876 85 q 914 159 914 126 q 894 210 914 189 q 829 249 874 231 q 781 212 798 233 q 764 159 764 191 m 839 505 q 796 488 812 505 q 781 448 781 471 q 792 409 781 427 q 840 367 804 391 q 886 406 874 387 q 899 448 899 425 q 884 488 899 471 q 839 505 869 505 m 401 848 q 301 713 401 747 l 301 705 q 390 652 361 691 q 419 564 419 613 q 366 434 419 481 q 211 386 313 386 q 45 424 105 386 l 45 543 q 201 494 117 494 q 293 574 293 494 q 189 650 293 650 l 122 650 l 122 751 l 179 751 q 254 770 229 751 q 279 831 279 789 q 263 877 279 860 q 215 895 247 895 q 159 882 185 895 q 100 842 133 869 l 41 932 q 134 988 90 972 q 229 1004 179 1004 q 353 962 304 1004 q 401 848 401 920 m 852 991 l 349 0 l 211 0 l 714 991 l 852 991 z "},"⅝":{"ha":1083,"x_min":51,"x_max":1039,"o":"m 838 606 q 971 564 922 606 q 1019 453 1019 522 q 998 375 1019 408 q 933 313 977 341 q 1017 240 994 275 q 1039 163 1039 205 q 984 35 1039 85 q 838 -16 928 -16 q 689 31 744 -16 q 635 159 635 77 q 657 240 635 205 q 730 307 679 276 q 653 453 653 368 q 704 565 653 523 q 838 606 755 606 m 761 159 q 780 106 761 126 q 835 85 798 85 q 892 106 873 85 q 911 159 911 126 q 891 210 911 189 q 827 249 871 231 q 778 212 795 233 q 761 159 761 191 m 836 505 q 793 488 809 505 q 778 448 778 471 q 789 409 778 427 q 838 367 801 391 q 884 406 871 387 q 896 448 896 425 q 881 488 896 471 q 836 505 867 505 m 237 774 q 367 726 320 774 q 413 591 413 679 q 360 440 413 494 q 201 386 308 386 q 51 421 109 386 l 51 536 q 194 494 129 494 q 288 587 288 494 q 265 653 288 632 q 193 673 241 673 q 112 661 147 673 l 59 690 l 81 991 l 377 991 l 377 875 l 176 875 l 168 768 q 237 774 203 774 m 850 991 l 346 0 l 208 0 l 711 991 l 850 991 z "},"⅞":{"ha":1083,"x_min":37,"x_max":985,"o":"m 783 606 q 917 564 868 606 q 965 453 965 522 q 944 375 965 408 q 879 313 923 341 q 962 240 940 275 q 985 163 985 205 q 929 35 985 85 q 783 -16 874 -16 q 635 31 690 -16 q 581 159 581 77 q 603 240 581 205 q 676 307 625 276 q 599 453 599 368 q 650 565 599 523 q 783 606 701 606 m 707 159 q 725 106 707 126 q 781 85 744 85 q 838 106 819 85 q 857 159 857 126 q 837 210 857 189 q 772 249 817 231 q 724 212 741 233 q 707 159 707 191 m 782 505 q 739 488 755 505 q 724 448 724 471 q 735 409 724 427 q 783 367 747 391 q 829 406 817 387 q 842 448 842 425 q 827 488 842 471 q 782 505 812 505 m 795 991 l 292 0 l 154 0 l 657 991 l 795 991 m 96 397 l 297 875 l 37 875 l 37 991 l 431 991 l 431 897 l 236 397 l 96 397 z "},"∂":{"ha":799,"x_min":41,"x_max":751,"o":"m 751 625 q 694 299 751 451 q 539 67 637 148 q 313 -14 441 -14 q 111 58 181 -14 q 41 268 41 129 q 92 491 41 386 q 224 648 142 595 q 414 700 307 700 q 554 659 494 700 l 554 668 q 408 848 543 848 q 317 830 369 848 q 214 777 264 811 l 214 947 q 435 1004 322 1004 q 669 909 587 1004 q 751 625 751 813 m 321 139 q 455 233 395 139 q 539 475 516 327 q 499 536 528 515 q 429 558 469 558 q 336 520 378 558 q 268 407 295 481 q 241 253 241 332 q 321 139 241 139 z "},"∆":{"ha":736,"x_min":24,"x_max":713,"o":"m 24 109 l 241 996 l 493 996 l 713 109 l 713 0 l 24 0 l 24 109 m 367 859 q 321 624 342 708 l 216 163 l 517 163 q 380 784 389 740 q 367 859 370 827 z "},"∏":{"ha":1007,"x_min":106,"x_max":901,"o":"m 703 -314 l 703 829 l 304 829 l 304 -314 l 106 -314 l 106 991 l 901 991 l 901 -314 l 703 -314 z "},"∑":{"ha":873,"x_min":29,"x_max":863,"o":"m 29 -314 l 29 -207 l 427 370 l 40 886 l 40 991 l 821 991 l 821 832 l 298 832 l 643 374 l 282 -154 l 863 -154 l 863 -314 l 29 -314 z "},"−":{"ha":623,"x_min":72,"x_max":550,"o":"m 72 419 l 72 559 l 550 559 l 550 419 l 72 419 z "},"√":{"ha":753,"x_min":24,"x_max":857,"o":"m 443 -9 l 326 -9 l 143 496 l 24 496 l 24 631 l 240 631 l 383 233 l 718 1183 l 857 1183 l 443 -9 z "},"∞":{"ha":968,"x_min":71,"x_max":897,"o":"m 897 486 q 837 325 897 391 q 686 260 776 260 q 481 385 564 260 q 388 296 441 329 q 285 264 336 264 q 130 326 189 264 q 71 490 71 389 q 131 652 71 588 q 285 715 192 715 q 485 591 406 715 q 686 713 570 713 q 838 651 779 713 q 897 486 897 589 m 292 392 q 354 416 326 392 q 412 490 383 439 q 356 564 385 539 q 290 589 327 589 q 225 561 251 589 q 200 489 200 533 q 225 419 200 446 q 292 392 250 392 m 676 585 q 554 488 613 585 q 677 387 614 387 q 742 415 716 387 q 768 488 768 444 q 742 557 768 530 q 676 585 716 585 z "},"∫":{"ha":566,"x_min":3,"x_max":562,"o":"m 461 897 q 400 868 420 897 q 379 791 379 839 l 379 -79 q 315 -268 379 -203 q 126 -334 251 -334 q 3 -309 54 -334 l 3 -150 q 104 -175 60 -175 q 187 -66 187 -175 l 187 802 q 252 991 187 928 q 439 1055 317 1055 q 562 1031 512 1055 l 562 872 q 461 897 505 897 z "},"≈":{"ha":623,"x_min":50,"x_max":572,"o":"m 179 330 q 50 248 119 330 l 50 396 q 191 470 111 470 q 245 463 220 470 q 329 427 271 456 q 396 396 374 404 q 446 389 418 389 q 572 471 505 389 l 572 323 q 432 249 517 249 q 365 260 397 249 q 292 292 332 271 q 218 325 236 320 q 179 330 201 330 m 179 595 q 50 513 119 595 l 50 661 q 191 735 111 735 q 245 728 220 735 q 329 692 271 721 q 396 662 374 669 q 446 654 418 654 q 572 736 505 654 l 572 588 q 432 514 517 514 q 365 525 397 514 q 292 557 332 536 q 218 590 236 585 q 179 595 201 595 z "},"≠":{"ha":623,"x_min":72,"x_max":550,"o":"m 298 286 l 239 117 l 136 153 l 182 286 l 72 286 l 72 427 l 231 427 l 275 553 l 72 553 l 72 692 l 322 692 l 383 864 l 486 828 l 439 692 l 550 692 l 550 553 l 392 553 l 346 427 l 550 427 l 550 286 l 298 286 z "},"≤":{"ha":623,"x_min":72,"x_max":550,"o":"m 72 0 l 72 140 l 550 140 l 550 0 l 72 0 m 72 437 l 72 543 l 550 838 l 550 685 l 220 490 l 550 294 l 550 142 l 72 437 z "},"≥":{"ha":623,"x_min":72,"x_max":550,"o":"m 72 0 l 72 140 l 550 140 l 550 0 l 72 0 m 72 294 l 403 490 l 72 685 l 72 838 l 550 543 l 550 437 l 72 142 l 72 294 z "},"◊":{"ha":799,"x_min":57,"x_max":741,"o":"m 741 498 l 435 0 l 363 0 l 57 498 l 363 999 l 435 999 l 741 498 m 572 498 l 399 790 l 225 498 l 399 207 l 572 498 z "},"ﬁ":{"ha":751,"x_min":20,"x_max":682,"o":"m 412 612 l 288 612 l 288 0 l 107 0 l 107 612 l 20 612 l 20 703 l 107 757 l 107 814 q 159 1001 107 940 q 328 1063 212 1063 q 464 1032 401 1063 l 416 895 q 347 911 382 911 q 302 886 316 911 q 288 811 288 862 l 288 755 l 412 755 l 412 612 m 673 0 l 493 0 l 493 755 l 673 755 l 673 0 m 486 953 q 512 1024 486 998 q 585 1050 538 1050 q 655 1024 629 1050 q 682 953 682 998 q 654 881 682 907 q 585 856 627 856 q 513 881 540 856 q 486 953 486 907 z "},"ﬂ":{"ha":747,"x_min":20,"x_max":672,"o":"m 412 612 l 288 612 l 288 0 l 107 0 l 107 612 l 20 612 l 20 703 l 107 757 l 107 814 q 159 1001 107 940 q 328 1063 212 1063 q 464 1032 401 1063 l 416 895 q 347 911 382 911 q 302 886 316 911 q 288 811 288 862 l 288 755 l 412 755 l 412 612 m 672 0 l 492 0 l 492 1055 l 672 1055 l 672 0 z "},"ȷ":{"ha":339,"x_min":-40,"x_max":262,"o":"m 54 -334 q -40 -317 -3 -334 l -40 -167 q 18 -179 -9 -179 q 82 -64 82 -179 l 82 755 l 262 755 l 262 -87 q 208 -270 262 -205 q 54 -334 153 -334 z "},"⁰":{"ha":467,"x_min":28,"x_max":440,"o":"m 170 694 q 184 559 170 604 q 233 514 199 514 q 283 558 267 514 q 298 694 298 602 q 283 829 298 785 q 233 873 267 873 q 184 829 199 873 q 170 694 170 785 m 440 696 q 388 461 440 540 q 232 383 335 383 q 81 465 134 383 q 28 696 28 546 q 232 1006 28 1006 q 386 926 331 1006 q 440 696 440 847 z "},"⁴":{"ha":467,"x_min":14,"x_max":456,"o":"m 456 505 l 380 505 l 380 397 l 248 397 l 248 505 l 14 505 l 14 604 l 249 996 l 380 996 l 380 614 l 456 614 l 456 505 m 248 614 l 248 729 l 250 856 q 227 799 242 833 q 203 750 212 764 l 121 614 l 248 614 z "},"⁵":{"ha":467,"x_min":53,"x_max":415,"o":"m 239 774 q 369 726 322 774 q 415 591 415 679 q 362 440 415 494 q 203 386 310 386 q 53 421 111 386 l 53 536 q 196 494 131 494 q 290 587 290 494 q 267 653 290 632 q 195 673 243 673 q 114 661 149 673 l 61 690 l 83 991 l 379 991 l 379 875 l 178 875 l 170 768 q 239 774 205 774 z "},"⁶":{"ha":467,"x_min":31,"x_max":437,"o":"m 31 660 q 104 918 31 832 q 314 1004 177 1004 q 390 994 359 1004 l 390 880 q 329 890 363 890 q 201 848 244 890 q 154 715 157 806 l 160 715 q 278 782 204 782 q 394 734 350 782 q 437 597 437 686 q 383 445 437 505 q 240 386 328 386 q 86 459 142 386 q 31 660 31 532 m 235 498 q 290 524 269 498 q 311 597 311 550 q 293 661 311 637 q 237 685 275 685 q 179 662 203 685 q 155 607 155 640 q 178 529 155 559 q 235 498 200 498 z "},"⁷":{"ha":467,"x_min":37,"x_max":431,"o":"m 96 397 l 297 875 l 37 875 l 37 991 l 431 991 l 431 897 l 236 397 l 96 397 z "},"⁸":{"ha":467,"x_min":32,"x_max":436,"o":"m 235 1006 q 368 964 319 1006 q 416 852 416 922 q 395 774 416 808 q 330 713 374 741 q 414 640 391 674 q 436 562 436 605 q 381 434 436 485 q 235 383 326 383 q 86 430 141 383 q 32 558 32 477 q 54 640 32 604 q 127 707 76 675 q 50 852 50 768 q 101 964 50 922 q 235 1006 153 1006 m 158 558 q 177 505 158 526 q 232 485 195 485 q 289 505 270 485 q 309 558 309 526 q 289 609 309 588 q 224 648 269 630 q 175 612 192 633 q 158 558 158 591 m 233 904 q 191 887 206 904 q 175 847 175 871 q 186 808 175 826 q 235 766 198 791 q 281 805 269 787 q 293 847 293 824 q 278 887 293 871 q 233 904 264 904 z "},"⁹":{"ha":467,"x_min":26,"x_max":433,"o":"m 433 730 q 361 473 433 559 q 150 386 288 386 q 74 396 104 386 l 74 510 q 135 500 100 500 q 263 542 220 500 q 310 675 307 584 l 306 675 q 186 608 262 608 q 70 656 114 608 q 26 793 26 705 q 81 945 26 886 q 224 1004 136 1004 q 377 931 321 1004 q 433 730 433 858 m 229 892 q 174 866 195 892 q 153 793 153 840 q 171 729 153 753 q 227 705 189 705 q 285 728 261 705 q 309 783 309 751 q 286 861 309 831 q 229 892 264 892 z "}," ":{"ha":694,"x_min":0,"x_max":0,"o":""}," ":{"ha":1389,"x_min":0,"x_max":0,"o":""}," ":{"ha":694,"x_min":0,"x_max":0,"o":""}," ":{"ha":1389,"x_min":0,"x_max":0,"o":""}," ":{"ha":463,"x_min":0,"x_max":0,"o":""}," ":{"ha":347,"x_min":0,"x_max":0,"o":""}," ":{"ha":232,"x_min":0,"x_max":0,"o":""}," ":{"ha":777,"x_min":0,"x_max":0,"o":""}," ":{"ha":392,"x_min":0,"x_max":0,"o":""}," ":{"ha":278,"x_min":0,"x_max":0,"o":""}," ":{"ha":139,"x_min":0,"x_max":0,"o":""},"​":{"ha":0,"x_min":0,"x_max":0,"o":""},"﻿":{"ha":0,"x_min":0,"x_max":0,"o":""},"￼":{"ha":1379,"x_min":52,"x_max":1340,"o":"m 52 823 l 52 1029 l 257 1029 l 257 954 l 126 954 l 126 823 l 52 823 m 1135 954 l 1135 1029 l 1340 1029 l 1340 823 l 1267 823 l 1267 954 l 1135 954 m 52 -260 l 52 -54 l 126 -54 l 126 -186 l 257 -186 l 257 -260 l 52 -260 m 1135 -260 l 1135 -186 l 1267 -186 l 1267 -54 l 1340 -54 l 1340 -260 l 1135 -260 m 869 -260 l 869 -186 l 1054 -186 l 1054 -260 l 869 -260 m 339 -260 l 339 -186 l 522 -186 l 522 -260 l 339 -260 m 339 954 l 339 1029 l 522 1029 l 522 954 l 339 954 m 1340 26 l 1267 26 l 1267 210 l 1340 210 l 1340 26 m 1340 558 l 1267 558 l 1267 742 l 1340 742 l 1340 558 m 604 -260 l 604 -186 l 789 -186 l 789 -260 l 604 -260 m 126 26 l 52 26 l 52 210 l 126 210 l 126 26 m 604 954 l 604 1029 l 789 1029 l 789 954 l 604 954 m 869 954 l 869 1029 l 1054 1029 l 1054 954 l 869 954 m 126 292 l 52 292 l 52 476 l 126 476 l 126 292 m 126 558 l 52 558 l 52 742 l 126 742 l 126 558 m 1340 292 l 1267 292 l 1267 476 l 1340 476 l 1340 292 m 581 427 q 535 275 581 328 q 403 222 489 222 q 271 275 317 222 q 225 427 225 328 q 271 578 225 526 q 403 631 317 631 q 534 578 488 631 q 581 427 581 526 m 311 427 q 403 293 311 293 q 494 427 494 293 q 403 559 494 559 q 311 427 311 559 m 637 625 l 754 625 q 866 603 828 625 q 904 524 904 580 q 888 468 904 490 q 843 440 872 446 l 843 435 q 900 402 884 425 q 916 343 916 379 q 879 258 916 288 q 778 228 842 228 l 637 228 l 637 625 m 721 468 l 765 468 q 809 479 797 468 q 821 513 821 491 q 807 546 821 536 q 761 555 793 555 l 721 555 l 721 468 m 721 401 l 721 297 l 771 297 q 817 312 804 297 q 829 351 829 326 q 768 401 829 401 l 721 401 m 1006 224 q 951 231 970 224 l 951 300 q 997 294 979 294 q 1055 353 1055 294 l 1055 625 l 1140 625 l 1140 355 q 1104 257 1140 291 q 1006 224 1069 224 z "}}}
